<?xml version="1.0" encoding="utf-8"?>
<svg xmlns="http://www.w3.org/2000/svg" xmlns:xlink="http://www.w3.org/1999/xlink" width="600" height="300" viewBox="0 0 2400 1200">
<defs>
  <clipPath id="clip510">
    <rect x="0" y="0" width="2400" height="1200"/>
  </clipPath>
</defs>
<path clip-path="url(#clip510)" d="M0 1200 L2400 1200 L2400 0 L0 0  Z" fill="#ffffff" fill-rule="evenodd" fill-opacity="1"/>
<defs>
  <clipPath id="clip511">
    <rect x="480" y="0" width="1681" height="1200"/>
  </clipPath>
</defs>
<path clip-path="url(#clip510)" d="M267.322 991.188 L1089.76 991.188 L1089.76 161.624 L267.322 161.624  Z" fill="#ffffff" fill-rule="evenodd" fill-opacity="1"/>
<defs>
  <clipPath id="clip512">
    <rect x="267" y="161" width="823" height="831"/>
  </clipPath>
</defs>
<polyline clip-path="url(#clip512)" style="stroke:#000000; stroke-linecap:round; stroke-linejoin:round; stroke-width:2; stroke-opacity:0.1; fill:none" points="404.396,991.188 404.396,161.624 "/>
<polyline clip-path="url(#clip512)" style="stroke:#000000; stroke-linecap:round; stroke-linejoin:round; stroke-width:2; stroke-opacity:0.1; fill:none" points="678.543,991.188 678.543,161.624 "/>
<polyline clip-path="url(#clip512)" style="stroke:#000000; stroke-linecap:round; stroke-linejoin:round; stroke-width:2; stroke-opacity:0.1; fill:none" points="952.69,991.188 952.69,161.624 "/>
<polyline clip-path="url(#clip512)" style="stroke:#000000; stroke-linecap:round; stroke-linejoin:round; stroke-width:2; stroke-opacity:0.1; fill:none" points="267.322,991.188 1089.76,991.188 "/>
<polyline clip-path="url(#clip512)" style="stroke:#000000; stroke-linecap:round; stroke-linejoin:round; stroke-width:2; stroke-opacity:0.1; fill:none" points="267.322,825.275 1089.76,825.275 "/>
<polyline clip-path="url(#clip512)" style="stroke:#000000; stroke-linecap:round; stroke-linejoin:round; stroke-width:2; stroke-opacity:0.1; fill:none" points="267.322,659.362 1089.76,659.362 "/>
<polyline clip-path="url(#clip512)" style="stroke:#000000; stroke-linecap:round; stroke-linejoin:round; stroke-width:2; stroke-opacity:0.1; fill:none" points="267.322,493.45 1089.76,493.45 "/>
<polyline clip-path="url(#clip512)" style="stroke:#000000; stroke-linecap:round; stroke-linejoin:round; stroke-width:2; stroke-opacity:0.1; fill:none" points="267.322,327.537 1089.76,327.537 "/>
<polyline clip-path="url(#clip512)" style="stroke:#000000; stroke-linecap:round; stroke-linejoin:round; stroke-width:2; stroke-opacity:0.1; fill:none" points="267.322,161.624 1089.76,161.624 "/>
<polyline clip-path="url(#clip510)" style="stroke:#000000; stroke-linecap:round; stroke-linejoin:round; stroke-width:4; stroke-opacity:1; fill:none" points="267.322,991.188 1089.76,991.188 "/>
<polyline clip-path="url(#clip510)" style="stroke:#000000; stroke-linecap:round; stroke-linejoin:round; stroke-width:4; stroke-opacity:1; fill:none" points="404.396,991.188 404.396,972.29 "/>
<polyline clip-path="url(#clip510)" style="stroke:#000000; stroke-linecap:round; stroke-linejoin:round; stroke-width:4; stroke-opacity:1; fill:none" points="678.543,991.188 678.543,972.29 "/>
<polyline clip-path="url(#clip510)" style="stroke:#000000; stroke-linecap:round; stroke-linejoin:round; stroke-width:4; stroke-opacity:1; fill:none" points="952.69,991.188 952.69,972.29 "/>
<path clip-path="url(#clip510)" d="M394.778 1049.65 L402.417 1049.65 L402.417 1023.29 L394.107 1024.95 L394.107 1020.69 L402.371 1019.03 L407.046 1019.03 L407.046 1049.65 L414.685 1049.65 L414.685 1053.59 L394.778 1053.59 L394.778 1049.65 Z" fill="#000000" fill-rule="nonzero" fill-opacity="1" /><path clip-path="url(#clip510)" d="M673.196 1049.65 L689.515 1049.65 L689.515 1053.59 L667.571 1053.59 L667.571 1049.65 Q670.233 1046.9 674.816 1042.27 Q679.423 1037.62 680.603 1036.27 Q682.849 1033.75 683.728 1032.01 Q684.631 1030.25 684.631 1028.56 Q684.631 1025.81 682.687 1024.07 Q680.765 1022.34 677.663 1022.34 Q675.464 1022.34 673.011 1023.1 Q670.58 1023.87 667.802 1025.42 L667.802 1020.69 Q670.626 1019.56 673.08 1018.98 Q675.534 1018.4 677.571 1018.4 Q682.941 1018.4 686.136 1021.09 Q689.33 1023.77 689.33 1028.26 Q689.33 1030.39 688.52 1032.31 Q687.733 1034.21 685.626 1036.81 Q685.048 1037.48 681.946 1040.69 Q678.844 1043.89 673.196 1049.65 Z" fill="#000000" fill-rule="nonzero" fill-opacity="1" /><path clip-path="url(#clip510)" d="M956.938 1034.95 Q960.294 1035.67 962.169 1037.94 Q964.067 1040.21 964.067 1043.54 Q964.067 1048.66 960.549 1051.46 Q957.03 1054.26 950.549 1054.26 Q948.373 1054.26 946.058 1053.82 Q943.767 1053.4 941.313 1052.55 L941.313 1048.03 Q943.257 1049.17 945.572 1049.75 Q947.887 1050.32 950.41 1050.32 Q954.808 1050.32 957.1 1048.59 Q959.415 1046.85 959.415 1043.54 Q959.415 1040.49 957.262 1038.77 Q955.132 1037.04 951.313 1037.04 L947.285 1037.04 L947.285 1033.19 L951.498 1033.19 Q954.947 1033.19 956.776 1031.83 Q958.605 1030.44 958.605 1027.85 Q958.605 1025.19 956.706 1023.77 Q954.831 1022.34 951.313 1022.34 Q949.392 1022.34 947.193 1022.75 Q944.994 1023.17 942.355 1024.05 L942.355 1019.88 Q945.017 1019.14 947.331 1018.77 Q949.669 1018.4 951.73 1018.4 Q957.054 1018.4 960.155 1020.83 Q963.257 1023.24 963.257 1027.36 Q963.257 1030.23 961.614 1032.22 Q959.97 1034.19 956.938 1034.95 Z" fill="#000000" fill-rule="nonzero" fill-opacity="1" /><path clip-path="url(#clip510)" d="M582.554 1086.8 L588.205 1086.8 L597.866 1101.26 L607.58 1086.8 L613.231 1086.8 L600.731 1105.48 L614.064 1125.68 L608.413 1125.68 L597.476 1109.15 L586.46 1125.68 L580.783 1125.68 L594.663 1104.93 L582.554 1086.8 Z" fill="#000000" fill-rule="nonzero" fill-opacity="1" /><path clip-path="url(#clip510)" d="M647.944 1125.68 L633.101 1086.8 L638.595 1086.8 L650.913 1119.54 L663.257 1086.8 L668.725 1086.8 L653.908 1125.68 L647.944 1125.68 Z" fill="#000000" fill-rule="nonzero" fill-opacity="1" /><path clip-path="url(#clip510)" d="M683.309 1111.02 Q677.501 1111.02 675.262 1112.35 Q673.022 1113.68 673.022 1116.88 Q673.022 1119.43 674.689 1120.94 Q676.382 1122.43 679.272 1122.43 Q683.257 1122.43 685.652 1119.62 Q688.074 1116.78 688.074 1112.09 L688.074 1111.02 L683.309 1111.02 M692.866 1109.04 L692.866 1125.68 L688.074 1125.68 L688.074 1121.26 Q686.434 1123.91 683.986 1125.19 Q681.538 1126.44 677.996 1126.44 Q673.517 1126.44 670.861 1123.94 Q668.231 1121.41 668.231 1117.19 Q668.231 1112.27 671.512 1109.77 Q674.819 1107.27 681.356 1107.27 L688.074 1107.27 L688.074 1106.8 Q688.074 1103.5 685.887 1101.7 Q683.725 1099.88 679.793 1099.88 Q677.293 1099.88 674.923 1100.48 Q672.554 1101.07 670.366 1102.27 L670.366 1097.85 Q672.996 1096.83 675.47 1096.33 Q677.944 1095.81 680.288 1095.81 Q686.616 1095.81 689.741 1099.1 Q692.866 1102.38 692.866 1109.04 Z" fill="#000000" fill-rule="nonzero" fill-opacity="1" /><path clip-path="url(#clip510)" d="M702.736 1085.16 L707.527 1085.16 L707.527 1125.68 L702.736 1125.68 L702.736 1085.16 Z" fill="#000000" fill-rule="nonzero" fill-opacity="1" /><path clip-path="url(#clip510)" d="M717.059 1114.17 L717.059 1096.52 L721.85 1096.52 L721.85 1113.99 Q721.85 1118.13 723.465 1120.21 Q725.079 1122.27 728.308 1122.27 Q732.189 1122.27 734.428 1119.8 Q736.694 1117.32 736.694 1113.05 L736.694 1096.52 L741.485 1096.52 L741.485 1125.68 L736.694 1125.68 L736.694 1121.2 Q734.949 1123.86 732.631 1125.16 Q730.34 1126.44 727.293 1126.44 Q722.267 1126.44 719.663 1123.31 Q717.059 1120.19 717.059 1114.17 M729.116 1095.81 L729.116 1095.81 Z" fill="#000000" fill-rule="nonzero" fill-opacity="1" /><path clip-path="url(#clip510)" d="M776.303 1109.9 L776.303 1112.25 L754.272 1112.25 Q754.584 1117.19 757.241 1119.8 Q759.923 1122.38 764.688 1122.38 Q767.449 1122.38 770.027 1121.7 Q772.631 1121.02 775.183 1119.67 L775.183 1124.2 Q772.605 1125.29 769.897 1125.87 Q767.188 1126.44 764.402 1126.44 Q757.423 1126.44 753.334 1122.38 Q749.272 1118.31 749.272 1111.39 Q749.272 1104.23 753.126 1100.03 Q757.006 1095.81 763.569 1095.81 Q769.454 1095.81 772.866 1099.62 Q776.303 1103.39 776.303 1109.9 M771.511 1108.5 Q771.459 1104.56 769.298 1102.22 Q767.162 1099.88 763.621 1099.88 Q759.61 1099.88 757.189 1102.14 Q754.793 1104.41 754.428 1108.52 L771.511 1108.5 Z" fill="#000000" fill-rule="nonzero" fill-opacity="1" /><polyline clip-path="url(#clip510)" style="stroke:#000000; stroke-linecap:round; stroke-linejoin:round; stroke-width:4; stroke-opacity:1; fill:none" points="267.322,991.188 267.322,161.624 "/>
<polyline clip-path="url(#clip510)" style="stroke:#000000; stroke-linecap:round; stroke-linejoin:round; stroke-width:4; stroke-opacity:1; fill:none" points="267.322,991.188 286.22,991.188 "/>
<polyline clip-path="url(#clip510)" style="stroke:#000000; stroke-linecap:round; stroke-linejoin:round; stroke-width:4; stroke-opacity:1; fill:none" points="267.322,825.275 286.22,825.275 "/>
<polyline clip-path="url(#clip510)" style="stroke:#000000; stroke-linecap:round; stroke-linejoin:round; stroke-width:4; stroke-opacity:1; fill:none" points="267.322,659.362 286.22,659.362 "/>
<polyline clip-path="url(#clip510)" style="stroke:#000000; stroke-linecap:round; stroke-linejoin:round; stroke-width:4; stroke-opacity:1; fill:none" points="267.322,493.45 286.22,493.45 "/>
<polyline clip-path="url(#clip510)" style="stroke:#000000; stroke-linecap:round; stroke-linejoin:round; stroke-width:4; stroke-opacity:1; fill:none" points="267.322,327.537 286.22,327.537 "/>
<polyline clip-path="url(#clip510)" style="stroke:#000000; stroke-linecap:round; stroke-linejoin:round; stroke-width:4; stroke-opacity:1; fill:none" points="267.322,161.624 286.22,161.624 "/>
<path clip-path="url(#clip510)" d="M160.617 1010.98 L168.256 1010.98 L168.256 984.615 L159.946 986.281 L159.946 982.022 L168.209 980.355 L172.885 980.355 L172.885 1010.98 L180.524 1010.98 L180.524 1014.92 L160.617 1014.92 L160.617 1010.98 Z" fill="#000000" fill-rule="nonzero" fill-opacity="1" /><path clip-path="url(#clip510)" d="M199.968 983.434 Q196.357 983.434 194.529 986.999 Q192.723 990.54 192.723 997.67 Q192.723 1004.78 194.529 1008.34 Q196.357 1011.88 199.968 1011.88 Q203.603 1011.88 205.408 1008.34 Q207.237 1004.78 207.237 997.67 Q207.237 990.54 205.408 986.999 Q203.603 983.434 199.968 983.434 M199.968 979.73 Q205.779 979.73 208.834 984.337 Q211.913 988.92 211.913 997.67 Q211.913 1006.4 208.834 1011 Q205.779 1015.59 199.968 1015.59 Q194.158 1015.59 191.08 1011 Q188.024 1006.4 188.024 997.67 Q188.024 988.92 191.08 984.337 Q194.158 979.73 199.968 979.73 Z" fill="#000000" fill-rule="nonzero" fill-opacity="1" /><path clip-path="url(#clip510)" d="M221.618 961.926 Q218.684 961.926 217.198 964.823 Q215.731 967.7 215.731 973.493 Q215.731 979.267 217.198 982.164 Q218.684 985.041 221.618 985.041 Q224.57 985.041 226.037 982.164 Q227.523 979.267 227.523 973.493 Q227.523 967.7 226.037 964.823 Q224.57 961.926 221.618 961.926 M221.618 958.917 Q226.338 958.917 228.821 962.66 Q231.322 966.384 231.322 973.493 Q231.322 980.584 228.821 984.326 Q226.338 988.05 221.618 988.05 Q216.897 988.05 214.395 984.326 Q211.913 980.584 211.913 973.493 Q211.913 966.384 214.395 962.66 Q216.897 958.917 221.618 958.917 Z" fill="#000000" fill-rule="nonzero" fill-opacity="1" /><path clip-path="url(#clip510)" d="M163.306 845.067 L170.945 845.067 L170.945 818.702 L162.635 820.369 L162.635 816.109 L170.899 814.443 L175.575 814.443 L175.575 845.067 L183.214 845.067 L183.214 849.003 L163.306 849.003 L163.306 845.067 Z" fill="#000000" fill-rule="nonzero" fill-opacity="1" /><path clip-path="url(#clip510)" d="M202.658 817.521 Q199.047 817.521 197.218 821.086 Q195.413 824.628 195.413 831.757 Q195.413 838.864 197.218 842.429 Q199.047 845.97 202.658 845.97 Q206.292 845.97 208.098 842.429 Q209.926 838.864 209.926 831.757 Q209.926 824.628 208.098 821.086 Q206.292 817.521 202.658 817.521 M202.658 813.818 Q208.468 813.818 211.524 818.424 Q214.602 823.007 214.602 831.757 Q214.602 840.484 211.524 845.091 Q208.468 849.674 202.658 849.674 Q196.848 849.674 193.769 845.091 Q190.714 840.484 190.714 831.757 Q190.714 823.007 193.769 818.424 Q196.848 813.818 202.658 813.818 Z" fill="#000000" fill-rule="nonzero" fill-opacity="1" /><path clip-path="url(#clip510)" d="M215.148 818.395 L221.354 818.395 L221.354 796.973 L214.602 798.327 L214.602 794.866 L221.317 793.512 L225.116 793.512 L225.116 818.395 L231.322 818.395 L231.322 821.592 L215.148 821.592 L215.148 818.395 Z" fill="#000000" fill-rule="nonzero" fill-opacity="1" /><path clip-path="url(#clip510)" d="M162.197 679.155 L169.836 679.155 L169.836 652.789 L161.525 654.456 L161.525 650.197 L169.789 648.53 L174.465 648.53 L174.465 679.155 L182.104 679.155 L182.104 683.09 L162.197 683.09 L162.197 679.155 Z" fill="#000000" fill-rule="nonzero" fill-opacity="1" /><path clip-path="url(#clip510)" d="M201.548 651.609 Q197.937 651.609 196.109 655.173 Q194.303 658.715 194.303 665.845 Q194.303 672.951 196.109 676.516 Q197.937 680.058 201.548 680.058 Q205.183 680.058 206.988 676.516 Q208.817 672.951 208.817 665.845 Q208.817 658.715 206.988 655.173 Q205.183 651.609 201.548 651.609 M201.548 647.905 Q207.358 647.905 210.414 652.511 Q213.493 657.095 213.493 665.845 Q213.493 674.571 210.414 679.178 Q207.358 683.761 201.548 683.761 Q195.738 683.761 192.659 679.178 Q189.604 674.571 189.604 665.845 Q189.604 657.095 192.659 652.511 Q195.738 647.905 201.548 647.905 Z" fill="#000000" fill-rule="nonzero" fill-opacity="1" /><path clip-path="url(#clip510)" d="M218.063 652.482 L231.322 652.482 L231.322 655.68 L213.493 655.68 L213.493 652.482 Q215.656 650.244 219.38 646.483 Q223.122 642.702 224.081 641.611 Q225.906 639.561 226.621 638.151 Q227.354 636.721 227.354 635.348 Q227.354 633.11 225.774 631.7 Q224.213 630.289 221.693 630.289 Q219.906 630.289 217.913 630.91 Q215.938 631.53 213.681 632.79 L213.681 628.954 Q215.975 628.032 217.969 627.562 Q219.963 627.092 221.618 627.092 Q225.981 627.092 228.577 629.273 Q231.172 631.455 231.172 635.104 Q231.172 636.834 230.514 638.395 Q229.874 639.937 228.163 642.044 Q227.693 642.589 225.172 645.204 Q222.652 647.799 218.063 652.482 Z" fill="#000000" fill-rule="nonzero" fill-opacity="1" /><path clip-path="url(#clip510)" d="M161.538 513.242 L169.177 513.242 L169.177 486.876 L160.867 488.543 L160.867 484.284 L169.131 482.617 L173.807 482.617 L173.807 513.242 L181.446 513.242 L181.446 517.177 L161.538 517.177 L161.538 513.242 Z" fill="#000000" fill-rule="nonzero" fill-opacity="1" /><path clip-path="url(#clip510)" d="M200.89 485.696 Q197.279 485.696 195.45 489.261 Q193.645 492.802 193.645 499.932 Q193.645 507.038 195.45 510.603 Q197.279 514.145 200.89 514.145 Q204.524 514.145 206.33 510.603 Q208.159 507.038 208.159 499.932 Q208.159 492.802 206.33 489.261 Q204.524 485.696 200.89 485.696 M200.89 481.992 Q206.7 481.992 209.756 486.599 Q212.834 491.182 212.834 499.932 Q212.834 508.659 209.756 513.265 Q206.7 517.849 200.89 517.849 Q195.08 517.849 192.001 513.265 Q188.946 508.659 188.946 499.932 Q188.946 491.182 192.001 486.599 Q195.08 481.992 200.89 481.992 Z" fill="#000000" fill-rule="nonzero" fill-opacity="1" /><path clip-path="url(#clip510)" d="M225.53 474.627 Q228.257 475.21 229.78 477.053 Q231.322 478.896 231.322 481.604 Q231.322 485.761 228.464 488.037 Q225.605 490.312 220.339 490.312 Q218.571 490.312 216.69 489.955 Q214.828 489.616 212.834 488.92 L212.834 485.253 Q214.414 486.175 216.295 486.645 Q218.176 487.115 220.226 487.115 Q223.799 487.115 225.661 485.704 Q227.542 484.294 227.542 481.604 Q227.542 479.122 225.793 477.73 Q224.063 476.319 220.959 476.319 L217.687 476.319 L217.687 473.197 L221.11 473.197 Q223.912 473.197 225.398 472.088 Q226.884 470.959 226.884 468.853 Q226.884 466.69 225.342 465.542 Q223.818 464.376 220.959 464.376 Q219.398 464.376 217.612 464.715 Q215.825 465.053 213.681 465.768 L213.681 462.383 Q215.844 461.781 217.724 461.48 Q219.624 461.179 221.298 461.179 Q225.624 461.179 228.144 463.154 Q230.664 465.11 230.664 468.458 Q230.664 470.79 229.329 472.407 Q227.993 474.006 225.53 474.627 Z" fill="#000000" fill-rule="nonzero" fill-opacity="1" /><path clip-path="url(#clip510)" d="M159.564 347.329 L167.202 347.329 L167.202 320.964 L158.892 322.63 L158.892 318.371 L167.156 316.705 L171.832 316.705 L171.832 347.329 L179.471 347.329 L179.471 351.265 L159.564 351.265 L159.564 347.329 Z" fill="#000000" fill-rule="nonzero" fill-opacity="1" /><path clip-path="url(#clip510)" d="M198.915 319.783 Q195.304 319.783 193.475 323.348 Q191.67 326.89 191.67 334.019 Q191.67 341.126 193.475 344.691 Q195.304 348.232 198.915 348.232 Q202.549 348.232 204.355 344.691 Q206.184 341.126 206.184 334.019 Q206.184 326.89 204.355 323.348 Q202.549 319.783 198.915 319.783 M198.915 316.08 Q204.725 316.08 207.781 320.686 Q210.86 325.269 210.86 334.019 Q210.86 342.746 207.781 347.353 Q204.725 351.936 198.915 351.936 Q193.105 351.936 190.026 347.353 Q186.971 342.746 186.971 334.019 Q186.971 325.269 190.026 320.686 Q193.105 316.08 198.915 316.08 Z" fill="#000000" fill-rule="nonzero" fill-opacity="1" /><path clip-path="url(#clip510)" d="M223.536 299.084 L213.944 314.074 L223.536 314.074 L223.536 299.084 M222.539 295.774 L227.316 295.774 L227.316 314.074 L231.322 314.074 L231.322 317.234 L227.316 317.234 L227.316 323.854 L223.536 323.854 L223.536 317.234 L210.86 317.234 L210.86 313.566 L222.539 295.774 Z" fill="#000000" fill-rule="nonzero" fill-opacity="1" /><path clip-path="url(#clip510)" d="M161.858 181.417 L169.497 181.417 L169.497 155.051 L161.187 156.718 L161.187 152.459 L169.451 150.792 L174.127 150.792 L174.127 181.417 L181.765 181.417 L181.765 185.352 L161.858 185.352 L161.858 181.417 Z" fill="#000000" fill-rule="nonzero" fill-opacity="1" /><path clip-path="url(#clip510)" d="M201.21 153.871 Q197.599 153.871 195.77 157.435 Q193.964 160.977 193.964 168.107 Q193.964 175.213 195.77 178.778 Q197.599 182.319 201.21 182.319 Q204.844 182.319 206.65 178.778 Q208.478 175.213 208.478 168.107 Q208.478 160.977 206.65 157.435 Q204.844 153.871 201.21 153.871 M201.21 150.167 Q207.02 150.167 210.075 154.773 Q213.154 159.357 213.154 168.107 Q213.154 176.833 210.075 181.44 Q207.02 186.023 201.21 186.023 Q195.4 186.023 192.321 181.44 Q189.265 176.833 189.265 168.107 Q189.265 159.357 192.321 154.773 Q195.4 150.167 201.21 150.167 Z" fill="#000000" fill-rule="nonzero" fill-opacity="1" /><path clip-path="url(#clip510)" d="M214.339 129.861 L229.254 129.861 L229.254 133.059 L217.818 133.059 L217.818 139.942 Q218.646 139.66 219.474 139.529 Q220.301 139.378 221.129 139.378 Q225.831 139.378 228.577 141.955 Q231.322 144.532 231.322 148.933 Q231.322 153.465 228.501 155.985 Q225.68 158.487 220.546 158.487 Q218.778 158.487 216.935 158.186 Q215.11 157.885 213.154 157.283 L213.154 153.465 Q214.847 154.387 216.652 154.838 Q218.458 155.29 220.47 155.29 Q223.724 155.29 225.624 153.578 Q227.523 151.867 227.523 148.933 Q227.523 145.999 225.624 144.287 Q223.724 142.576 220.47 142.576 Q218.947 142.576 217.424 142.914 Q215.919 143.253 214.339 143.967 L214.339 129.861 Z" fill="#000000" fill-rule="nonzero" fill-opacity="1" /><path clip-path="url(#clip510)" d="M72.3483 737.577 L72.3483 731.926 L88.3378 721.145 L72.3483 710.442 L72.3483 704.791 L92.7128 718.541 L111.228 718.541 L111.228 723.827 L92.7128 723.827 L72.3483 737.577 Z" fill="#000000" fill-rule="nonzero" fill-opacity="1" /><path clip-path="url(#clip510)" d="M70.7598 671.405 Q76.7493 674.895 82.6086 676.588 Q88.468 678.28 94.4836 678.28 Q100.499 678.28 106.411 676.588 Q112.296 674.869 118.259 671.405 L118.259 675.572 Q112.14 679.478 106.228 681.431 Q100.317 683.359 94.4836 683.359 Q88.6763 683.359 82.7909 681.431 Q76.9056 679.504 70.7598 675.572 L70.7598 671.405 Z" fill="#000000" fill-rule="nonzero" fill-opacity="1" /><path clip-path="url(#clip510)" d="M70.7077 662.109 L70.7077 657.317 L111.228 657.317 L111.228 662.109 L70.7077 662.109 Z" fill="#000000" fill-rule="nonzero" fill-opacity="1" /><path clip-path="url(#clip510)" d="M85.4211 635.989 Q85.4211 639.843 88.4419 642.083 Q91.4367 644.322 96.6711 644.322 Q101.905 644.322 104.926 642.109 Q107.921 639.869 107.921 635.989 Q107.921 632.161 104.9 629.921 Q101.879 627.682 96.6711 627.682 Q91.4888 627.682 88.468 629.921 Q85.4211 632.161 85.4211 635.989 M81.3587 635.989 Q81.3587 629.739 85.4211 626.171 Q89.4836 622.604 96.6711 622.604 Q103.832 622.604 107.921 626.171 Q111.983 629.739 111.983 635.989 Q111.983 642.265 107.921 645.833 Q103.832 649.374 96.6711 649.374 Q89.4836 649.374 85.4211 645.833 Q81.3587 642.265 81.3587 635.989 Z" fill="#000000" fill-rule="nonzero" fill-opacity="1" /><path clip-path="url(#clip510)" d="M96.3065 595.468 Q91.0982 595.468 88.2336 597.63 Q85.369 599.765 85.369 603.645 Q85.369 607.5 88.2336 609.661 Q91.0982 611.796 96.3065 611.796 Q101.489 611.796 104.353 609.661 Q107.218 607.5 107.218 603.645 Q107.218 599.765 104.353 597.63 Q101.489 595.468 96.3065 595.468 M107.609 590.677 Q115.056 590.677 118.676 593.984 Q122.322 597.291 122.322 604.114 Q122.322 606.64 121.931 608.88 Q121.567 611.119 120.786 613.229 L116.124 613.229 Q117.27 611.119 117.817 609.062 Q118.364 607.005 118.364 604.869 Q118.364 600.156 115.89 597.812 Q113.442 595.468 108.468 595.468 L106.098 595.468 Q108.676 596.953 109.952 599.27 Q111.228 601.588 111.228 604.817 Q111.228 610.182 107.14 613.463 Q103.051 616.744 96.3065 616.744 Q89.5357 616.744 85.4472 613.463 Q81.3587 610.182 81.3587 604.817 Q81.3587 601.588 82.6347 599.27 Q83.9107 596.953 86.4888 595.468 L82.0618 595.468 L82.0618 590.677 L107.609 590.677 Z" fill="#000000" fill-rule="nonzero" fill-opacity="1" /><path clip-path="url(#clip510)" d="M82.9211 545.26 L87.4524 545.26 Q86.4107 547.292 85.8899 549.479 Q85.369 551.667 85.369 554.01 Q85.369 557.578 86.4628 559.375 Q87.5565 561.146 89.744 561.146 Q91.4107 561.146 92.3742 559.87 Q93.3117 558.594 94.1711 554.739 L94.5357 553.099 Q95.6294 547.995 97.6346 545.859 Q99.6138 543.698 103.181 543.698 Q107.244 543.698 109.614 546.927 Q111.983 550.13 111.983 555.755 Q111.983 558.099 111.515 560.651 Q111.072 563.177 110.161 565.989 L105.213 565.989 Q106.593 563.333 107.296 560.755 Q107.973 558.177 107.973 555.651 Q107.973 552.265 106.827 550.443 Q105.655 548.62 103.546 548.62 Q101.593 548.62 100.551 549.948 Q99.5096 551.25 98.5461 555.703 L98.1554 557.37 Q97.2179 561.823 95.2909 563.802 Q93.3378 565.781 89.9524 565.781 Q85.8378 565.781 83.5982 562.864 Q81.3587 559.948 81.3587 554.583 Q81.3587 551.927 81.7493 549.583 Q82.1399 547.239 82.9211 545.26 Z" fill="#000000" fill-rule="nonzero" fill-opacity="1" /><path clip-path="url(#clip510)" d="M83.1816 515.078 L87.6607 515.078 Q86.5409 517.109 85.994 519.167 Q85.4211 521.198 85.4211 523.281 Q85.4211 527.943 88.3899 530.521 Q91.3326 533.099 96.6711 533.099 Q102.01 533.099 104.978 530.521 Q107.921 527.943 107.921 523.281 Q107.921 521.198 107.374 519.167 Q106.801 517.109 105.681 515.078 L110.108 515.078 Q111.046 517.083 111.515 519.245 Q111.983 521.38 111.983 523.802 Q111.983 530.391 107.843 534.271 Q103.702 538.151 96.6711 538.151 Q89.5357 538.151 85.4472 534.245 Q81.3587 530.312 81.3587 523.49 Q81.3587 521.276 81.8274 519.167 Q82.2701 517.057 83.1816 515.078 Z" fill="#000000" fill-rule="nonzero" fill-opacity="1" /><path clip-path="url(#clip510)" d="M96.5669 493.49 Q96.5669 499.297 97.895 501.537 Q99.2231 503.776 102.426 503.776 Q104.978 503.776 106.489 502.11 Q107.973 500.417 107.973 497.526 Q107.973 493.542 105.161 491.146 Q102.322 488.724 97.6346 488.724 L96.5669 488.724 L96.5669 493.49 M94.5877 483.933 L111.228 483.933 L111.228 488.724 L106.801 488.724 Q109.457 490.365 110.733 492.813 Q111.983 495.261 111.983 498.802 Q111.983 503.281 109.484 505.938 Q106.957 508.568 102.739 508.568 Q97.8169 508.568 95.3169 505.287 Q92.8169 501.979 92.8169 495.443 L92.8169 488.724 L92.3482 488.724 Q89.0409 488.724 87.244 490.912 Q85.4211 493.073 85.4211 497.005 Q85.4211 499.505 86.0201 501.875 Q86.619 504.245 87.817 506.432 L83.3899 506.432 Q82.3743 503.802 81.8795 501.328 Q81.3587 498.854 81.3587 496.511 Q81.3587 490.182 84.6399 487.058 Q87.9211 483.933 94.5877 483.933 Z" fill="#000000" fill-rule="nonzero" fill-opacity="1" /><path clip-path="url(#clip510)" d="M70.7077 474.063 L70.7077 469.271 L111.228 469.271 L111.228 474.063 L70.7077 474.063 Z" fill="#000000" fill-rule="nonzero" fill-opacity="1" /><path clip-path="url(#clip510)" d="M95.4471 434.297 L97.7909 434.297 L97.7909 456.329 Q102.739 456.016 105.343 453.36 Q107.921 450.677 107.921 445.912 Q107.921 443.151 107.244 440.573 Q106.567 437.969 105.213 435.417 L109.744 435.417 Q110.838 437.995 111.411 440.704 Q111.983 443.412 111.983 446.198 Q111.983 453.177 107.921 457.266 Q103.859 461.328 96.9315 461.328 Q89.7701 461.328 85.5774 457.474 Q81.3587 453.594 81.3587 447.032 Q81.3587 441.146 85.1607 437.735 Q88.9367 434.297 95.4471 434.297 M94.0409 439.089 Q90.1086 439.141 87.7649 441.303 Q85.4211 443.438 85.4211 446.98 Q85.4211 450.99 87.6867 453.412 Q89.9524 455.808 94.0669 456.172 L94.0409 439.089 Z" fill="#000000" fill-rule="nonzero" fill-opacity="1" /><path clip-path="url(#clip510)" d="M70.7598 427.188 L70.7598 423.021 Q76.9056 419.115 82.7909 417.188 Q88.6763 415.235 94.4836 415.235 Q100.317 415.235 106.228 417.188 Q112.14 419.115 118.259 423.021 L118.259 427.188 Q112.296 423.725 106.411 422.032 Q100.499 420.313 94.4836 420.313 Q88.468 420.313 82.6086 422.032 Q76.7493 423.725 70.7598 427.188 Z" fill="#000000" fill-rule="nonzero" fill-opacity="1" /><path clip-path="url(#clip510)" d="M376.649 9.504 L403.958 9.504 L403.958 14.9149 L383.079 14.9149 L383.079 28.9194 L401.921 28.9194 L401.921 34.3303 L383.079 34.3303 L383.079 57.024 L376.649 57.024 L376.649 9.504 Z" fill="#000000" fill-rule="nonzero" fill-opacity="1" /><path clip-path="url(#clip510)" d="M429.803 26.8506 Q428.816 26.2776 427.639 26.023 Q426.493 25.7366 425.093 25.7366 Q420.127 25.7366 417.454 28.9831 Q414.812 32.1977 414.812 38.2452 L414.812 57.024 L408.924 57.024 L408.924 21.376 L414.812 21.376 L414.812 26.9142 Q416.658 23.6677 419.618 22.1081 Q422.578 20.5167 426.811 20.5167 Q427.416 20.5167 428.148 20.6122 Q428.88 20.6758 429.771 20.835 L429.803 26.8506 Z" fill="#000000" fill-rule="nonzero" fill-opacity="1" /><path clip-path="url(#clip510)" d="M465.005 37.7359 L465.005 40.6005 L438.079 40.6005 Q438.46 46.6479 441.707 49.8308 Q444.985 52.9818 450.81 52.9818 Q454.184 52.9818 457.335 52.1542 Q460.518 51.3267 463.637 49.6716 L463.637 55.2098 Q460.486 56.5466 457.176 57.2468 Q453.865 57.947 450.46 57.947 Q441.93 57.947 436.933 52.9818 Q431.967 48.0165 431.967 39.5501 Q431.967 30.7973 436.678 25.6729 Q441.421 20.5167 449.441 20.5167 Q456.635 20.5167 460.804 25.1636 Q465.005 29.7788 465.005 37.7359 M459.149 36.0172 Q459.085 31.2111 456.444 28.3465 Q453.834 25.4819 449.505 25.4819 Q444.603 25.4819 441.643 28.251 Q438.715 31.0201 438.27 36.049 L459.149 36.0172 Z" fill="#000000" fill-rule="nonzero" fill-opacity="1" /><path clip-path="url(#clip510)" d="M478.119 39.2318 Q478.119 45.693 480.761 49.3852 Q483.434 53.0454 488.081 53.0454 Q492.728 53.0454 495.402 49.3852 Q498.075 45.693 498.075 39.2318 Q498.075 32.7707 495.402 29.1104 Q492.728 25.4183 488.081 25.4183 Q483.434 25.4183 480.761 29.1104 Q478.119 32.7707 478.119 39.2318 M498.075 51.6768 Q496.229 54.8597 493.397 56.4193 Q490.596 57.947 486.649 57.947 Q480.188 57.947 476.114 52.7908 Q472.071 47.6346 472.071 39.2318 Q472.071 30.8291 476.114 25.6729 Q480.188 20.5167 486.649 20.5167 Q490.596 20.5167 493.397 22.0763 Q496.229 23.604 498.075 26.7869 L498.075 21.376 L503.932 21.376 L503.932 70.583 L498.075 70.583 L498.075 51.6768 Z" fill="#000000" fill-rule="nonzero" fill-opacity="1" /><path clip-path="url(#clip510)" d="M515.39 42.9558 L515.39 21.376 L521.247 21.376 L521.247 42.733 Q521.247 47.7937 523.22 50.34 Q525.193 52.8545 529.14 52.8545 Q533.882 52.8545 536.62 49.8308 Q539.389 46.807 539.389 41.5872 L539.389 21.376 L545.245 21.376 L545.245 57.024 L539.389 57.024 L539.389 51.5495 Q537.256 54.796 534.424 56.3874 Q531.623 57.947 527.899 57.947 Q521.756 57.947 518.573 54.1276 Q515.39 50.3082 515.39 42.9558 M530.127 20.5167 L530.127 20.5167 Z" fill="#000000" fill-rule="nonzero" fill-opacity="1" /><path clip-path="url(#clip510)" d="M587.8 37.7359 L587.8 40.6005 L560.873 40.6005 Q561.255 46.6479 564.501 49.8308 Q567.78 52.9818 573.604 52.9818 Q576.978 52.9818 580.129 52.1542 Q583.312 51.3267 586.431 49.6716 L586.431 55.2098 Q583.28 56.5466 579.97 57.2468 Q576.66 57.947 573.254 57.947 Q564.724 57.947 559.727 52.9818 Q554.762 48.0165 554.762 39.5501 Q554.762 30.7973 559.473 25.6729 Q564.215 20.5167 572.236 20.5167 Q579.429 20.5167 583.599 25.1636 Q587.8 29.7788 587.8 37.7359 M581.944 36.0172 Q581.88 31.2111 579.238 28.3465 Q576.628 25.4819 572.299 25.4819 Q567.398 25.4819 564.438 28.251 Q561.51 31.0201 561.064 36.049 L581.944 36.0172 Z" fill="#000000" fill-rule="nonzero" fill-opacity="1" /><path clip-path="url(#clip510)" d="M627.045 35.5079 L627.045 57.024 L621.188 57.024 L621.188 35.6989 Q621.188 30.6381 619.215 28.1237 Q617.241 25.6092 613.295 25.6092 Q608.552 25.6092 605.815 28.6329 Q603.078 31.6567 603.078 36.8765 L603.078 57.024 L597.189 57.024 L597.189 21.376 L603.078 21.376 L603.078 26.9142 Q605.178 23.6995 608.011 22.1081 Q610.876 20.5167 614.6 20.5167 Q620.742 20.5167 623.894 24.3361 Q627.045 28.1237 627.045 35.5079 Z" fill="#000000" fill-rule="nonzero" fill-opacity="1" /><path clip-path="url(#clip510)" d="M644.518 11.2546 L644.518 21.376 L656.581 21.376 L656.581 25.9275 L644.518 25.9275 L644.518 45.2793 Q644.518 49.6398 645.696 50.8811 Q646.906 52.1224 650.566 52.1224 L656.581 52.1224 L656.581 57.024 L650.566 57.024 Q643.786 57.024 641.208 54.5095 Q638.63 51.9633 638.63 45.2793 L638.63 25.9275 L634.333 25.9275 L634.333 21.376 L638.63 21.376 L638.63 11.2546 L644.518 11.2546 Z" fill="#000000" fill-rule="nonzero" fill-opacity="1" /><path clip-path="url(#clip510)" d="M664.284 21.376 L670.14 21.376 L670.14 57.024 L664.284 57.024 L664.284 21.376 M664.284 7.4988 L670.14 7.4988 L670.14 14.9149 L664.284 14.9149 L664.284 7.4988 Z" fill="#000000" fill-rule="nonzero" fill-opacity="1" /><path clip-path="url(#clip510)" d="M705.12 22.4264 L705.12 27.9645 Q702.637 26.6914 699.964 26.0548 Q697.29 25.4183 694.426 25.4183 Q690.065 25.4183 687.869 26.7551 Q685.705 28.0919 685.705 30.7655 Q685.705 32.8025 687.264 33.9801 Q688.824 35.126 693.534 36.1763 L695.54 36.6219 Q701.778 37.9587 704.388 40.4095 Q707.03 42.8285 707.03 47.189 Q707.03 52.1542 703.083 55.0506 Q699.168 57.947 692.293 57.947 Q689.428 57.947 686.309 57.3741 Q683.222 56.833 679.784 55.719 L679.784 49.6716 Q683.031 51.3585 686.182 52.2179 Q689.333 53.0454 692.42 53.0454 Q696.558 53.0454 698.786 51.645 Q701.014 50.2127 701.014 47.6346 Q701.014 45.2474 699.391 43.9743 Q697.799 42.7012 692.357 41.5235 L690.32 41.0461 Q684.877 39.9002 682.458 37.5449 Q680.039 35.1578 680.039 31.0201 Q680.039 25.9912 683.604 23.2539 Q687.169 20.5167 693.725 20.5167 Q696.972 20.5167 699.836 20.9941 Q702.701 21.4715 705.12 22.4264 Z" fill="#000000" fill-rule="nonzero" fill-opacity="1" /><path clip-path="url(#clip510)" d="M722.148 11.2546 L722.148 21.376 L734.211 21.376 L734.211 25.9275 L722.148 25.9275 L722.148 45.2793 Q722.148 49.6398 723.326 50.8811 Q724.535 52.1224 728.196 52.1224 L734.211 52.1224 L734.211 57.024 L728.196 57.024 Q721.416 57.024 718.838 54.5095 Q716.26 51.9633 716.26 45.2793 L716.26 25.9275 L711.963 25.9275 L711.963 21.376 L716.26 21.376 L716.26 11.2546 L722.148 11.2546 Z" fill="#000000" fill-rule="nonzero" fill-opacity="1" /><path clip-path="url(#clip510)" d="M763.653 56.0373 L763.653 50.1809 Q766.072 51.3267 768.554 51.9314 Q771.037 52.5362 773.424 52.5362 Q779.79 52.5362 783.132 48.2712 Q786.505 43.9743 786.983 35.2533 Q785.137 37.9905 782.304 39.4546 Q779.471 40.9188 776.034 40.9188 Q768.904 40.9188 764.735 36.6219 Q760.597 32.2932 760.597 24.8135 Q760.597 17.493 764.926 13.0688 Q769.254 8.64463 776.448 8.64463 Q784.691 8.64463 789.02 14.9785 Q793.38 21.2806 793.38 33.3117 Q793.38 44.5472 788.033 51.263 Q782.718 57.947 773.71 57.947 Q771.291 57.947 768.809 57.4696 Q766.326 56.9922 763.653 56.0373 M776.448 35.8899 Q780.776 35.8899 783.291 32.9298 Q785.837 29.9697 785.837 24.8135 Q785.837 19.6891 783.291 16.7291 Q780.776 13.7372 776.448 13.7372 Q772.119 13.7372 769.573 16.7291 Q767.058 19.6891 767.058 24.8135 Q767.058 29.9697 769.573 32.9298 Q772.119 35.8899 776.448 35.8899 Z" fill="#000000" fill-rule="nonzero" fill-opacity="1" /><path clip-path="url(#clip510)" d="M804.998 9.504 L830.238 9.504 L830.238 14.9149 L810.886 14.9149 L810.886 26.5641 Q812.287 26.0867 813.687 25.8639 Q815.088 25.6092 816.488 25.6092 Q824.445 25.6092 829.092 29.9697 Q833.739 34.3303 833.739 41.7781 Q833.739 49.4488 828.965 53.7138 Q824.19 57.947 815.501 57.947 Q812.509 57.947 809.39 57.4378 Q806.303 56.9285 802.993 55.91 L802.993 49.4488 Q805.857 51.0084 808.913 51.7723 Q811.968 52.5362 815.374 52.5362 Q820.88 52.5362 824.095 49.6398 Q827.31 46.7434 827.31 41.7781 Q827.31 36.8129 824.095 33.9165 Q820.88 31.0201 815.374 31.0201 Q812.796 31.0201 810.218 31.593 Q807.671 32.1659 804.998 33.3754 L804.998 9.504 Z" fill="#000000" fill-rule="nonzero" fill-opacity="1" /><path clip-path="url(#clip510)" d="M886.829 36.1127 Q884.06 36.1127 882.469 38.468 Q880.909 40.8233 880.909 45.0246 Q880.909 49.1624 882.469 51.5495 Q884.06 53.9048 886.829 53.9048 Q889.534 53.9048 891.094 51.5495 Q892.685 49.1624 892.685 45.0246 Q892.685 40.8551 891.094 38.4998 Q889.534 36.1127 886.829 36.1127 M886.829 32.0704 Q891.858 32.0704 894.818 35.5716 Q897.778 39.0727 897.778 45.0246 Q897.778 50.9766 894.786 54.4777 Q891.826 57.947 886.829 57.947 Q881.736 57.947 878.776 54.4777 Q875.816 50.9766 875.816 45.0246 Q875.816 39.0409 878.776 35.5716 Q881.768 32.0704 886.829 32.0704 M853.982 12.6869 Q851.245 12.6869 849.653 15.074 Q848.094 17.4293 848.094 21.567 Q848.094 25.7684 849.653 28.1237 Q851.213 30.479 853.982 30.479 Q856.751 30.479 858.311 28.1237 Q859.902 25.7684 859.902 21.567 Q859.902 17.4611 858.311 15.074 Q856.719 12.6869 853.982 12.6869 M882.723 8.64463 L887.816 8.64463 L858.088 57.947 L852.995 57.947 L882.723 8.64463 M853.982 8.64463 Q859.011 8.64463 862.003 12.1458 Q864.995 15.6151 864.995 21.567 Q864.995 27.5826 862.003 31.0519 Q859.043 34.5212 853.982 34.5212 Q848.921 34.5212 845.961 31.0519 Q843.033 27.5508 843.033 21.567 Q843.033 15.6469 845.993 12.1458 Q848.953 8.64463 853.982 8.64463 Z" fill="#000000" fill-rule="nonzero" fill-opacity="1" /><path clip-path="url(#clip510)" d="M964.077 13.1643 L964.077 19.9438 Q960.83 16.92 957.138 15.4241 Q953.478 13.9282 949.34 13.9282 Q941.192 13.9282 936.863 18.9252 Q932.535 23.8905 932.535 33.3117 Q932.535 42.7012 936.863 47.6982 Q941.192 52.6635 949.34 52.6635 Q953.478 52.6635 957.138 51.1675 Q960.83 49.6716 964.077 46.6479 L964.077 53.3637 Q960.703 55.6554 956.915 56.8012 Q953.16 57.947 948.958 57.947 Q938.168 57.947 931.962 51.3585 Q925.755 44.7382 925.755 33.3117 Q925.755 21.8535 931.962 15.265 Q938.168 8.64463 948.958 8.64463 Q953.223 8.64463 956.979 9.79046 Q960.767 10.9045 964.077 13.1643 Z" fill="#000000" fill-rule="nonzero" fill-opacity="1" /><path clip-path="url(#clip510)" d="M974.007 9.504 L980.437 9.504 L980.437 57.024 L974.007 57.024 L974.007 9.504 Z" fill="#000000" fill-rule="nonzero" fill-opacity="1" /><polyline clip-path="url(#clip512)" style="stroke:#000000; stroke-linecap:round; stroke-linejoin:round; stroke-width:8; stroke-opacity:1; fill:none" points="376.981,838.888 376.981,812.848 "/>
<polyline clip-path="url(#clip512)" style="stroke:#000000; stroke-linecap:round; stroke-linejoin:round; stroke-width:8; stroke-opacity:1; fill:none" points="373.326,838.888 380.637,838.888 "/>
<polyline clip-path="url(#clip512)" style="stroke:#000000; stroke-linecap:round; stroke-linejoin:round; stroke-width:8; stroke-opacity:1; fill:none" points="373.326,812.848 380.637,812.848 "/>
<polyline clip-path="url(#clip512)" style="stroke:#000000; stroke-linecap:round; stroke-linejoin:round; stroke-width:8; stroke-opacity:1; fill:none" points="431.811,405.763 431.811,368.797 "/>
<polyline clip-path="url(#clip512)" style="stroke:#000000; stroke-linecap:round; stroke-linejoin:round; stroke-width:8; stroke-opacity:1; fill:none" points="428.155,405.763 435.466,405.763 "/>
<polyline clip-path="url(#clip512)" style="stroke:#000000; stroke-linecap:round; stroke-linejoin:round; stroke-width:8; stroke-opacity:1; fill:none" points="428.155,368.797 435.466,368.797 "/>
<polyline clip-path="url(#clip512)" style="stroke:#000000; stroke-linecap:round; stroke-linejoin:round; stroke-width:8; stroke-opacity:1; fill:none" points="651.128,863.359 651.128,819.733 "/>
<polyline clip-path="url(#clip512)" style="stroke:#000000; stroke-linecap:round; stroke-linejoin:round; stroke-width:8; stroke-opacity:1; fill:none" points="647.473,863.359 654.784,863.359 "/>
<polyline clip-path="url(#clip512)" style="stroke:#000000; stroke-linecap:round; stroke-linejoin:round; stroke-width:8; stroke-opacity:1; fill:none" points="647.473,819.733 654.784,819.733 "/>
<polyline clip-path="url(#clip512)" style="stroke:#000000; stroke-linecap:round; stroke-linejoin:round; stroke-width:8; stroke-opacity:1; fill:none" points="705.958,392.959 705.958,369.63 "/>
<polyline clip-path="url(#clip512)" style="stroke:#000000; stroke-linecap:round; stroke-linejoin:round; stroke-width:8; stroke-opacity:1; fill:none" points="702.303,392.959 709.613,392.959 "/>
<polyline clip-path="url(#clip512)" style="stroke:#000000; stroke-linecap:round; stroke-linejoin:round; stroke-width:8; stroke-opacity:1; fill:none" points="702.303,369.63 709.613,369.63 "/>
<polyline clip-path="url(#clip512)" style="stroke:#000000; stroke-linecap:round; stroke-linejoin:round; stroke-width:8; stroke-opacity:1; fill:none" points="925.276,847.227 925.276,836.862 "/>
<polyline clip-path="url(#clip512)" style="stroke:#000000; stroke-linecap:round; stroke-linejoin:round; stroke-width:8; stroke-opacity:1; fill:none" points="921.62,847.227 928.931,847.227 "/>
<polyline clip-path="url(#clip512)" style="stroke:#000000; stroke-linecap:round; stroke-linejoin:round; stroke-width:8; stroke-opacity:1; fill:none" points="921.62,836.862 928.931,836.862 "/>
<polyline clip-path="url(#clip512)" style="stroke:#000000; stroke-linecap:round; stroke-linejoin:round; stroke-width:8; stroke-opacity:1; fill:none" points="980.105,398.681 980.105,378.516 "/>
<polyline clip-path="url(#clip512)" style="stroke:#000000; stroke-linecap:round; stroke-linejoin:round; stroke-width:8; stroke-opacity:1; fill:none" points="976.45,398.681 983.76,398.681 "/>
<polyline clip-path="url(#clip512)" style="stroke:#000000; stroke-linecap:round; stroke-linejoin:round; stroke-width:8; stroke-opacity:1; fill:none" points="976.45,378.516 983.76,378.516 "/>
<circle clip-path="url(#clip512)" cx="376.981" cy="814.221" r="6.48" fill="#ffffff" fill-rule="evenodd" fill-opacity="1" stroke="#0000ff" stroke-opacity="1" stroke-width="4.8"/>
<circle clip-path="url(#clip512)" cx="376.981" cy="837.227" r="6.48" fill="#ffffff" fill-rule="evenodd" fill-opacity="1" stroke="#0000ff" stroke-opacity="1" stroke-width="4.8"/>
<circle clip-path="url(#clip512)" cx="376.981" cy="826.155" r="6.48" fill="#ffffff" fill-rule="evenodd" fill-opacity="1" stroke="#0000ff" stroke-opacity="1" stroke-width="4.8"/>
<circle clip-path="url(#clip512)" cx="651.128" cy="827.702" r="6.48" fill="#ffffff" fill-rule="evenodd" fill-opacity="1" stroke="#0000ff" stroke-opacity="1" stroke-width="4.8"/>
<circle clip-path="url(#clip512)" cx="651.128" cy="833.375" r="6.48" fill="#ffffff" fill-rule="evenodd" fill-opacity="1" stroke="#0000ff" stroke-opacity="1" stroke-width="4.8"/>
<circle clip-path="url(#clip512)" cx="651.128" cy="863.562" r="6.48" fill="#ffffff" fill-rule="evenodd" fill-opacity="1" stroke="#0000ff" stroke-opacity="1" stroke-width="4.8"/>
<circle clip-path="url(#clip512)" cx="925.276" cy="841.554" r="6.48" fill="#ffffff" fill-rule="evenodd" fill-opacity="1" stroke="#0000ff" stroke-opacity="1" stroke-width="4.8"/>
<circle clip-path="url(#clip512)" cx="925.276" cy="846.85" r="6.48" fill="#ffffff" fill-rule="evenodd" fill-opacity="1" stroke="#0000ff" stroke-opacity="1" stroke-width="4.8"/>
<circle clip-path="url(#clip512)" cx="925.276" cy="837.73" r="6.48" fill="#ffffff" fill-rule="evenodd" fill-opacity="1" stroke="#0000ff" stroke-opacity="1" stroke-width="4.8"/>
<circle clip-path="url(#clip512)" cx="431.811" cy="396.952" r="6.48" fill="#ffffff" fill-rule="evenodd" fill-opacity="1" stroke="#ff0000" stroke-opacity="1" stroke-width="4.8"/>
<circle clip-path="url(#clip512)" cx="431.811" cy="368.422" r="6.48" fill="#ffffff" fill-rule="evenodd" fill-opacity="1" stroke="#ff0000" stroke-opacity="1" stroke-width="4.8"/>
<circle clip-path="url(#clip512)" cx="431.811" cy="396.466" r="6.48" fill="#ffffff" fill-rule="evenodd" fill-opacity="1" stroke="#ff0000" stroke-opacity="1" stroke-width="4.8"/>
<circle clip-path="url(#clip512)" cx="705.958" cy="392.695" r="6.48" fill="#ffffff" fill-rule="evenodd" fill-opacity="1" stroke="#ff0000" stroke-opacity="1" stroke-width="4.8"/>
<circle clip-path="url(#clip512)" cx="705.958" cy="378.557" r="6.48" fill="#ffffff" fill-rule="evenodd" fill-opacity="1" stroke="#ff0000" stroke-opacity="1" stroke-width="4.8"/>
<circle clip-path="url(#clip512)" cx="705.958" cy="372.633" r="6.48" fill="#ffffff" fill-rule="evenodd" fill-opacity="1" stroke="#ff0000" stroke-opacity="1" stroke-width="4.8"/>
<circle clip-path="url(#clip512)" cx="980.105" cy="388.323" r="6.48" fill="#ffffff" fill-rule="evenodd" fill-opacity="1" stroke="#ff0000" stroke-opacity="1" stroke-width="4.8"/>
<circle clip-path="url(#clip512)" cx="980.105" cy="397.643" r="6.48" fill="#ffffff" fill-rule="evenodd" fill-opacity="1" stroke="#ff0000" stroke-opacity="1" stroke-width="4.8"/>
<circle clip-path="url(#clip512)" cx="980.105" cy="379.829" r="6.48" fill="#ffffff" fill-rule="evenodd" fill-opacity="1" stroke="#ff0000" stroke-opacity="1" stroke-width="4.8"/>
<path clip-path="url(#clip510)" d="M1467.32 991.188 L2289.76 991.188 L2289.76 161.624 L1467.32 161.624  Z" fill="#ffffff" fill-rule="evenodd" fill-opacity="1"/>
<defs>
  <clipPath id="clip513">
    <rect x="1467" y="161" width="823" height="831"/>
  </clipPath>
</defs>
<polyline clip-path="url(#clip513)" style="stroke:#000000; stroke-linecap:round; stroke-linejoin:round; stroke-width:2; stroke-opacity:0.1; fill:none" points="1604.4,991.188 1604.4,161.624 "/>
<polyline clip-path="url(#clip513)" style="stroke:#000000; stroke-linecap:round; stroke-linejoin:round; stroke-width:2; stroke-opacity:0.1; fill:none" points="1878.54,991.188 1878.54,161.624 "/>
<polyline clip-path="url(#clip513)" style="stroke:#000000; stroke-linecap:round; stroke-linejoin:round; stroke-width:2; stroke-opacity:0.1; fill:none" points="2152.69,991.188 2152.69,161.624 "/>
<polyline clip-path="url(#clip513)" style="stroke:#000000; stroke-linecap:round; stroke-linejoin:round; stroke-width:2; stroke-opacity:0.1; fill:none" points="1467.32,991.188 2289.76,991.188 "/>
<polyline clip-path="url(#clip513)" style="stroke:#000000; stroke-linecap:round; stroke-linejoin:round; stroke-width:2; stroke-opacity:0.1; fill:none" points="1467.32,825.275 2289.76,825.275 "/>
<polyline clip-path="url(#clip513)" style="stroke:#000000; stroke-linecap:round; stroke-linejoin:round; stroke-width:2; stroke-opacity:0.1; fill:none" points="1467.32,659.362 2289.76,659.362 "/>
<polyline clip-path="url(#clip513)" style="stroke:#000000; stroke-linecap:round; stroke-linejoin:round; stroke-width:2; stroke-opacity:0.1; fill:none" points="1467.32,493.45 2289.76,493.45 "/>
<polyline clip-path="url(#clip513)" style="stroke:#000000; stroke-linecap:round; stroke-linejoin:round; stroke-width:2; stroke-opacity:0.1; fill:none" points="1467.32,327.537 2289.76,327.537 "/>
<polyline clip-path="url(#clip513)" style="stroke:#000000; stroke-linecap:round; stroke-linejoin:round; stroke-width:2; stroke-opacity:0.1; fill:none" points="1467.32,161.624 2289.76,161.624 "/>
<polyline clip-path="url(#clip510)" style="stroke:#000000; stroke-linecap:round; stroke-linejoin:round; stroke-width:4; stroke-opacity:1; fill:none" points="1467.32,991.188 2289.76,991.188 "/>
<polyline clip-path="url(#clip510)" style="stroke:#000000; stroke-linecap:round; stroke-linejoin:round; stroke-width:4; stroke-opacity:1; fill:none" points="1604.4,991.188 1604.4,972.29 "/>
<polyline clip-path="url(#clip510)" style="stroke:#000000; stroke-linecap:round; stroke-linejoin:round; stroke-width:4; stroke-opacity:1; fill:none" points="1878.54,991.188 1878.54,972.29 "/>
<polyline clip-path="url(#clip510)" style="stroke:#000000; stroke-linecap:round; stroke-linejoin:round; stroke-width:4; stroke-opacity:1; fill:none" points="2152.69,991.188 2152.69,972.29 "/>
<path clip-path="url(#clip510)" d="M1594.78 1049.65 L1602.42 1049.65 L1602.42 1023.29 L1594.11 1024.95 L1594.11 1020.69 L1602.37 1019.03 L1607.05 1019.03 L1607.05 1049.65 L1614.69 1049.65 L1614.69 1053.59 L1594.78 1053.59 L1594.78 1049.65 Z" fill="#000000" fill-rule="nonzero" fill-opacity="1" /><path clip-path="url(#clip510)" d="M1873.2 1049.65 L1889.52 1049.65 L1889.52 1053.59 L1867.57 1053.59 L1867.57 1049.65 Q1870.23 1046.9 1874.82 1042.27 Q1879.42 1037.62 1880.6 1036.27 Q1882.85 1033.75 1883.73 1032.01 Q1884.63 1030.25 1884.63 1028.56 Q1884.63 1025.81 1882.69 1024.07 Q1880.77 1022.34 1877.66 1022.34 Q1875.46 1022.34 1873.01 1023.1 Q1870.58 1023.87 1867.8 1025.42 L1867.8 1020.69 Q1870.63 1019.56 1873.08 1018.98 Q1875.53 1018.4 1877.57 1018.4 Q1882.94 1018.4 1886.14 1021.09 Q1889.33 1023.77 1889.33 1028.26 Q1889.33 1030.39 1888.52 1032.31 Q1887.73 1034.21 1885.63 1036.81 Q1885.05 1037.48 1881.95 1040.69 Q1878.84 1043.89 1873.2 1049.65 Z" fill="#000000" fill-rule="nonzero" fill-opacity="1" /><path clip-path="url(#clip510)" d="M2156.94 1034.95 Q2160.29 1035.67 2162.17 1037.94 Q2164.07 1040.21 2164.07 1043.54 Q2164.07 1048.66 2160.55 1051.46 Q2157.03 1054.26 2150.55 1054.26 Q2148.37 1054.26 2146.06 1053.82 Q2143.77 1053.4 2141.31 1052.55 L2141.31 1048.03 Q2143.26 1049.17 2145.57 1049.75 Q2147.89 1050.32 2150.41 1050.32 Q2154.81 1050.32 2157.1 1048.59 Q2159.41 1046.85 2159.41 1043.54 Q2159.41 1040.49 2157.26 1038.77 Q2155.13 1037.04 2151.31 1037.04 L2147.29 1037.04 L2147.29 1033.19 L2151.5 1033.19 Q2154.95 1033.19 2156.78 1031.83 Q2158.6 1030.44 2158.6 1027.85 Q2158.6 1025.19 2156.71 1023.77 Q2154.83 1022.34 2151.31 1022.34 Q2149.39 1022.34 2147.19 1022.75 Q2144.99 1023.17 2142.35 1024.05 L2142.35 1019.88 Q2145.02 1019.14 2147.33 1018.77 Q2149.67 1018.4 2151.73 1018.4 Q2157.05 1018.4 2160.16 1020.83 Q2163.26 1023.24 2163.26 1027.36 Q2163.26 1030.23 2161.61 1032.22 Q2159.97 1034.19 2156.94 1034.95 Z" fill="#000000" fill-rule="nonzero" fill-opacity="1" /><path clip-path="url(#clip510)" d="M1782.55 1086.8 L1788.21 1086.8 L1797.87 1101.26 L1807.58 1086.8 L1813.23 1086.8 L1800.73 1105.48 L1814.06 1125.68 L1808.41 1125.68 L1797.48 1109.15 L1786.46 1125.68 L1780.78 1125.68 L1794.66 1104.93 L1782.55 1086.8 Z" fill="#000000" fill-rule="nonzero" fill-opacity="1" /><path clip-path="url(#clip510)" d="M1847.94 1125.68 L1833.1 1086.8 L1838.6 1086.8 L1850.91 1119.54 L1863.26 1086.8 L1868.73 1086.8 L1853.91 1125.68 L1847.94 1125.68 Z" fill="#000000" fill-rule="nonzero" fill-opacity="1" /><path clip-path="url(#clip510)" d="M1883.31 1111.02 Q1877.5 1111.02 1875.26 1112.35 Q1873.02 1113.68 1873.02 1116.88 Q1873.02 1119.43 1874.69 1120.94 Q1876.38 1122.43 1879.27 1122.43 Q1883.26 1122.43 1885.65 1119.62 Q1888.07 1116.78 1888.07 1112.09 L1888.07 1111.02 L1883.31 1111.02 M1892.87 1109.04 L1892.87 1125.68 L1888.07 1125.68 L1888.07 1121.26 Q1886.43 1123.91 1883.99 1125.19 Q1881.54 1126.44 1878 1126.44 Q1873.52 1126.44 1870.86 1123.94 Q1868.23 1121.41 1868.23 1117.19 Q1868.23 1112.27 1871.51 1109.77 Q1874.82 1107.27 1881.36 1107.27 L1888.07 1107.27 L1888.07 1106.8 Q1888.07 1103.5 1885.89 1101.7 Q1883.73 1099.88 1879.79 1099.88 Q1877.29 1099.88 1874.92 1100.48 Q1872.55 1101.07 1870.37 1102.27 L1870.37 1097.85 Q1873 1096.83 1875.47 1096.33 Q1877.94 1095.81 1880.29 1095.81 Q1886.62 1095.81 1889.74 1099.1 Q1892.87 1102.38 1892.87 1109.04 Z" fill="#000000" fill-rule="nonzero" fill-opacity="1" /><path clip-path="url(#clip510)" d="M1902.74 1085.16 L1907.53 1085.16 L1907.53 1125.68 L1902.74 1125.68 L1902.74 1085.16 Z" fill="#000000" fill-rule="nonzero" fill-opacity="1" /><path clip-path="url(#clip510)" d="M1917.06 1114.17 L1917.06 1096.52 L1921.85 1096.52 L1921.85 1113.99 Q1921.85 1118.13 1923.46 1120.21 Q1925.08 1122.27 1928.31 1122.27 Q1932.19 1122.27 1934.43 1119.8 Q1936.69 1117.32 1936.69 1113.05 L1936.69 1096.52 L1941.49 1096.52 L1941.49 1125.68 L1936.69 1125.68 L1936.69 1121.2 Q1934.95 1123.86 1932.63 1125.16 Q1930.34 1126.44 1927.29 1126.44 Q1922.27 1126.44 1919.66 1123.31 Q1917.06 1120.19 1917.06 1114.17 M1929.12 1095.81 L1929.12 1095.81 Z" fill="#000000" fill-rule="nonzero" fill-opacity="1" /><path clip-path="url(#clip510)" d="M1976.3 1109.9 L1976.3 1112.25 L1954.27 1112.25 Q1954.58 1117.19 1957.24 1119.8 Q1959.92 1122.38 1964.69 1122.38 Q1967.45 1122.38 1970.03 1121.7 Q1972.63 1121.02 1975.18 1119.67 L1975.18 1124.2 Q1972.61 1125.29 1969.9 1125.87 Q1967.19 1126.44 1964.4 1126.44 Q1957.42 1126.44 1953.33 1122.38 Q1949.27 1118.31 1949.27 1111.39 Q1949.27 1104.23 1953.13 1100.03 Q1957.01 1095.81 1963.57 1095.81 Q1969.45 1095.81 1972.87 1099.62 Q1976.3 1103.39 1976.3 1109.9 M1971.51 1108.5 Q1971.46 1104.56 1969.3 1102.22 Q1967.16 1099.88 1963.62 1099.88 Q1959.61 1099.88 1957.19 1102.14 Q1954.79 1104.41 1954.43 1108.52 L1971.51 1108.5 Z" fill="#000000" fill-rule="nonzero" fill-opacity="1" /><polyline clip-path="url(#clip510)" style="stroke:#000000; stroke-linecap:round; stroke-linejoin:round; stroke-width:4; stroke-opacity:1; fill:none" points="1467.32,991.188 1467.32,161.624 "/>
<polyline clip-path="url(#clip510)" style="stroke:#000000; stroke-linecap:round; stroke-linejoin:round; stroke-width:4; stroke-opacity:1; fill:none" points="1467.32,991.188 1486.22,991.188 "/>
<polyline clip-path="url(#clip510)" style="stroke:#000000; stroke-linecap:round; stroke-linejoin:round; stroke-width:4; stroke-opacity:1; fill:none" points="1467.32,825.275 1486.22,825.275 "/>
<polyline clip-path="url(#clip510)" style="stroke:#000000; stroke-linecap:round; stroke-linejoin:round; stroke-width:4; stroke-opacity:1; fill:none" points="1467.32,659.362 1486.22,659.362 "/>
<polyline clip-path="url(#clip510)" style="stroke:#000000; stroke-linecap:round; stroke-linejoin:round; stroke-width:4; stroke-opacity:1; fill:none" points="1467.32,493.45 1486.22,493.45 "/>
<polyline clip-path="url(#clip510)" style="stroke:#000000; stroke-linecap:round; stroke-linejoin:round; stroke-width:4; stroke-opacity:1; fill:none" points="1467.32,327.537 1486.22,327.537 "/>
<polyline clip-path="url(#clip510)" style="stroke:#000000; stroke-linecap:round; stroke-linejoin:round; stroke-width:4; stroke-opacity:1; fill:none" points="1467.32,161.624 1486.22,161.624 "/>
<path clip-path="url(#clip510)" d="M1360.62 1010.98 L1368.26 1010.98 L1368.26 984.615 L1359.95 986.281 L1359.95 982.022 L1368.21 980.355 L1372.89 980.355 L1372.89 1010.98 L1380.52 1010.98 L1380.52 1014.92 L1360.62 1014.92 L1360.62 1010.98 Z" fill="#000000" fill-rule="nonzero" fill-opacity="1" /><path clip-path="url(#clip510)" d="M1399.97 983.434 Q1396.36 983.434 1394.53 986.999 Q1392.72 990.54 1392.72 997.67 Q1392.72 1004.78 1394.53 1008.34 Q1396.36 1011.88 1399.97 1011.88 Q1403.6 1011.88 1405.41 1008.34 Q1407.24 1004.78 1407.24 997.67 Q1407.24 990.54 1405.41 986.999 Q1403.6 983.434 1399.97 983.434 M1399.97 979.73 Q1405.78 979.73 1408.83 984.337 Q1411.91 988.92 1411.91 997.67 Q1411.91 1006.4 1408.83 1011 Q1405.78 1015.59 1399.97 1015.59 Q1394.16 1015.59 1391.08 1011 Q1388.02 1006.4 1388.02 997.67 Q1388.02 988.92 1391.08 984.337 Q1394.16 979.73 1399.97 979.73 Z" fill="#000000" fill-rule="nonzero" fill-opacity="1" /><path clip-path="url(#clip510)" d="M1421.62 961.926 Q1418.68 961.926 1417.2 964.823 Q1415.73 967.7 1415.73 973.493 Q1415.73 979.267 1417.2 982.164 Q1418.68 985.041 1421.62 985.041 Q1424.57 985.041 1426.04 982.164 Q1427.52 979.267 1427.52 973.493 Q1427.52 967.7 1426.04 964.823 Q1424.57 961.926 1421.62 961.926 M1421.62 958.917 Q1426.34 958.917 1428.82 962.66 Q1431.32 966.384 1431.32 973.493 Q1431.32 980.584 1428.82 984.326 Q1426.34 988.05 1421.62 988.05 Q1416.9 988.05 1414.4 984.326 Q1411.91 980.584 1411.91 973.493 Q1411.91 966.384 1414.4 962.66 Q1416.9 958.917 1421.62 958.917 Z" fill="#000000" fill-rule="nonzero" fill-opacity="1" /><path clip-path="url(#clip510)" d="M1363.31 845.067 L1370.95 845.067 L1370.95 818.702 L1362.64 820.369 L1362.64 816.109 L1370.9 814.443 L1375.57 814.443 L1375.57 845.067 L1383.21 845.067 L1383.21 849.003 L1363.31 849.003 L1363.31 845.067 Z" fill="#000000" fill-rule="nonzero" fill-opacity="1" /><path clip-path="url(#clip510)" d="M1402.66 817.521 Q1399.05 817.521 1397.22 821.086 Q1395.41 824.628 1395.41 831.757 Q1395.41 838.864 1397.22 842.429 Q1399.05 845.97 1402.66 845.97 Q1406.29 845.97 1408.1 842.429 Q1409.93 838.864 1409.93 831.757 Q1409.93 824.628 1408.1 821.086 Q1406.29 817.521 1402.66 817.521 M1402.66 813.818 Q1408.47 813.818 1411.52 818.424 Q1414.6 823.007 1414.6 831.757 Q1414.6 840.484 1411.52 845.091 Q1408.47 849.674 1402.66 849.674 Q1396.85 849.674 1393.77 845.091 Q1390.71 840.484 1390.71 831.757 Q1390.71 823.007 1393.77 818.424 Q1396.85 813.818 1402.66 813.818 Z" fill="#000000" fill-rule="nonzero" fill-opacity="1" /><path clip-path="url(#clip510)" d="M1415.15 818.395 L1421.35 818.395 L1421.35 796.973 L1414.6 798.327 L1414.6 794.866 L1421.32 793.512 L1425.12 793.512 L1425.12 818.395 L1431.32 818.395 L1431.32 821.592 L1415.15 821.592 L1415.15 818.395 Z" fill="#000000" fill-rule="nonzero" fill-opacity="1" /><path clip-path="url(#clip510)" d="M1362.2 679.155 L1369.84 679.155 L1369.84 652.789 L1361.53 654.456 L1361.53 650.197 L1369.79 648.53 L1374.47 648.53 L1374.47 679.155 L1382.1 679.155 L1382.1 683.09 L1362.2 683.09 L1362.2 679.155 Z" fill="#000000" fill-rule="nonzero" fill-opacity="1" /><path clip-path="url(#clip510)" d="M1401.55 651.609 Q1397.94 651.609 1396.11 655.173 Q1394.3 658.715 1394.3 665.845 Q1394.3 672.951 1396.11 676.516 Q1397.94 680.058 1401.55 680.058 Q1405.18 680.058 1406.99 676.516 Q1408.82 672.951 1408.82 665.845 Q1408.82 658.715 1406.99 655.173 Q1405.18 651.609 1401.55 651.609 M1401.55 647.905 Q1407.36 647.905 1410.41 652.511 Q1413.49 657.095 1413.49 665.845 Q1413.49 674.571 1410.41 679.178 Q1407.36 683.761 1401.55 683.761 Q1395.74 683.761 1392.66 679.178 Q1389.6 674.571 1389.6 665.845 Q1389.6 657.095 1392.66 652.511 Q1395.74 647.905 1401.55 647.905 Z" fill="#000000" fill-rule="nonzero" fill-opacity="1" /><path clip-path="url(#clip510)" d="M1418.06 652.482 L1431.32 652.482 L1431.32 655.68 L1413.49 655.68 L1413.49 652.482 Q1415.66 650.244 1419.38 646.483 Q1423.12 642.702 1424.08 641.611 Q1425.91 639.561 1426.62 638.151 Q1427.35 636.721 1427.35 635.348 Q1427.35 633.11 1425.77 631.7 Q1424.21 630.289 1421.69 630.289 Q1419.91 630.289 1417.91 630.91 Q1415.94 631.53 1413.68 632.79 L1413.68 628.954 Q1415.98 628.032 1417.97 627.562 Q1419.96 627.092 1421.62 627.092 Q1425.98 627.092 1428.58 629.273 Q1431.17 631.455 1431.17 635.104 Q1431.17 636.834 1430.51 638.395 Q1429.87 639.937 1428.16 642.044 Q1427.69 642.589 1425.17 645.204 Q1422.65 647.799 1418.06 652.482 Z" fill="#000000" fill-rule="nonzero" fill-opacity="1" /><path clip-path="url(#clip510)" d="M1361.54 513.242 L1369.18 513.242 L1369.18 486.876 L1360.87 488.543 L1360.87 484.284 L1369.13 482.617 L1373.81 482.617 L1373.81 513.242 L1381.45 513.242 L1381.45 517.177 L1361.54 517.177 L1361.54 513.242 Z" fill="#000000" fill-rule="nonzero" fill-opacity="1" /><path clip-path="url(#clip510)" d="M1400.89 485.696 Q1397.28 485.696 1395.45 489.261 Q1393.64 492.802 1393.64 499.932 Q1393.64 507.038 1395.45 510.603 Q1397.28 514.145 1400.89 514.145 Q1404.52 514.145 1406.33 510.603 Q1408.16 507.038 1408.16 499.932 Q1408.16 492.802 1406.33 489.261 Q1404.52 485.696 1400.89 485.696 M1400.89 481.992 Q1406.7 481.992 1409.76 486.599 Q1412.83 491.182 1412.83 499.932 Q1412.83 508.659 1409.76 513.265 Q1406.7 517.849 1400.89 517.849 Q1395.08 517.849 1392 513.265 Q1388.95 508.659 1388.95 499.932 Q1388.95 491.182 1392 486.599 Q1395.08 481.992 1400.89 481.992 Z" fill="#000000" fill-rule="nonzero" fill-opacity="1" /><path clip-path="url(#clip510)" d="M1425.53 474.627 Q1428.26 475.21 1429.78 477.053 Q1431.32 478.896 1431.32 481.604 Q1431.32 485.761 1428.46 488.037 Q1425.6 490.312 1420.34 490.312 Q1418.57 490.312 1416.69 489.955 Q1414.83 489.616 1412.83 488.92 L1412.83 485.253 Q1414.41 486.175 1416.3 486.645 Q1418.18 487.115 1420.23 487.115 Q1423.8 487.115 1425.66 485.704 Q1427.54 484.294 1427.54 481.604 Q1427.54 479.122 1425.79 477.73 Q1424.06 476.319 1420.96 476.319 L1417.69 476.319 L1417.69 473.197 L1421.11 473.197 Q1423.91 473.197 1425.4 472.088 Q1426.88 470.959 1426.88 468.853 Q1426.88 466.69 1425.34 465.542 Q1423.82 464.376 1420.96 464.376 Q1419.4 464.376 1417.61 464.715 Q1415.82 465.053 1413.68 465.768 L1413.68 462.383 Q1415.84 461.781 1417.72 461.48 Q1419.62 461.179 1421.3 461.179 Q1425.62 461.179 1428.14 463.154 Q1430.66 465.11 1430.66 468.458 Q1430.66 470.79 1429.33 472.407 Q1427.99 474.006 1425.53 474.627 Z" fill="#000000" fill-rule="nonzero" fill-opacity="1" /><path clip-path="url(#clip510)" d="M1359.56 347.329 L1367.2 347.329 L1367.2 320.964 L1358.89 322.63 L1358.89 318.371 L1367.16 316.705 L1371.83 316.705 L1371.83 347.329 L1379.47 347.329 L1379.47 351.265 L1359.56 351.265 L1359.56 347.329 Z" fill="#000000" fill-rule="nonzero" fill-opacity="1" /><path clip-path="url(#clip510)" d="M1398.92 319.783 Q1395.3 319.783 1393.48 323.348 Q1391.67 326.89 1391.67 334.019 Q1391.67 341.126 1393.48 344.691 Q1395.3 348.232 1398.92 348.232 Q1402.55 348.232 1404.36 344.691 Q1406.18 341.126 1406.18 334.019 Q1406.18 326.89 1404.36 323.348 Q1402.55 319.783 1398.92 319.783 M1398.92 316.08 Q1404.73 316.08 1407.78 320.686 Q1410.86 325.269 1410.86 334.019 Q1410.86 342.746 1407.78 347.353 Q1404.73 351.936 1398.92 351.936 Q1393.11 351.936 1390.03 347.353 Q1386.97 342.746 1386.97 334.019 Q1386.97 325.269 1390.03 320.686 Q1393.11 316.08 1398.92 316.08 Z" fill="#000000" fill-rule="nonzero" fill-opacity="1" /><path clip-path="url(#clip510)" d="M1423.54 299.084 L1413.94 314.074 L1423.54 314.074 L1423.54 299.084 M1422.54 295.774 L1427.32 295.774 L1427.32 314.074 L1431.32 314.074 L1431.32 317.234 L1427.32 317.234 L1427.32 323.854 L1423.54 323.854 L1423.54 317.234 L1410.86 317.234 L1410.86 313.566 L1422.54 295.774 Z" fill="#000000" fill-rule="nonzero" fill-opacity="1" /><path clip-path="url(#clip510)" d="M1361.86 181.417 L1369.5 181.417 L1369.5 155.051 L1361.19 156.718 L1361.19 152.459 L1369.45 150.792 L1374.13 150.792 L1374.13 181.417 L1381.77 181.417 L1381.77 185.352 L1361.86 185.352 L1361.86 181.417 Z" fill="#000000" fill-rule="nonzero" fill-opacity="1" /><path clip-path="url(#clip510)" d="M1401.21 153.871 Q1397.6 153.871 1395.77 157.435 Q1393.96 160.977 1393.96 168.107 Q1393.96 175.213 1395.77 178.778 Q1397.6 182.319 1401.21 182.319 Q1404.84 182.319 1406.65 178.778 Q1408.48 175.213 1408.48 168.107 Q1408.48 160.977 1406.65 157.435 Q1404.84 153.871 1401.21 153.871 M1401.21 150.167 Q1407.02 150.167 1410.08 154.773 Q1413.15 159.357 1413.15 168.107 Q1413.15 176.833 1410.08 181.44 Q1407.02 186.023 1401.21 186.023 Q1395.4 186.023 1392.32 181.44 Q1389.27 176.833 1389.27 168.107 Q1389.27 159.357 1392.32 154.773 Q1395.4 150.167 1401.21 150.167 Z" fill="#000000" fill-rule="nonzero" fill-opacity="1" /><path clip-path="url(#clip510)" d="M1414.34 129.861 L1429.25 129.861 L1429.25 133.059 L1417.82 133.059 L1417.82 139.942 Q1418.65 139.66 1419.47 139.529 Q1420.3 139.378 1421.13 139.378 Q1425.83 139.378 1428.58 141.955 Q1431.32 144.532 1431.32 148.933 Q1431.32 153.465 1428.5 155.985 Q1425.68 158.487 1420.55 158.487 Q1418.78 158.487 1416.93 158.186 Q1415.11 157.885 1413.15 157.283 L1413.15 153.465 Q1414.85 154.387 1416.65 154.838 Q1418.46 155.29 1420.47 155.29 Q1423.72 155.29 1425.62 153.578 Q1427.52 151.867 1427.52 148.933 Q1427.52 145.999 1425.62 144.287 Q1423.72 142.576 1420.47 142.576 Q1418.95 142.576 1417.42 142.914 Q1415.92 143.253 1414.34 143.967 L1414.34 129.861 Z" fill="#000000" fill-rule="nonzero" fill-opacity="1" /><path clip-path="url(#clip510)" d="M1272.35 737.577 L1272.35 731.926 L1288.34 721.145 L1272.35 710.442 L1272.35 704.791 L1292.71 718.541 L1311.23 718.541 L1311.23 723.827 L1292.71 723.827 L1272.35 737.577 Z" fill="#000000" fill-rule="nonzero" fill-opacity="1" /><path clip-path="url(#clip510)" d="M1270.76 671.405 Q1276.75 674.895 1282.61 676.588 Q1288.47 678.28 1294.48 678.28 Q1300.5 678.28 1306.41 676.588 Q1312.3 674.869 1318.26 671.405 L1318.26 675.572 Q1312.14 679.478 1306.23 681.431 Q1300.32 683.359 1294.48 683.359 Q1288.68 683.359 1282.79 681.431 Q1276.91 679.504 1270.76 675.572 L1270.76 671.405 Z" fill="#000000" fill-rule="nonzero" fill-opacity="1" /><path clip-path="url(#clip510)" d="M1270.71 662.109 L1270.71 657.317 L1311.23 657.317 L1311.23 662.109 L1270.71 662.109 Z" fill="#000000" fill-rule="nonzero" fill-opacity="1" /><path clip-path="url(#clip510)" d="M1285.42 635.989 Q1285.42 639.843 1288.44 642.083 Q1291.44 644.322 1296.67 644.322 Q1301.91 644.322 1304.93 642.109 Q1307.92 639.869 1307.92 635.989 Q1307.92 632.161 1304.9 629.921 Q1301.88 627.682 1296.67 627.682 Q1291.49 627.682 1288.47 629.921 Q1285.42 632.161 1285.42 635.989 M1281.36 635.989 Q1281.36 629.739 1285.42 626.171 Q1289.48 622.604 1296.67 622.604 Q1303.83 622.604 1307.92 626.171 Q1311.98 629.739 1311.98 635.989 Q1311.98 642.265 1307.92 645.833 Q1303.83 649.374 1296.67 649.374 Q1289.48 649.374 1285.42 645.833 Q1281.36 642.265 1281.36 635.989 Z" fill="#000000" fill-rule="nonzero" fill-opacity="1" /><path clip-path="url(#clip510)" d="M1296.31 595.468 Q1291.1 595.468 1288.23 597.63 Q1285.37 599.765 1285.37 603.645 Q1285.37 607.5 1288.23 609.661 Q1291.1 611.796 1296.31 611.796 Q1301.49 611.796 1304.35 609.661 Q1307.22 607.5 1307.22 603.645 Q1307.22 599.765 1304.35 597.63 Q1301.49 595.468 1296.31 595.468 M1307.61 590.677 Q1315.06 590.677 1318.68 593.984 Q1322.32 597.291 1322.32 604.114 Q1322.32 606.64 1321.93 608.88 Q1321.57 611.119 1320.79 613.229 L1316.12 613.229 Q1317.27 611.119 1317.82 609.062 Q1318.36 607.005 1318.36 604.869 Q1318.36 600.156 1315.89 597.812 Q1313.44 595.468 1308.47 595.468 L1306.1 595.468 Q1308.68 596.953 1309.95 599.27 Q1311.23 601.588 1311.23 604.817 Q1311.23 610.182 1307.14 613.463 Q1303.05 616.744 1296.31 616.744 Q1289.54 616.744 1285.45 613.463 Q1281.36 610.182 1281.36 604.817 Q1281.36 601.588 1282.63 599.27 Q1283.91 596.953 1286.49 595.468 L1282.06 595.468 L1282.06 590.677 L1307.61 590.677 Z" fill="#000000" fill-rule="nonzero" fill-opacity="1" /><path clip-path="url(#clip510)" d="M1282.92 545.26 L1287.45 545.26 Q1286.41 547.292 1285.89 549.479 Q1285.37 551.667 1285.37 554.01 Q1285.37 557.578 1286.46 559.375 Q1287.56 561.146 1289.74 561.146 Q1291.41 561.146 1292.37 559.87 Q1293.31 558.594 1294.17 554.739 L1294.54 553.099 Q1295.63 547.995 1297.63 545.859 Q1299.61 543.698 1303.18 543.698 Q1307.24 543.698 1309.61 546.927 Q1311.98 550.13 1311.98 555.755 Q1311.98 558.099 1311.51 560.651 Q1311.07 563.177 1310.16 565.989 L1305.21 565.989 Q1306.59 563.333 1307.3 560.755 Q1307.97 558.177 1307.97 555.651 Q1307.97 552.265 1306.83 550.443 Q1305.66 548.62 1303.55 548.62 Q1301.59 548.62 1300.55 549.948 Q1299.51 551.25 1298.55 555.703 L1298.16 557.37 Q1297.22 561.823 1295.29 563.802 Q1293.34 565.781 1289.95 565.781 Q1285.84 565.781 1283.6 562.864 Q1281.36 559.948 1281.36 554.583 Q1281.36 551.927 1281.75 549.583 Q1282.14 547.239 1282.92 545.26 Z" fill="#000000" fill-rule="nonzero" fill-opacity="1" /><path clip-path="url(#clip510)" d="M1283.18 515.078 L1287.66 515.078 Q1286.54 517.109 1285.99 519.167 Q1285.42 521.198 1285.42 523.281 Q1285.42 527.943 1288.39 530.521 Q1291.33 533.099 1296.67 533.099 Q1302.01 533.099 1304.98 530.521 Q1307.92 527.943 1307.92 523.281 Q1307.92 521.198 1307.37 519.167 Q1306.8 517.109 1305.68 515.078 L1310.11 515.078 Q1311.05 517.083 1311.51 519.245 Q1311.98 521.38 1311.98 523.802 Q1311.98 530.391 1307.84 534.271 Q1303.7 538.151 1296.67 538.151 Q1289.54 538.151 1285.45 534.245 Q1281.36 530.312 1281.36 523.49 Q1281.36 521.276 1281.83 519.167 Q1282.27 517.057 1283.18 515.078 Z" fill="#000000" fill-rule="nonzero" fill-opacity="1" /><path clip-path="url(#clip510)" d="M1296.57 493.49 Q1296.57 499.297 1297.9 501.537 Q1299.22 503.776 1302.43 503.776 Q1304.98 503.776 1306.49 502.11 Q1307.97 500.417 1307.97 497.526 Q1307.97 493.542 1305.16 491.146 Q1302.32 488.724 1297.63 488.724 L1296.57 488.724 L1296.57 493.49 M1294.59 483.933 L1311.23 483.933 L1311.23 488.724 L1306.8 488.724 Q1309.46 490.365 1310.73 492.813 Q1311.98 495.261 1311.98 498.802 Q1311.98 503.281 1309.48 505.938 Q1306.96 508.568 1302.74 508.568 Q1297.82 508.568 1295.32 505.287 Q1292.82 501.979 1292.82 495.443 L1292.82 488.724 L1292.35 488.724 Q1289.04 488.724 1287.24 490.912 Q1285.42 493.073 1285.42 497.005 Q1285.42 499.505 1286.02 501.875 Q1286.62 504.245 1287.82 506.432 L1283.39 506.432 Q1282.37 503.802 1281.88 501.328 Q1281.36 498.854 1281.36 496.511 Q1281.36 490.182 1284.64 487.058 Q1287.92 483.933 1294.59 483.933 Z" fill="#000000" fill-rule="nonzero" fill-opacity="1" /><path clip-path="url(#clip510)" d="M1270.71 474.063 L1270.71 469.271 L1311.23 469.271 L1311.23 474.063 L1270.71 474.063 Z" fill="#000000" fill-rule="nonzero" fill-opacity="1" /><path clip-path="url(#clip510)" d="M1295.45 434.297 L1297.79 434.297 L1297.79 456.329 Q1302.74 456.016 1305.34 453.36 Q1307.92 450.677 1307.92 445.912 Q1307.92 443.151 1307.24 440.573 Q1306.57 437.969 1305.21 435.417 L1309.74 435.417 Q1310.84 437.995 1311.41 440.704 Q1311.98 443.412 1311.98 446.198 Q1311.98 453.177 1307.92 457.266 Q1303.86 461.328 1296.93 461.328 Q1289.77 461.328 1285.58 457.474 Q1281.36 453.594 1281.36 447.032 Q1281.36 441.146 1285.16 437.735 Q1288.94 434.297 1295.45 434.297 M1294.04 439.089 Q1290.11 439.141 1287.76 441.303 Q1285.42 443.438 1285.42 446.98 Q1285.42 450.99 1287.69 453.412 Q1289.95 455.808 1294.07 456.172 L1294.04 439.089 Z" fill="#000000" fill-rule="nonzero" fill-opacity="1" /><path clip-path="url(#clip510)" d="M1270.76 427.188 L1270.76 423.021 Q1276.91 419.115 1282.79 417.188 Q1288.68 415.235 1294.48 415.235 Q1300.32 415.235 1306.23 417.188 Q1312.14 419.115 1318.26 423.021 L1318.26 427.188 Q1312.3 423.725 1306.41 422.032 Q1300.5 420.313 1294.48 420.313 Q1288.47 420.313 1282.61 422.032 Q1276.75 423.725 1270.76 427.188 Z" fill="#000000" fill-rule="nonzero" fill-opacity="1" /><path clip-path="url(#clip510)" d="M1617.5 34.3303 L1617.5 51.7405 L1627.81 51.7405 Q1633 51.7405 1635.48 49.608 Q1638 47.4436 1638 43.0194 Q1638 38.5635 1635.48 36.4628 Q1633 34.3303 1627.81 34.3303 L1617.5 34.3303 M1617.5 14.7875 L1617.5 29.1104 L1627.02 29.1104 Q1631.73 29.1104 1634.02 27.3598 Q1636.34 25.5774 1636.34 21.949 Q1636.34 18.3523 1634.02 16.5699 Q1631.73 14.7875 1627.02 14.7875 L1617.5 14.7875 M1611.07 9.504 L1627.5 9.504 Q1634.85 9.504 1638.83 12.5595 Q1642.81 15.6151 1642.81 21.2487 Q1642.81 25.6092 1640.77 28.1873 Q1638.73 30.7655 1634.78 31.402 Q1639.53 32.4205 1642.14 35.6671 Q1644.78 38.8817 1644.78 43.7197 Q1644.78 50.0854 1640.45 53.5547 Q1636.12 57.024 1628.13 57.024 L1611.07 57.024 L1611.07 9.504 Z" fill="#000000" fill-rule="nonzero" fill-opacity="1" /><path clip-path="url(#clip510)" d="M1671.74 39.1045 Q1664.64 39.1045 1661.9 40.7278 Q1659.16 42.351 1659.16 46.266 Q1659.16 49.3852 1661.2 51.2312 Q1663.27 53.0454 1666.8 53.0454 Q1671.67 53.0454 1674.6 49.608 Q1677.56 46.1386 1677.56 40.4095 L1677.56 39.1045 L1671.74 39.1045 M1683.42 36.6856 L1683.42 57.024 L1677.56 57.024 L1677.56 51.6131 Q1675.56 54.8597 1672.56 56.4193 Q1669.57 57.947 1665.24 57.947 Q1659.77 57.947 1656.52 54.8915 Q1653.31 51.8041 1653.31 46.6479 Q1653.31 40.6323 1657.32 37.5768 Q1661.36 34.5212 1669.35 34.5212 L1677.56 34.5212 L1677.56 33.9483 Q1677.56 29.9061 1674.89 27.7099 Q1672.25 25.4819 1667.44 25.4819 Q1664.38 25.4819 1661.49 26.214 Q1658.59 26.946 1655.92 28.4101 L1655.92 22.9993 Q1659.13 21.758 1662.16 21.1532 Q1665.18 20.5167 1668.05 20.5167 Q1675.78 20.5167 1679.6 24.5271 Q1683.42 28.5375 1683.42 36.6856 Z" fill="#000000" fill-rule="nonzero" fill-opacity="1" /><path clip-path="url(#clip510)" d="M1710.31 60.3342 Q1707.83 66.6999 1705.48 68.6414 Q1703.12 70.583 1699.17 70.583 L1694.49 70.583 L1694.49 65.6814 L1697.93 65.6814 Q1700.35 65.6814 1701.69 64.5355 Q1703.02 63.3897 1704.65 59.1247 L1705.7 56.4511 L1691.28 21.376 L1697.49 21.376 L1708.63 49.2578 L1719.77 21.376 L1725.97 21.376 L1710.31 60.3342 Z" fill="#000000" fill-rule="nonzero" fill-opacity="1" /><path clip-path="url(#clip510)" d="M1764.55 37.7359 L1764.55 40.6005 L1737.62 40.6005 Q1738 46.6479 1741.25 49.8308 Q1744.53 52.9818 1750.35 52.9818 Q1753.73 52.9818 1756.88 52.1542 Q1760.06 51.3267 1763.18 49.6716 L1763.18 55.2098 Q1760.03 56.5466 1756.72 57.2468 Q1753.41 57.947 1750 57.947 Q1741.47 57.947 1736.48 52.9818 Q1731.51 48.0165 1731.51 39.5501 Q1731.51 30.7973 1736.22 25.6729 Q1740.96 20.5167 1748.99 20.5167 Q1756.18 20.5167 1760.35 25.1636 Q1764.55 29.7788 1764.55 37.7359 M1758.69 36.0172 Q1758.63 31.2111 1755.99 28.3465 Q1753.38 25.4819 1749.05 25.4819 Q1744.15 25.4819 1741.19 28.251 Q1738.26 31.0201 1737.81 36.049 L1758.69 36.0172 Z" fill="#000000" fill-rule="nonzero" fill-opacity="1" /><path clip-path="url(#clip510)" d="M1796.89 22.4264 L1796.89 27.9645 Q1794.4 26.6914 1791.73 26.0548 Q1789.06 25.4183 1786.19 25.4183 Q1781.83 25.4183 1779.64 26.7551 Q1777.47 28.0919 1777.47 30.7655 Q1777.47 32.8025 1779.03 33.9801 Q1780.59 35.126 1785.3 36.1763 L1787.31 36.6219 Q1793.55 37.9587 1796.15 40.4095 Q1798.8 42.8285 1798.8 47.189 Q1798.8 52.1542 1794.85 55.0506 Q1790.94 57.947 1784.06 57.947 Q1781.2 57.947 1778.08 57.3741 Q1774.99 56.833 1771.55 55.719 L1771.55 49.6716 Q1774.8 51.3585 1777.95 52.2179 Q1781.1 53.0454 1784.19 53.0454 Q1788.33 53.0454 1790.55 51.645 Q1792.78 50.2127 1792.78 47.6346 Q1792.78 45.2474 1791.16 43.9743 Q1789.57 42.7012 1784.12 41.5235 L1782.09 41.0461 Q1776.64 39.9002 1774.23 37.5449 Q1771.81 35.1578 1771.81 31.0201 Q1771.81 25.9912 1775.37 23.2539 Q1778.94 20.5167 1785.49 20.5167 Q1788.74 20.5167 1791.6 20.9941 Q1794.47 21.4715 1796.89 22.4264 Z" fill="#000000" fill-rule="nonzero" fill-opacity="1" /><path clip-path="url(#clip510)" d="M1808.12 21.376 L1813.98 21.376 L1813.98 57.024 L1808.12 57.024 L1808.12 21.376 M1808.12 7.4988 L1813.98 7.4988 L1813.98 14.9149 L1808.12 14.9149 L1808.12 7.4988 Z" fill="#000000" fill-rule="nonzero" fill-opacity="1" /><path clip-path="url(#clip510)" d="M1842.43 39.1045 Q1835.34 39.1045 1832.6 40.7278 Q1829.86 42.351 1829.86 46.266 Q1829.86 49.3852 1831.9 51.2312 Q1833.97 53.0454 1837.5 53.0454 Q1842.37 53.0454 1845.3 49.608 Q1848.26 46.1386 1848.26 40.4095 L1848.26 39.1045 L1842.43 39.1045 M1854.11 36.6856 L1854.11 57.024 L1848.26 57.024 L1848.26 51.6131 Q1846.25 54.8597 1843.26 56.4193 Q1840.27 57.947 1835.94 57.947 Q1830.47 57.947 1827.22 54.8915 Q1824 51.8041 1824 46.6479 Q1824 40.6323 1828.02 37.5768 Q1832.06 34.5212 1840.05 34.5212 L1848.26 34.5212 L1848.26 33.9483 Q1848.26 29.9061 1845.58 27.7099 Q1842.94 25.4819 1838.14 25.4819 Q1835.08 25.4819 1832.18 26.214 Q1829.29 26.946 1826.61 28.4101 L1826.61 22.9993 Q1829.83 21.758 1832.85 21.1532 Q1835.88 20.5167 1838.74 20.5167 Q1846.48 20.5167 1850.3 24.5271 Q1854.11 28.5375 1854.11 36.6856 Z" fill="#000000" fill-rule="nonzero" fill-opacity="1" /><path clip-path="url(#clip510)" d="M1895.81 35.5079 L1895.81 57.024 L1889.95 57.024 L1889.95 35.6989 Q1889.95 30.6381 1887.98 28.1237 Q1886.01 25.6092 1882.06 25.6092 Q1877.32 25.6092 1874.58 28.6329 Q1871.84 31.6567 1871.84 36.8765 L1871.84 57.024 L1865.95 57.024 L1865.95 21.376 L1871.84 21.376 L1871.84 26.9142 Q1873.94 23.6995 1876.78 22.1081 Q1879.64 20.5167 1883.37 20.5167 Q1889.51 20.5167 1892.66 24.3361 Q1895.81 28.1237 1895.81 35.5079 Z" fill="#000000" fill-rule="nonzero" fill-opacity="1" /><path clip-path="url(#clip510)" d="M1929.23 56.0373 L1929.23 50.1809 Q1931.65 51.3267 1934.13 51.9314 Q1936.61 52.5362 1939 52.5362 Q1945.37 52.5362 1948.71 48.2712 Q1952.08 43.9743 1952.56 35.2533 Q1950.71 37.9905 1947.88 39.4546 Q1945.05 40.9188 1941.61 40.9188 Q1934.48 40.9188 1930.31 36.6219 Q1926.17 32.2932 1926.17 24.8135 Q1926.17 17.493 1930.5 13.0688 Q1934.83 8.64463 1942.03 8.64463 Q1950.27 8.64463 1954.6 14.9785 Q1958.96 21.2806 1958.96 33.3117 Q1958.96 44.5472 1953.61 51.263 Q1948.3 57.947 1939.29 57.947 Q1936.87 57.947 1934.39 57.4696 Q1931.9 56.9922 1929.23 56.0373 M1942.03 35.8899 Q1946.35 35.8899 1948.87 32.9298 Q1951.41 29.9697 1951.41 24.8135 Q1951.41 19.6891 1948.87 16.7291 Q1946.35 13.7372 1942.03 13.7372 Q1937.7 13.7372 1935.15 16.7291 Q1932.64 19.6891 1932.64 24.8135 Q1932.64 29.9697 1935.15 32.9298 Q1937.7 35.8899 1942.03 35.8899 Z" fill="#000000" fill-rule="nonzero" fill-opacity="1" /><path clip-path="url(#clip510)" d="M1970.58 9.504 L1995.82 9.504 L1995.82 14.9149 L1976.46 14.9149 L1976.46 26.5641 Q1977.86 26.0867 1979.26 25.8639 Q1980.66 25.6092 1982.07 25.6092 Q1990.02 25.6092 1994.67 29.9697 Q1999.32 34.3303 1999.32 41.7781 Q1999.32 49.4488 1994.54 53.7138 Q1989.77 57.947 1981.08 57.947 Q1978.09 57.947 1974.97 57.4378 Q1971.88 56.9285 1968.57 55.91 L1968.57 49.4488 Q1971.43 51.0084 1974.49 51.7723 Q1977.55 52.5362 1980.95 52.5362 Q1986.46 52.5362 1989.67 49.6398 Q1992.89 46.7434 1992.89 41.7781 Q1992.89 36.8129 1989.67 33.9165 Q1986.46 31.0201 1980.95 31.0201 Q1978.37 31.0201 1975.8 31.593 Q1973.25 32.1659 1970.58 33.3754 L1970.58 9.504 Z" fill="#000000" fill-rule="nonzero" fill-opacity="1" /><path clip-path="url(#clip510)" d="M2052.41 36.1127 Q2049.64 36.1127 2048.05 38.468 Q2046.49 40.8233 2046.49 45.0246 Q2046.49 49.1624 2048.05 51.5495 Q2049.64 53.9048 2052.41 53.9048 Q2055.11 53.9048 2056.67 51.5495 Q2058.26 49.1624 2058.26 45.0246 Q2058.26 40.8551 2056.67 38.4998 Q2055.11 36.1127 2052.41 36.1127 M2052.41 32.0704 Q2057.44 32.0704 2060.4 35.5716 Q2063.36 39.0727 2063.36 45.0246 Q2063.36 50.9766 2060.36 54.4777 Q2057.4 57.947 2052.41 57.947 Q2047.31 57.947 2044.35 54.4777 Q2041.39 50.9766 2041.39 45.0246 Q2041.39 39.0409 2044.35 35.5716 Q2047.35 32.0704 2052.41 32.0704 M2019.56 12.6869 Q2016.82 12.6869 2015.23 15.074 Q2013.67 17.4293 2013.67 21.567 Q2013.67 25.7684 2015.23 28.1237 Q2016.79 30.479 2019.56 30.479 Q2022.33 30.479 2023.89 28.1237 Q2025.48 25.7684 2025.48 21.567 Q2025.48 17.4611 2023.89 15.074 Q2022.3 12.6869 2019.56 12.6869 M2048.3 8.64463 L2053.39 8.64463 L2023.67 57.947 L2018.57 57.947 L2048.3 8.64463 M2019.56 8.64463 Q2024.59 8.64463 2027.58 12.1458 Q2030.57 15.6151 2030.57 21.567 Q2030.57 27.5826 2027.58 31.0519 Q2024.62 34.5212 2019.56 34.5212 Q2014.5 34.5212 2011.54 31.0519 Q2008.61 27.5508 2008.61 21.567 Q2008.61 15.6469 2011.57 12.1458 Q2014.53 8.64463 2019.56 8.64463 Z" fill="#000000" fill-rule="nonzero" fill-opacity="1" /><path clip-path="url(#clip510)" d="M2129.65 13.1643 L2129.65 19.9438 Q2126.41 16.92 2122.72 15.4241 Q2119.06 13.9282 2114.92 13.9282 Q2106.77 13.9282 2102.44 18.9252 Q2098.11 23.8905 2098.11 33.3117 Q2098.11 42.7012 2102.44 47.6982 Q2106.77 52.6635 2114.92 52.6635 Q2119.06 52.6635 2122.72 51.1675 Q2126.41 49.6716 2129.65 46.6479 L2129.65 53.3637 Q2126.28 55.6554 2122.49 56.8012 Q2118.74 57.947 2114.54 57.947 Q2103.75 57.947 2097.54 51.3585 Q2091.33 44.7382 2091.33 33.3117 Q2091.33 21.8535 2097.54 15.265 Q2103.75 8.64463 2114.54 8.64463 Q2118.8 8.64463 2122.56 9.79046 Q2126.34 10.9045 2129.65 13.1643 Z" fill="#000000" fill-rule="nonzero" fill-opacity="1" /><path clip-path="url(#clip510)" d="M2139.58 9.504 L2146.01 9.504 L2146.01 57.024 L2139.58 57.024 L2139.58 9.504 Z" fill="#000000" fill-rule="nonzero" fill-opacity="1" /><polyline clip-path="url(#clip513)" style="stroke:#000000; stroke-linecap:round; stroke-linejoin:round; stroke-width:8; stroke-opacity:1; fill:none" points="1576.98,880.711 1576.98,741.304 "/>
<polyline clip-path="url(#clip513)" style="stroke:#000000; stroke-linecap:round; stroke-linejoin:round; stroke-width:8; stroke-opacity:1; fill:none" points="1573.33,880.711 1580.64,880.711 "/>
<polyline clip-path="url(#clip513)" style="stroke:#000000; stroke-linecap:round; stroke-linejoin:round; stroke-width:8; stroke-opacity:1; fill:none" points="1573.33,741.304 1580.64,741.304 "/>
<polyline clip-path="url(#clip513)" style="stroke:#000000; stroke-linecap:round; stroke-linejoin:round; stroke-width:8; stroke-opacity:1; fill:none" points="1631.81,475.6 1631.81,331.888 "/>
<polyline clip-path="url(#clip513)" style="stroke:#000000; stroke-linecap:round; stroke-linejoin:round; stroke-width:8; stroke-opacity:1; fill:none" points="1628.16,475.6 1635.47,475.6 "/>
<polyline clip-path="url(#clip513)" style="stroke:#000000; stroke-linecap:round; stroke-linejoin:round; stroke-width:8; stroke-opacity:1; fill:none" points="1628.16,331.888 1635.47,331.888 "/>
<polyline clip-path="url(#clip513)" style="stroke:#000000; stroke-linecap:round; stroke-linejoin:round; stroke-width:8; stroke-opacity:1; fill:none" points="1851.13,898.071 1851.13,755.275 "/>
<polyline clip-path="url(#clip513)" style="stroke:#000000; stroke-linecap:round; stroke-linejoin:round; stroke-width:8; stroke-opacity:1; fill:none" points="1847.47,898.071 1854.78,898.071 "/>
<polyline clip-path="url(#clip513)" style="stroke:#000000; stroke-linecap:round; stroke-linejoin:round; stroke-width:8; stroke-opacity:1; fill:none" points="1847.47,755.275 1854.78,755.275 "/>
<polyline clip-path="url(#clip513)" style="stroke:#000000; stroke-linecap:round; stroke-linejoin:round; stroke-width:8; stroke-opacity:1; fill:none" points="1905.96,469.836 1905.96,323.196 "/>
<polyline clip-path="url(#clip513)" style="stroke:#000000; stroke-linecap:round; stroke-linejoin:round; stroke-width:8; stroke-opacity:1; fill:none" points="1902.3,469.836 1909.61,469.836 "/>
<polyline clip-path="url(#clip513)" style="stroke:#000000; stroke-linecap:round; stroke-linejoin:round; stroke-width:8; stroke-opacity:1; fill:none" points="1902.3,323.196 1909.61,323.196 "/>
<polyline clip-path="url(#clip513)" style="stroke:#000000; stroke-linecap:round; stroke-linejoin:round; stroke-width:8; stroke-opacity:1; fill:none" points="2125.28,887.329 2125.28,765.799 "/>
<polyline clip-path="url(#clip513)" style="stroke:#000000; stroke-linecap:round; stroke-linejoin:round; stroke-width:8; stroke-opacity:1; fill:none" points="2121.62,887.329 2128.93,887.329 "/>
<polyline clip-path="url(#clip513)" style="stroke:#000000; stroke-linecap:round; stroke-linejoin:round; stroke-width:8; stroke-opacity:1; fill:none" points="2121.62,765.799 2128.93,765.799 "/>
<polyline clip-path="url(#clip513)" style="stroke:#000000; stroke-linecap:round; stroke-linejoin:round; stroke-width:8; stroke-opacity:1; fill:none" points="2180.1,472.72 2180.1,335.135 "/>
<polyline clip-path="url(#clip513)" style="stroke:#000000; stroke-linecap:round; stroke-linejoin:round; stroke-width:8; stroke-opacity:1; fill:none" points="2176.45,472.72 2183.76,472.72 "/>
<polyline clip-path="url(#clip513)" style="stroke:#000000; stroke-linecap:round; stroke-linejoin:round; stroke-width:8; stroke-opacity:1; fill:none" points="2176.45,335.135 2183.76,335.135 "/>
<circle clip-path="url(#clip513)" cx="1576.98" cy="814.221" r="6.48" fill="#ffffff" fill-rule="evenodd" fill-opacity="1" stroke="#0000ff" stroke-opacity="1" stroke-width="4.8"/>
<circle clip-path="url(#clip513)" cx="1576.98" cy="837.227" r="6.48" fill="#ffffff" fill-rule="evenodd" fill-opacity="1" stroke="#0000ff" stroke-opacity="1" stroke-width="4.8"/>
<circle clip-path="url(#clip513)" cx="1576.98" cy="826.155" r="6.48" fill="#ffffff" fill-rule="evenodd" fill-opacity="1" stroke="#0000ff" stroke-opacity="1" stroke-width="4.8"/>
<circle clip-path="url(#clip513)" cx="1851.13" cy="827.702" r="6.48" fill="#ffffff" fill-rule="evenodd" fill-opacity="1" stroke="#0000ff" stroke-opacity="1" stroke-width="4.8"/>
<circle clip-path="url(#clip513)" cx="1851.13" cy="833.375" r="6.48" fill="#ffffff" fill-rule="evenodd" fill-opacity="1" stroke="#0000ff" stroke-opacity="1" stroke-width="4.8"/>
<circle clip-path="url(#clip513)" cx="1851.13" cy="863.562" r="6.48" fill="#ffffff" fill-rule="evenodd" fill-opacity="1" stroke="#0000ff" stroke-opacity="1" stroke-width="4.8"/>
<circle clip-path="url(#clip513)" cx="2125.28" cy="841.554" r="6.48" fill="#ffffff" fill-rule="evenodd" fill-opacity="1" stroke="#0000ff" stroke-opacity="1" stroke-width="4.8"/>
<circle clip-path="url(#clip513)" cx="2125.28" cy="846.85" r="6.48" fill="#ffffff" fill-rule="evenodd" fill-opacity="1" stroke="#0000ff" stroke-opacity="1" stroke-width="4.8"/>
<circle clip-path="url(#clip513)" cx="2125.28" cy="837.73" r="6.48" fill="#ffffff" fill-rule="evenodd" fill-opacity="1" stroke="#0000ff" stroke-opacity="1" stroke-width="4.8"/>
<circle clip-path="url(#clip513)" cx="1631.81" cy="396.952" r="6.48" fill="#ffffff" fill-rule="evenodd" fill-opacity="1" stroke="#ff0000" stroke-opacity="1" stroke-width="4.8"/>
<circle clip-path="url(#clip513)" cx="1631.81" cy="368.422" r="6.48" fill="#ffffff" fill-rule="evenodd" fill-opacity="1" stroke="#ff0000" stroke-opacity="1" stroke-width="4.8"/>
<circle clip-path="url(#clip513)" cx="1631.81" cy="396.466" r="6.48" fill="#ffffff" fill-rule="evenodd" fill-opacity="1" stroke="#ff0000" stroke-opacity="1" stroke-width="4.8"/>
<circle clip-path="url(#clip513)" cx="1905.96" cy="392.695" r="6.48" fill="#ffffff" fill-rule="evenodd" fill-opacity="1" stroke="#ff0000" stroke-opacity="1" stroke-width="4.8"/>
<circle clip-path="url(#clip513)" cx="1905.96" cy="378.557" r="6.48" fill="#ffffff" fill-rule="evenodd" fill-opacity="1" stroke="#ff0000" stroke-opacity="1" stroke-width="4.8"/>
<circle clip-path="url(#clip513)" cx="1905.96" cy="372.633" r="6.48" fill="#ffffff" fill-rule="evenodd" fill-opacity="1" stroke="#ff0000" stroke-opacity="1" stroke-width="4.8"/>
<circle clip-path="url(#clip513)" cx="2180.1" cy="388.323" r="6.48" fill="#ffffff" fill-rule="evenodd" fill-opacity="1" stroke="#ff0000" stroke-opacity="1" stroke-width="4.8"/>
<circle clip-path="url(#clip513)" cx="2180.1" cy="397.643" r="6.48" fill="#ffffff" fill-rule="evenodd" fill-opacity="1" stroke="#ff0000" stroke-opacity="1" stroke-width="4.8"/>
<circle clip-path="url(#clip513)" cx="2180.1" cy="379.829" r="6.48" fill="#ffffff" fill-rule="evenodd" fill-opacity="1" stroke="#ff0000" stroke-opacity="1" stroke-width="4.8"/>
</svg>
