<?xml version="1.0" encoding="utf-8"?>
<svg xmlns="http://www.w3.org/2000/svg" xmlns:xlink="http://www.w3.org/1999/xlink" width="600" height="300" viewBox="0 0 2400 1200">
<defs>
  <clipPath id="clip510">
    <rect x="0" y="0" width="2400" height="1200"/>
  </clipPath>
</defs>
<path clip-path="url(#clip510)" d="M0 1200 L2400 1200 L2400 0 L0 0  Z" fill="#ffffff" fill-rule="evenodd" fill-opacity="1"/>
<defs>
  <clipPath id="clip511">
    <rect x="480" y="0" width="1681" height="1200"/>
  </clipPath>
</defs>
<path clip-path="url(#clip510)" d="M273.802 984.708 L1089.76 984.708 L1089.76 171.344 L273.802 171.344  Z" fill="#ffffff" fill-rule="evenodd" fill-opacity="1"/>
<defs>
  <clipPath id="clip512">
    <rect x="273" y="171" width="817" height="814"/>
  </clipPath>
</defs>
<polyline clip-path="url(#clip512)" style="stroke:#000000; stroke-linecap:round; stroke-linejoin:round; stroke-width:2; stroke-opacity:0.1; fill:none" points="409.796,984.708 409.796,171.344 "/>
<polyline clip-path="url(#clip512)" style="stroke:#000000; stroke-linecap:round; stroke-linejoin:round; stroke-width:2; stroke-opacity:0.1; fill:none" points="681.783,984.708 681.783,171.344 "/>
<polyline clip-path="url(#clip512)" style="stroke:#000000; stroke-linecap:round; stroke-linejoin:round; stroke-width:2; stroke-opacity:0.1; fill:none" points="953.77,984.708 953.77,171.344 "/>
<polyline clip-path="url(#clip512)" style="stroke:#000000; stroke-linecap:round; stroke-linejoin:round; stroke-width:2; stroke-opacity:0.1; fill:none" points="273.802,984.708 1089.76,984.708 "/>
<polyline clip-path="url(#clip512)" style="stroke:#000000; stroke-linecap:round; stroke-linejoin:round; stroke-width:2; stroke-opacity:0.1; fill:none" points="273.802,822.035 1089.76,822.035 "/>
<polyline clip-path="url(#clip512)" style="stroke:#000000; stroke-linecap:round; stroke-linejoin:round; stroke-width:2; stroke-opacity:0.1; fill:none" points="273.802,659.362 1089.76,659.362 "/>
<polyline clip-path="url(#clip512)" style="stroke:#000000; stroke-linecap:round; stroke-linejoin:round; stroke-width:2; stroke-opacity:0.1; fill:none" points="273.802,496.69 1089.76,496.69 "/>
<polyline clip-path="url(#clip512)" style="stroke:#000000; stroke-linecap:round; stroke-linejoin:round; stroke-width:2; stroke-opacity:0.1; fill:none" points="273.802,334.017 1089.76,334.017 "/>
<polyline clip-path="url(#clip512)" style="stroke:#000000; stroke-linecap:round; stroke-linejoin:round; stroke-width:2; stroke-opacity:0.1; fill:none" points="273.802,171.344 1089.76,171.344 "/>
<polyline clip-path="url(#clip510)" style="stroke:#000000; stroke-linecap:round; stroke-linejoin:round; stroke-width:4; stroke-opacity:1; fill:none" points="273.802,984.708 1089.76,984.708 "/>
<polyline clip-path="url(#clip510)" style="stroke:#000000; stroke-linecap:round; stroke-linejoin:round; stroke-width:4; stroke-opacity:1; fill:none" points="409.796,984.708 409.796,965.81 "/>
<polyline clip-path="url(#clip510)" style="stroke:#000000; stroke-linecap:round; stroke-linejoin:round; stroke-width:4; stroke-opacity:1; fill:none" points="681.783,984.708 681.783,965.81 "/>
<polyline clip-path="url(#clip510)" style="stroke:#000000; stroke-linecap:round; stroke-linejoin:round; stroke-width:4; stroke-opacity:1; fill:none" points="953.77,984.708 953.77,965.81 "/>
<path clip-path="url(#clip510)" d="M400.178 1043.17 L407.817 1043.17 L407.817 1016.81 L399.507 1018.47 L399.507 1014.21 L407.771 1012.55 L412.446 1012.55 L412.446 1043.17 L420.085 1043.17 L420.085 1047.11 L400.178 1047.11 L400.178 1043.17 Z" fill="#000000" fill-rule="nonzero" fill-opacity="1" /><path clip-path="url(#clip510)" d="M676.436 1043.17 L692.755 1043.17 L692.755 1047.11 L670.811 1047.11 L670.811 1043.17 Q673.473 1040.42 678.056 1035.79 Q682.663 1031.14 683.843 1029.79 Q686.089 1027.27 686.968 1025.53 Q687.871 1023.77 687.871 1022.08 Q687.871 1019.33 685.927 1017.59 Q684.005 1015.86 680.903 1015.86 Q678.704 1015.86 676.251 1016.62 Q673.82 1017.39 671.042 1018.94 L671.042 1014.21 Q673.866 1013.08 676.32 1012.5 Q678.774 1011.92 680.811 1011.92 Q686.181 1011.92 689.376 1014.61 Q692.57 1017.29 692.57 1021.78 Q692.57 1023.91 691.76 1025.83 Q690.973 1027.73 688.866 1030.33 Q688.288 1031 685.186 1034.21 Q682.084 1037.41 676.436 1043.17 Z" fill="#000000" fill-rule="nonzero" fill-opacity="1" /><path clip-path="url(#clip510)" d="M958.018 1028.47 Q961.374 1029.19 963.249 1031.46 Q965.147 1033.73 965.147 1037.06 Q965.147 1042.18 961.629 1044.98 Q958.11 1047.78 951.629 1047.78 Q949.453 1047.78 947.138 1047.34 Q944.847 1046.92 942.393 1046.07 L942.393 1041.55 Q944.337 1042.69 946.652 1043.27 Q948.967 1043.84 951.49 1043.84 Q955.888 1043.84 958.18 1042.11 Q960.495 1040.37 960.495 1037.06 Q960.495 1034.01 958.342 1032.29 Q956.212 1030.56 952.393 1030.56 L948.365 1030.56 L948.365 1026.71 L952.578 1026.71 Q956.027 1026.71 957.856 1025.35 Q959.685 1023.96 959.685 1021.37 Q959.685 1018.71 957.786 1017.29 Q955.911 1015.86 952.393 1015.86 Q950.472 1015.86 948.273 1016.27 Q946.074 1016.69 943.435 1017.57 L943.435 1013.4 Q946.097 1012.66 948.411 1012.29 Q950.749 1011.92 952.81 1011.92 Q958.134 1011.92 961.235 1014.35 Q964.337 1016.76 964.337 1020.88 Q964.337 1023.75 962.694 1025.74 Q961.05 1027.71 958.018 1028.47 Z" fill="#000000" fill-rule="nonzero" fill-opacity="1" /><path clip-path="url(#clip510)" d="M564.463 1082.05 L571.37 1082.05 L583.178 1099.72 L595.05 1082.05 L601.957 1082.05 L586.679 1104.87 L602.976 1129.57 L596.069 1129.57 L582.701 1109.36 L569.237 1129.57 L562.299 1129.57 L579.263 1104.2 L564.463 1082.05 Z" fill="#000000" fill-rule="nonzero" fill-opacity="1" /><path clip-path="url(#clip510)" d="M644.385 1129.57 L626.242 1082.05 L632.958 1082.05 L648.013 1122.06 L663.1 1082.05 L669.784 1082.05 L651.673 1129.57 L644.385 1129.57 Z" fill="#000000" fill-rule="nonzero" fill-opacity="1" /><path clip-path="url(#clip510)" d="M687.608 1111.65 Q680.51 1111.65 677.773 1113.28 Q675.035 1114.9 675.035 1118.81 Q675.035 1121.93 677.072 1123.78 Q679.141 1125.59 682.674 1125.59 Q687.544 1125.59 690.472 1122.16 Q693.432 1118.69 693.432 1112.96 L693.432 1111.65 L687.608 1111.65 M699.289 1109.23 L699.289 1129.57 L693.432 1129.57 L693.432 1124.16 Q691.427 1127.41 688.435 1128.97 Q685.443 1130.49 681.115 1130.49 Q675.64 1130.49 672.394 1127.44 Q669.179 1124.35 669.179 1119.2 Q669.179 1113.18 673.189 1110.12 Q677.232 1107.07 685.221 1107.07 L693.432 1107.07 L693.432 1106.5 Q693.432 1102.45 690.759 1100.26 Q688.117 1098.03 683.311 1098.03 Q680.255 1098.03 677.359 1098.76 Q674.463 1099.49 671.789 1100.96 L671.789 1095.55 Q675.004 1094.31 678.027 1093.7 Q681.051 1093.06 683.916 1093.06 Q691.65 1093.06 695.469 1097.07 Q699.289 1101.09 699.289 1109.23 Z" fill="#000000" fill-rule="nonzero" fill-opacity="1" /><path clip-path="url(#clip510)" d="M711.352 1080.05 L717.208 1080.05 L717.208 1129.57 L711.352 1129.57 L711.352 1080.05 Z" fill="#000000" fill-rule="nonzero" fill-opacity="1" /><path clip-path="url(#clip510)" d="M728.858 1115.5 L728.858 1093.92 L734.714 1093.92 L734.714 1115.28 Q734.714 1120.34 736.687 1122.89 Q738.661 1125.4 742.607 1125.4 Q747.35 1125.4 750.087 1122.38 Q752.856 1119.35 752.856 1114.13 L752.856 1093.92 L758.713 1093.92 L758.713 1129.57 L752.856 1129.57 L752.856 1124.1 Q750.724 1127.34 747.891 1128.94 Q745.09 1130.49 741.366 1130.49 Q735.223 1130.49 732.04 1126.68 Q728.858 1122.86 728.858 1115.5 M743.594 1093.06 L743.594 1093.06 Z" fill="#000000" fill-rule="nonzero" fill-opacity="1" /><path clip-path="url(#clip510)" d="M801.267 1110.28 L801.267 1113.15 L774.34 1113.15 Q774.722 1119.2 777.969 1122.38 Q781.247 1125.53 787.072 1125.53 Q790.446 1125.53 793.597 1124.7 Q796.78 1123.87 799.899 1122.22 L799.899 1127.76 Q796.748 1129.09 793.438 1129.79 Q790.127 1130.49 786.722 1130.49 Q778.192 1130.49 773.195 1125.53 Q768.229 1120.56 768.229 1112.1 Q768.229 1103.35 772.94 1098.22 Q777.682 1093.06 785.703 1093.06 Q792.897 1093.06 797.066 1097.71 Q801.267 1102.33 801.267 1110.28 M795.411 1108.56 Q795.347 1103.76 792.706 1100.89 Q790.096 1098.03 785.767 1098.03 Q780.865 1098.03 777.905 1100.8 Q774.977 1103.57 774.531 1108.6 L795.411 1108.56 Z" fill="#000000" fill-rule="nonzero" fill-opacity="1" /><polyline clip-path="url(#clip510)" style="stroke:#000000; stroke-linecap:round; stroke-linejoin:round; stroke-width:4; stroke-opacity:1; fill:none" points="273.802,984.708 273.802,171.344 "/>
<polyline clip-path="url(#clip510)" style="stroke:#000000; stroke-linecap:round; stroke-linejoin:round; stroke-width:4; stroke-opacity:1; fill:none" points="273.802,984.708 292.7,984.708 "/>
<polyline clip-path="url(#clip510)" style="stroke:#000000; stroke-linecap:round; stroke-linejoin:round; stroke-width:4; stroke-opacity:1; fill:none" points="273.802,822.035 292.7,822.035 "/>
<polyline clip-path="url(#clip510)" style="stroke:#000000; stroke-linecap:round; stroke-linejoin:round; stroke-width:4; stroke-opacity:1; fill:none" points="273.802,659.362 292.7,659.362 "/>
<polyline clip-path="url(#clip510)" style="stroke:#000000; stroke-linecap:round; stroke-linejoin:round; stroke-width:4; stroke-opacity:1; fill:none" points="273.802,496.69 292.7,496.69 "/>
<polyline clip-path="url(#clip510)" style="stroke:#000000; stroke-linecap:round; stroke-linejoin:round; stroke-width:4; stroke-opacity:1; fill:none" points="273.802,334.017 292.7,334.017 "/>
<polyline clip-path="url(#clip510)" style="stroke:#000000; stroke-linecap:round; stroke-linejoin:round; stroke-width:4; stroke-opacity:1; fill:none" points="273.802,171.344 292.7,171.344 "/>
<path clip-path="url(#clip510)" d="M167.097 1004.5 L174.736 1004.5 L174.736 978.135 L166.426 979.801 L166.426 975.542 L174.689 973.875 L179.365 973.875 L179.365 1004.5 L187.004 1004.5 L187.004 1008.44 L167.097 1008.44 L167.097 1004.5 Z" fill="#000000" fill-rule="nonzero" fill-opacity="1" /><path clip-path="url(#clip510)" d="M206.448 976.954 Q202.837 976.954 201.009 980.519 Q199.203 984.06 199.203 991.19 Q199.203 998.296 201.009 1001.86 Q202.837 1005.4 206.448 1005.4 Q210.083 1005.4 211.888 1001.86 Q213.717 998.296 213.717 991.19 Q213.717 984.06 211.888 980.519 Q210.083 976.954 206.448 976.954 M206.448 973.25 Q212.259 973.25 215.314 977.857 Q218.393 982.44 218.393 991.19 Q218.393 999.917 215.314 1004.52 Q212.259 1009.11 206.448 1009.11 Q200.638 1009.11 197.56 1004.52 Q194.504 999.917 194.504 991.19 Q194.504 982.44 197.56 977.857 Q200.638 973.25 206.448 973.25 Z" fill="#000000" fill-rule="nonzero" fill-opacity="1" /><path clip-path="url(#clip510)" d="M228.098 955.446 Q225.164 955.446 223.678 958.343 Q222.211 961.22 222.211 967.013 Q222.211 972.787 223.678 975.684 Q225.164 978.561 228.098 978.561 Q231.05 978.561 232.517 975.684 Q234.003 972.787 234.003 967.013 Q234.003 961.22 232.517 958.343 Q231.05 955.446 228.098 955.446 M228.098 952.437 Q232.818 952.437 235.301 956.18 Q237.802 959.904 237.802 967.013 Q237.802 974.104 235.301 977.846 Q232.818 981.57 228.098 981.57 Q223.377 981.57 220.875 977.846 Q218.393 974.104 218.393 967.013 Q218.393 959.904 220.875 956.18 Q223.377 952.437 228.098 952.437 Z" fill="#000000" fill-rule="nonzero" fill-opacity="1" /><path clip-path="url(#clip510)" d="M169.786 841.827 L177.425 841.827 L177.425 815.462 L169.115 817.129 L169.115 812.869 L177.379 811.203 L182.055 811.203 L182.055 841.827 L189.694 841.827 L189.694 845.763 L169.786 845.763 L169.786 841.827 Z" fill="#000000" fill-rule="nonzero" fill-opacity="1" /><path clip-path="url(#clip510)" d="M209.138 814.281 Q205.527 814.281 203.698 817.846 Q201.893 821.388 201.893 828.517 Q201.893 835.624 203.698 839.189 Q205.527 842.73 209.138 842.73 Q212.772 842.73 214.578 839.189 Q216.406 835.624 216.406 828.517 Q216.406 821.388 214.578 817.846 Q212.772 814.281 209.138 814.281 M209.138 810.578 Q214.948 810.578 218.004 815.184 Q221.082 819.767 221.082 828.517 Q221.082 837.244 218.004 841.851 Q214.948 846.434 209.138 846.434 Q203.328 846.434 200.249 841.851 Q197.194 837.244 197.194 828.517 Q197.194 819.767 200.249 815.184 Q203.328 810.578 209.138 810.578 Z" fill="#000000" fill-rule="nonzero" fill-opacity="1" /><path clip-path="url(#clip510)" d="M221.628 815.155 L227.834 815.155 L227.834 793.733 L221.082 795.087 L221.082 791.626 L227.797 790.272 L231.596 790.272 L231.596 815.155 L237.802 815.155 L237.802 818.352 L221.628 818.352 L221.628 815.155 Z" fill="#000000" fill-rule="nonzero" fill-opacity="1" /><path clip-path="url(#clip510)" d="M168.677 679.155 L176.316 679.155 L176.316 652.789 L168.005 654.456 L168.005 650.197 L176.269 648.53 L180.945 648.53 L180.945 679.155 L188.584 679.155 L188.584 683.09 L168.677 683.09 L168.677 679.155 Z" fill="#000000" fill-rule="nonzero" fill-opacity="1" /><path clip-path="url(#clip510)" d="M208.028 651.609 Q204.417 651.609 202.589 655.173 Q200.783 658.715 200.783 665.845 Q200.783 672.951 202.589 676.516 Q204.417 680.058 208.028 680.058 Q211.663 680.058 213.468 676.516 Q215.297 672.951 215.297 665.845 Q215.297 658.715 213.468 655.173 Q211.663 651.609 208.028 651.609 M208.028 647.905 Q213.838 647.905 216.894 652.511 Q219.973 657.095 219.973 665.845 Q219.973 674.571 216.894 679.178 Q213.838 683.761 208.028 683.761 Q202.218 683.761 199.139 679.178 Q196.084 674.571 196.084 665.845 Q196.084 657.095 199.139 652.511 Q202.218 647.905 208.028 647.905 Z" fill="#000000" fill-rule="nonzero" fill-opacity="1" /><path clip-path="url(#clip510)" d="M224.543 652.482 L237.802 652.482 L237.802 655.68 L219.973 655.68 L219.973 652.482 Q222.136 650.244 225.86 646.483 Q229.602 642.702 230.561 641.611 Q232.386 639.561 233.101 638.151 Q233.834 636.721 233.834 635.348 Q233.834 633.11 232.254 631.7 Q230.693 630.289 228.173 630.289 Q226.386 630.289 224.393 630.91 Q222.418 631.53 220.161 632.79 L220.161 628.954 Q222.455 628.032 224.449 627.562 Q226.443 627.092 228.098 627.092 Q232.461 627.092 235.057 629.273 Q237.652 631.455 237.652 635.104 Q237.652 636.834 236.994 638.395 Q236.354 639.937 234.643 642.044 Q234.173 642.589 231.652 645.204 Q229.132 647.799 224.543 652.482 Z" fill="#000000" fill-rule="nonzero" fill-opacity="1" /><path clip-path="url(#clip510)" d="M168.018 516.482 L175.657 516.482 L175.657 490.116 L167.347 491.783 L167.347 487.524 L175.611 485.857 L180.287 485.857 L180.287 516.482 L187.926 516.482 L187.926 520.417 L168.018 520.417 L168.018 516.482 Z" fill="#000000" fill-rule="nonzero" fill-opacity="1" /><path clip-path="url(#clip510)" d="M207.37 488.936 Q203.759 488.936 201.93 492.501 Q200.125 496.042 200.125 503.172 Q200.125 510.278 201.93 513.843 Q203.759 517.385 207.37 517.385 Q211.004 517.385 212.81 513.843 Q214.639 510.278 214.639 503.172 Q214.639 496.042 212.81 492.501 Q211.004 488.936 207.37 488.936 M207.37 485.232 Q213.18 485.232 216.236 489.839 Q219.314 494.422 219.314 503.172 Q219.314 511.899 216.236 516.505 Q213.18 521.089 207.37 521.089 Q201.56 521.089 198.481 516.505 Q195.426 511.899 195.426 503.172 Q195.426 494.422 198.481 489.839 Q201.56 485.232 207.37 485.232 Z" fill="#000000" fill-rule="nonzero" fill-opacity="1" /><path clip-path="url(#clip510)" d="M232.01 477.867 Q234.737 478.45 236.26 480.293 Q237.802 482.136 237.802 484.844 Q237.802 489.001 234.944 491.277 Q232.085 493.552 226.819 493.552 Q225.051 493.552 223.17 493.195 Q221.308 492.856 219.314 492.16 L219.314 488.493 Q220.894 489.415 222.775 489.885 Q224.656 490.355 226.706 490.355 Q230.279 490.355 232.141 488.944 Q234.022 487.534 234.022 484.844 Q234.022 482.362 232.273 480.97 Q230.543 479.559 227.439 479.559 L224.167 479.559 L224.167 476.437 L227.59 476.437 Q230.392 476.437 231.878 475.328 Q233.364 474.199 233.364 472.093 Q233.364 469.93 231.822 468.782 Q230.298 467.616 227.439 467.616 Q225.878 467.616 224.092 467.955 Q222.305 468.293 220.161 469.008 L220.161 465.623 Q222.324 465.021 224.204 464.72 Q226.104 464.419 227.778 464.419 Q232.104 464.419 234.624 466.394 Q237.144 468.35 237.144 471.698 Q237.144 474.03 235.809 475.647 Q234.473 477.246 232.01 477.867 Z" fill="#000000" fill-rule="nonzero" fill-opacity="1" /><path clip-path="url(#clip510)" d="M166.044 353.809 L173.682 353.809 L173.682 327.444 L165.372 329.11 L165.372 324.851 L173.636 323.185 L178.312 323.185 L178.312 353.809 L185.951 353.809 L185.951 357.745 L166.044 357.745 L166.044 353.809 Z" fill="#000000" fill-rule="nonzero" fill-opacity="1" /><path clip-path="url(#clip510)" d="M205.395 326.263 Q201.784 326.263 199.955 329.828 Q198.15 333.37 198.15 340.499 Q198.15 347.606 199.955 351.171 Q201.784 354.712 205.395 354.712 Q209.029 354.712 210.835 351.171 Q212.664 347.606 212.664 340.499 Q212.664 333.37 210.835 329.828 Q209.029 326.263 205.395 326.263 M205.395 322.56 Q211.205 322.56 214.261 327.166 Q217.34 331.749 217.34 340.499 Q217.34 349.226 214.261 353.833 Q211.205 358.416 205.395 358.416 Q199.585 358.416 196.506 353.833 Q193.451 349.226 193.451 340.499 Q193.451 331.749 196.506 327.166 Q199.585 322.56 205.395 322.56 Z" fill="#000000" fill-rule="nonzero" fill-opacity="1" /><path clip-path="url(#clip510)" d="M230.016 305.564 L220.424 320.554 L230.016 320.554 L230.016 305.564 M229.019 302.254 L233.796 302.254 L233.796 320.554 L237.802 320.554 L237.802 323.714 L233.796 323.714 L233.796 330.334 L230.016 330.334 L230.016 323.714 L217.34 323.714 L217.34 320.046 L229.019 302.254 Z" fill="#000000" fill-rule="nonzero" fill-opacity="1" /><path clip-path="url(#clip510)" d="M168.338 191.137 L175.977 191.137 L175.977 164.771 L167.667 166.438 L167.667 162.179 L175.931 160.512 L180.607 160.512 L180.607 191.137 L188.245 191.137 L188.245 195.072 L168.338 195.072 L168.338 191.137 Z" fill="#000000" fill-rule="nonzero" fill-opacity="1" /><path clip-path="url(#clip510)" d="M207.69 163.591 Q204.079 163.591 202.25 167.155 Q200.444 170.697 200.444 177.827 Q200.444 184.933 202.25 188.498 Q204.079 192.039 207.69 192.039 Q211.324 192.039 213.13 188.498 Q214.958 184.933 214.958 177.827 Q214.958 170.697 213.13 167.155 Q211.324 163.591 207.69 163.591 M207.69 159.887 Q213.5 159.887 216.555 164.493 Q219.634 169.077 219.634 177.827 Q219.634 186.553 216.555 191.16 Q213.5 195.743 207.69 195.743 Q201.88 195.743 198.801 191.16 Q195.745 186.553 195.745 177.827 Q195.745 169.077 198.801 164.493 Q201.88 159.887 207.69 159.887 Z" fill="#000000" fill-rule="nonzero" fill-opacity="1" /><path clip-path="url(#clip510)" d="M220.819 139.581 L235.734 139.581 L235.734 142.779 L224.298 142.779 L224.298 149.662 Q225.126 149.38 225.954 149.249 Q226.781 149.098 227.609 149.098 Q232.311 149.098 235.057 151.675 Q237.802 154.252 237.802 158.653 Q237.802 163.185 234.981 165.705 Q232.16 168.207 227.026 168.207 Q225.258 168.207 223.415 167.906 Q221.59 167.605 219.634 167.003 L219.634 163.185 Q221.327 164.107 223.132 164.558 Q224.938 165.01 226.95 165.01 Q230.204 165.01 232.104 163.298 Q234.003 161.587 234.003 158.653 Q234.003 155.719 232.104 154.007 Q230.204 152.296 226.95 152.296 Q225.427 152.296 223.904 152.634 Q222.399 152.973 220.819 153.687 L220.819 139.581 Z" fill="#000000" fill-rule="nonzero" fill-opacity="1" /><path clip-path="url(#clip510)" d="M67.5963 775.013 L67.5963 768.106 L87.139 754.929 L67.5963 741.847 L67.5963 734.941 L92.4862 751.746 L115.116 751.746 L115.116 758.207 L92.4862 758.207 L67.5963 775.013 Z" fill="#000000" fill-rule="nonzero" fill-opacity="1" /><path clip-path="url(#clip510)" d="M65.6547 694.136 Q72.9753 698.401 80.1367 700.47 Q87.2981 702.539 94.6505 702.539 Q102.003 702.539 109.228 700.47 Q116.421 698.37 123.71 694.136 L123.71 699.229 Q116.23 704.003 109.005 706.39 Q101.78 708.746 94.6505 708.746 Q87.5528 708.746 80.3595 706.39 Q73.1663 704.035 65.6547 699.229 L65.6547 694.136 Z" fill="#000000" fill-rule="nonzero" fill-opacity="1" /><path clip-path="url(#clip510)" d="M65.5911 682.774 L65.5911 676.917 L115.116 676.917 L115.116 682.774 L65.5911 682.774 Z" fill="#000000" fill-rule="nonzero" fill-opacity="1" /><path clip-path="url(#clip510)" d="M83.5742 650.85 Q83.5742 655.56 87.2663 658.298 Q90.9266 661.035 97.3241 661.035 Q103.722 661.035 107.414 658.329 Q111.074 655.592 111.074 650.85 Q111.074 646.171 107.382 643.434 Q103.69 640.696 97.3241 640.696 Q90.9903 640.696 87.2981 643.434 Q83.5742 646.171 83.5742 650.85 M78.609 650.85 Q78.609 643.211 83.5742 638.85 Q88.5395 634.49 97.3241 634.49 Q106.077 634.49 111.074 638.85 Q116.039 643.211 116.039 650.85 Q116.039 658.52 111.074 662.881 Q106.077 667.21 97.3241 667.21 Q88.5395 667.21 83.5742 662.881 Q78.609 658.52 78.609 650.85 Z" fill="#000000" fill-rule="nonzero" fill-opacity="1" /><path clip-path="url(#clip510)" d="M96.8785 601.324 Q90.5128 601.324 87.0117 603.966 Q83.5106 606.576 83.5106 611.319 Q83.5106 616.029 87.0117 618.671 Q90.5128 621.281 96.8785 621.281 Q103.212 621.281 106.714 618.671 Q110.215 616.029 110.215 611.319 Q110.215 606.576 106.714 603.966 Q103.212 601.324 96.8785 601.324 M110.692 595.468 Q119.795 595.468 124.219 599.51 Q128.675 603.552 128.675 611.892 Q128.675 614.979 128.198 617.716 Q127.752 620.453 126.797 623.032 L121.1 623.032 Q122.501 620.453 123.169 617.939 Q123.837 615.425 123.837 612.815 Q123.837 607.054 120.814 604.189 Q117.822 601.324 111.742 601.324 L108.846 601.324 Q111.997 603.139 113.557 605.971 Q115.116 608.804 115.116 612.751 Q115.116 619.308 110.119 623.318 Q105.122 627.328 96.8785 627.328 Q88.6031 627.328 83.606 623.318 Q78.609 619.308 78.609 612.751 Q78.609 608.804 80.1686 605.971 Q81.7282 603.139 84.8792 601.324 L79.4683 601.324 L79.4683 595.468 L110.692 595.468 Z" fill="#000000" fill-rule="nonzero" fill-opacity="1" /><path clip-path="url(#clip510)" d="M80.5187 539.959 L86.0568 539.959 Q84.7837 542.442 84.1471 545.115 Q83.5106 547.789 83.5106 550.653 Q83.5106 555.014 84.8473 557.21 Q86.1841 559.374 88.8577 559.374 Q90.8948 559.374 92.0724 557.815 Q93.2183 556.255 94.2686 551.545 L94.7142 549.539 Q96.051 543.301 98.5018 540.691 Q100.921 538.049 105.281 538.049 Q110.247 538.049 113.143 541.996 Q116.039 545.911 116.039 552.786 Q116.039 555.651 115.466 558.77 Q114.925 561.857 113.811 565.295 L107.764 565.295 Q109.451 562.048 110.31 558.897 Q111.138 555.746 111.138 552.659 Q111.138 548.521 109.737 546.293 Q108.305 544.065 105.727 544.065 Q103.34 544.065 102.067 545.688 Q100.793 547.28 99.6158 552.722 L99.1384 554.759 Q97.9925 560.202 95.6372 562.621 Q93.2501 565.04 89.1124 565.04 Q84.0835 565.04 81.3462 561.475 Q78.609 557.91 78.609 551.354 Q78.609 548.107 79.0864 545.243 Q79.5638 542.378 80.5187 539.959 Z" fill="#000000" fill-rule="nonzero" fill-opacity="1" /><path clip-path="url(#clip510)" d="M80.837 503.07 L86.3115 503.07 Q84.9428 505.552 84.2744 508.067 Q83.5742 510.549 83.5742 513.096 Q83.5742 518.793 87.2027 521.944 Q90.7993 525.095 97.3241 525.095 Q103.849 525.095 107.477 521.944 Q111.074 518.793 111.074 513.096 Q111.074 510.549 110.406 508.067 Q109.705 505.552 108.337 503.07 L113.748 503.07 Q114.893 505.521 115.466 508.162 Q116.039 510.772 116.039 513.732 Q116.039 521.785 110.979 526.527 Q105.918 531.27 97.3241 531.27 Q88.6031 531.27 83.606 526.496 Q78.609 521.689 78.609 513.35 Q78.609 510.645 79.1819 508.067 Q79.723 505.489 80.837 503.07 Z" fill="#000000" fill-rule="nonzero" fill-opacity="1" /><path clip-path="url(#clip510)" d="M97.1968 476.684 Q97.1968 483.782 98.8201 486.519 Q100.443 489.256 104.358 489.256 Q107.477 489.256 109.323 487.219 Q111.138 485.15 111.138 481.617 Q111.138 476.748 107.7 473.819 Q104.231 470.859 98.5018 470.859 L97.1968 470.859 L97.1968 476.684 M94.7779 465.003 L115.116 465.003 L115.116 470.859 L109.705 470.859 Q112.952 472.865 114.512 475.856 Q116.039 478.848 116.039 483.177 Q116.039 488.651 112.984 491.898 Q109.896 495.113 104.74 495.113 Q98.7246 495.113 95.669 491.102 Q92.6135 487.06 92.6135 479.071 L92.6135 470.859 L92.0406 470.859 Q87.9984 470.859 85.8022 473.533 Q83.5742 476.175 83.5742 480.981 Q83.5742 484.036 84.3063 486.933 Q85.0383 489.829 86.5024 492.503 L81.0916 492.503 Q79.8503 489.288 79.2455 486.264 Q78.609 483.241 78.609 480.376 Q78.609 472.642 82.6194 468.822 Q86.6297 465.003 94.7779 465.003 Z" fill="#000000" fill-rule="nonzero" fill-opacity="1" /><path clip-path="url(#clip510)" d="M65.5911 452.94 L65.5911 447.083 L115.116 447.083 L115.116 452.94 L65.5911 452.94 Z" fill="#000000" fill-rule="nonzero" fill-opacity="1" /><path clip-path="url(#clip510)" d="M95.8282 404.338 L98.6928 404.338 L98.6928 431.265 Q104.74 430.883 107.923 427.636 Q111.074 424.358 111.074 418.533 Q111.074 415.159 110.247 412.008 Q109.419 408.826 107.764 405.706 L113.302 405.706 Q114.639 408.857 115.339 412.167 Q116.039 415.478 116.039 418.883 Q116.039 427.413 111.074 432.41 Q106.109 437.376 97.6424 437.376 Q88.8896 437.376 83.7652 432.665 Q78.609 427.923 78.609 419.902 Q78.609 412.709 83.2559 408.539 Q87.8711 404.338 95.8282 404.338 M94.1095 410.194 Q89.3033 410.258 86.4388 412.9 Q83.5742 415.509 83.5742 419.838 Q83.5742 424.74 86.3433 427.7 Q89.1124 430.628 94.1413 431.074 L94.1095 410.194 Z" fill="#000000" fill-rule="nonzero" fill-opacity="1" /><path clip-path="url(#clip510)" d="M65.6547 395.648 L65.6547 390.556 Q73.1663 385.782 80.3595 383.426 Q87.5528 381.039 94.6505 381.039 Q101.78 381.039 109.005 383.426 Q116.23 385.782 123.71 390.556 L123.71 395.648 Q116.421 391.415 109.228 389.346 Q102.003 387.246 94.6505 387.246 Q87.2981 387.246 80.1367 389.346 Q72.9753 391.415 65.6547 395.648 Z" fill="#000000" fill-rule="nonzero" fill-opacity="1" /><path clip-path="url(#clip510)" d="M297.555 12.096 L332.312 12.096 L332.312 18.9825 L305.738 18.9825 L305.738 36.8065 L329.719 36.8065 L329.719 43.6931 L305.738 43.6931 L305.738 72.576 L297.555 72.576 L297.555 12.096 Z" fill="#000000" fill-rule="nonzero" fill-opacity="1" /><path clip-path="url(#clip510)" d="M365.205 34.1734 Q363.949 33.4443 362.45 33.1202 Q360.992 32.7556 359.21 32.7556 Q352.89 32.7556 349.487 36.8875 Q346.125 40.9789 346.125 48.6757 L346.125 72.576 L338.631 72.576 L338.631 27.2059 L346.125 27.2059 L346.125 34.2544 Q348.475 30.1225 352.242 28.1376 Q356.009 26.1121 361.397 26.1121 Q362.167 26.1121 363.098 26.2337 Q364.03 26.3147 365.164 26.5172 L365.205 34.1734 Z" fill="#000000" fill-rule="nonzero" fill-opacity="1" /><path clip-path="url(#clip510)" d="M410.008 48.0275 L410.008 51.6733 L375.737 51.6733 Q376.223 59.3701 380.355 63.421 Q384.528 67.4314 391.941 67.4314 Q396.235 67.4314 400.245 66.3781 Q404.296 65.3249 408.266 63.2184 L408.266 70.267 Q404.256 71.9684 400.043 72.8596 Q395.83 73.7508 391.495 73.7508 Q380.639 73.7508 374.279 67.4314 Q367.96 61.1119 367.96 50.3365 Q367.96 39.1965 373.955 32.6746 Q379.991 26.1121 390.199 26.1121 Q399.354 26.1121 404.661 32.0264 Q410.008 37.9003 410.008 48.0275 M402.554 45.84 Q402.473 39.7232 399.111 36.0774 Q395.789 32.4315 390.28 32.4315 Q384.042 32.4315 380.274 35.9558 Q376.547 39.4801 375.98 45.8805 L402.554 45.84 Z" fill="#000000" fill-rule="nonzero" fill-opacity="1" /><path clip-path="url(#clip510)" d="M426.698 49.9314 Q426.698 58.1548 430.06 62.8538 Q433.463 67.5124 439.377 67.5124 Q445.291 67.5124 448.694 62.8538 Q452.097 58.1548 452.097 49.9314 Q452.097 41.7081 448.694 37.0496 Q445.291 32.3505 439.377 32.3505 Q433.463 32.3505 430.06 37.0496 Q426.698 41.7081 426.698 49.9314 M452.097 65.7705 Q449.747 69.8214 446.142 71.8063 Q442.577 73.7508 437.554 73.7508 Q429.331 73.7508 424.146 67.1883 Q419.001 60.6258 419.001 49.9314 Q419.001 39.2371 424.146 32.6746 Q429.331 26.1121 437.554 26.1121 Q442.577 26.1121 446.142 28.0971 Q449.747 30.0415 452.097 34.0924 L452.097 27.2059 L459.551 27.2059 L459.551 89.8329 L452.097 89.8329 L452.097 65.7705 Z" fill="#000000" fill-rule="nonzero" fill-opacity="1" /><path clip-path="url(#clip510)" d="M474.134 54.671 L474.134 27.2059 L481.587 27.2059 L481.587 54.3874 Q481.587 60.8284 484.099 64.0691 Q486.611 67.2693 491.634 67.2693 Q497.67 67.2693 501.153 63.421 Q504.678 59.5726 504.678 52.9291 L504.678 27.2059 L512.131 27.2059 L512.131 72.576 L504.678 72.576 L504.678 65.6084 Q501.963 69.7404 498.358 71.7658 Q494.793 73.7508 490.054 73.7508 Q482.236 73.7508 478.185 68.8897 Q474.134 64.0286 474.134 54.671 M492.889 26.1121 L492.889 26.1121 Z" fill="#000000" fill-rule="nonzero" fill-opacity="1" /><path clip-path="url(#clip510)" d="M566.292 48.0275 L566.292 51.6733 L532.021 51.6733 Q532.507 59.3701 536.639 63.421 Q540.812 67.4314 548.225 67.4314 Q552.519 67.4314 556.529 66.3781 Q560.58 65.3249 564.55 63.2184 L564.55 70.267 Q560.54 71.9684 556.327 72.8596 Q552.114 73.7508 547.779 73.7508 Q536.923 73.7508 530.563 67.4314 Q524.243 61.1119 524.243 50.3365 Q524.243 39.1965 530.239 32.6746 Q536.275 26.1121 546.483 26.1121 Q555.638 26.1121 560.945 32.0264 Q566.292 37.9003 566.292 48.0275 M558.838 45.84 Q558.757 39.7232 555.395 36.0774 Q552.073 32.4315 546.564 32.4315 Q540.326 32.4315 536.558 35.9558 Q532.831 39.4801 532.264 45.8805 L558.838 45.84 Z" fill="#000000" fill-rule="nonzero" fill-opacity="1" /><path clip-path="url(#clip510)" d="M616.239 45.1919 L616.239 72.576 L608.786 72.576 L608.786 45.4349 Q608.786 38.994 606.274 35.7938 Q603.763 32.5936 598.74 32.5936 Q592.704 32.5936 589.22 36.4419 Q585.736 40.2903 585.736 46.9338 L585.736 72.576 L578.242 72.576 L578.242 27.2059 L585.736 27.2059 L585.736 34.2544 Q588.41 30.163 592.015 28.1376 Q595.661 26.1121 600.4 26.1121 Q608.219 26.1121 612.229 30.9732 Q616.239 35.7938 616.239 45.1919 Z" fill="#000000" fill-rule="nonzero" fill-opacity="1" /><path clip-path="url(#clip510)" d="M638.479 14.324 L638.479 27.2059 L653.832 27.2059 L653.832 32.9987 L638.479 32.9987 L638.479 57.6282 Q638.479 63.1779 639.978 64.7578 Q641.517 66.3376 646.176 66.3376 L653.832 66.3376 L653.832 72.576 L646.176 72.576 Q637.547 72.576 634.266 69.3758 Q630.985 66.1351 630.985 57.6282 L630.985 32.9987 L625.516 32.9987 L625.516 27.2059 L630.985 27.2059 L630.985 14.324 L638.479 14.324 Z" fill="#000000" fill-rule="nonzero" fill-opacity="1" /><path clip-path="url(#clip510)" d="M663.635 27.2059 L671.089 27.2059 L671.089 72.576 L663.635 72.576 L663.635 27.2059 M663.635 9.54393 L671.089 9.54393 L671.089 18.9825 L663.635 18.9825 L663.635 9.54393 Z" fill="#000000" fill-rule="nonzero" fill-opacity="1" /><path clip-path="url(#clip510)" d="M715.608 28.5427 L715.608 35.5912 Q712.448 33.9709 709.046 33.1607 Q705.643 32.3505 701.997 32.3505 Q696.447 32.3505 693.652 34.0519 Q690.898 35.7533 690.898 39.156 Q690.898 41.7486 692.883 43.2475 Q694.868 44.7058 700.863 46.0426 L703.415 46.6097 Q711.355 48.3111 714.676 51.4303 Q718.039 54.509 718.039 60.0587 Q718.039 66.3781 713.016 70.0644 Q708.033 73.7508 699.283 73.7508 Q695.637 73.7508 691.667 73.0216 Q687.738 72.3329 683.363 70.9151 L683.363 63.2184 Q687.495 65.3654 691.505 66.4591 Q695.516 67.5124 699.445 67.5124 Q704.711 67.5124 707.547 65.73 Q710.382 63.9071 710.382 60.6258 Q710.382 57.5877 708.317 55.9673 Q706.291 54.3469 699.364 52.8481 L696.771 52.2405 Q689.844 50.7821 686.766 47.7845 Q683.687 44.7463 683.687 39.4801 Q683.687 33.0797 688.224 29.5959 Q692.761 26.1121 701.106 26.1121 Q705.238 26.1121 708.884 26.7198 Q712.529 27.3274 715.608 28.5427 Z" fill="#000000" fill-rule="nonzero" fill-opacity="1" /><path clip-path="url(#clip510)" d="M737.281 14.324 L737.281 27.2059 L752.633 27.2059 L752.633 32.9987 L737.281 32.9987 L737.281 57.6282 Q737.281 63.1779 738.779 64.7578 Q740.319 66.3376 744.977 66.3376 L752.633 66.3376 L752.633 72.576 L744.977 72.576 Q736.349 72.576 733.068 69.3758 Q729.786 66.1351 729.786 57.6282 L729.786 32.9987 L724.318 32.9987 L724.318 27.2059 L729.786 27.2059 L729.786 14.324 L737.281 14.324 Z" fill="#000000" fill-rule="nonzero" fill-opacity="1" /><path clip-path="url(#clip510)" d="M790.104 71.3202 L790.104 63.8666 Q793.183 65.3249 796.343 66.0946 Q799.502 66.8642 802.541 66.8642 Q810.642 66.8642 814.896 61.436 Q819.19 55.9673 819.797 44.8678 Q817.448 48.3516 813.843 50.215 Q810.237 52.0784 805.862 52.0784 Q796.788 52.0784 791.482 46.6097 Q786.215 41.1005 786.215 31.5808 Q786.215 22.2638 791.725 16.633 Q797.234 11.0023 806.389 11.0023 Q816.881 11.0023 822.39 19.0636 Q827.94 27.0843 827.94 42.3968 Q827.94 56.6965 821.134 65.2439 Q814.369 73.7508 802.905 73.7508 Q799.826 73.7508 796.667 73.1431 Q793.507 72.5355 790.104 71.3202 M806.389 45.678 Q811.898 45.678 815.098 41.9107 Q818.339 38.1433 818.339 31.5808 Q818.339 25.0589 815.098 21.2916 Q811.898 17.4837 806.389 17.4837 Q800.88 17.4837 797.639 21.2916 Q794.439 25.0589 794.439 31.5808 Q794.439 38.1433 797.639 41.9107 Q800.88 45.678 806.389 45.678 Z" fill="#000000" fill-rule="nonzero" fill-opacity="1" /><path clip-path="url(#clip510)" d="M842.726 12.096 L874.849 12.096 L874.849 18.9825 L850.22 18.9825 L850.22 33.8088 Q852.002 33.2012 853.785 32.9176 Q855.567 32.5936 857.349 32.5936 Q867.477 32.5936 873.391 38.1433 Q879.305 43.6931 879.305 53.1722 Q879.305 62.9348 873.229 68.3631 Q867.152 73.7508 856.094 73.7508 Q852.286 73.7508 848.316 73.1026 Q844.386 72.4545 840.173 71.1582 L840.173 62.9348 Q843.819 64.9198 847.708 65.892 Q851.597 66.8642 855.931 66.8642 Q862.94 66.8642 867.031 63.1779 Q871.122 59.4916 871.122 53.1722 Q871.122 46.8528 867.031 43.1664 Q862.94 39.4801 855.931 39.4801 Q852.65 39.4801 849.369 40.2093 Q846.128 40.9384 842.726 42.4778 L842.726 12.096 Z" fill="#000000" fill-rule="nonzero" fill-opacity="1" /><path clip-path="url(#clip510)" d="M946.874 45.9616 Q943.35 45.9616 941.325 48.9592 Q939.34 51.9569 939.34 57.3041 Q939.34 62.5703 941.325 65.6084 Q943.35 68.6061 946.874 68.6061 Q950.318 68.6061 952.302 65.6084 Q954.328 62.5703 954.328 57.3041 Q954.328 51.9974 952.302 48.9997 Q950.318 45.9616 946.874 45.9616 M946.874 40.8169 Q953.275 40.8169 957.042 45.2729 Q960.809 49.7289 960.809 57.3041 Q960.809 64.8793 957.002 69.3353 Q953.234 73.7508 946.874 73.7508 Q940.393 73.7508 936.625 69.3353 Q932.858 64.8793 932.858 57.3041 Q932.858 49.6884 936.625 45.2729 Q940.433 40.8169 946.874 40.8169 M905.069 16.1469 Q901.585 16.1469 899.56 19.1851 Q897.575 22.1828 897.575 27.4489 Q897.575 32.7961 899.56 35.7938 Q901.545 38.7915 905.069 38.7915 Q908.593 38.7915 910.578 35.7938 Q912.604 32.7961 912.604 27.4489 Q912.604 22.2233 910.578 19.1851 Q908.553 16.1469 905.069 16.1469 M941.649 11.0023 L948.13 11.0023 L910.295 73.7508 L903.813 73.7508 L941.649 11.0023 M905.069 11.0023 Q911.469 11.0023 915.277 15.4583 Q919.085 19.8737 919.085 27.4489 Q919.085 35.1051 915.277 39.5206 Q911.51 43.9361 905.069 43.9361 Q898.628 43.9361 894.861 39.5206 Q891.134 35.0646 891.134 27.4489 Q891.134 19.9142 894.901 15.4583 Q898.669 11.0023 905.069 11.0023 Z" fill="#000000" fill-rule="nonzero" fill-opacity="1" /><path clip-path="url(#clip510)" d="M1045.19 16.7545 L1045.19 25.383 Q1041.06 21.5346 1036.36 19.6307 Q1031.7 17.7268 1026.43 17.7268 Q1016.06 17.7268 1010.55 24.0867 Q1005.05 30.4061 1005.05 42.3968 Q1005.05 54.3469 1010.55 60.7069 Q1016.06 67.0263 1026.43 67.0263 Q1031.7 67.0263 1036.36 65.1223 Q1041.06 63.2184 1045.19 59.3701 L1045.19 67.9175 Q1040.9 70.8341 1036.08 72.2924 Q1031.3 73.7508 1025.95 73.7508 Q1012.22 73.7508 1004.32 65.3654 Q996.417 56.9395 996.417 42.3968 Q996.417 27.8135 1004.32 19.4281 Q1012.22 11.0023 1025.95 11.0023 Q1031.38 11.0023 1036.16 12.4606 Q1040.98 13.8784 1045.19 16.7545 Z" fill="#000000" fill-rule="nonzero" fill-opacity="1" /><path clip-path="url(#clip510)" d="M1057.83 12.096 L1066.01 12.096 L1066.01 72.576 L1057.83 72.576 L1057.83 12.096 Z" fill="#000000" fill-rule="nonzero" fill-opacity="1" /><polyline clip-path="url(#clip512)" style="stroke:#000000; stroke-linecap:round; stroke-linejoin:round; stroke-width:8; stroke-opacity:1; fill:none" points="382.597,818.01 382.597,791.288 "/>
<polyline clip-path="url(#clip512)" style="stroke:#000000; stroke-linecap:round; stroke-linejoin:round; stroke-width:8; stroke-opacity:1; fill:none" points="378.971,818.01 386.224,818.01 "/>
<polyline clip-path="url(#clip512)" style="stroke:#000000; stroke-linecap:round; stroke-linejoin:round; stroke-width:8; stroke-opacity:1; fill:none" points="378.971,791.288 386.224,791.288 "/>
<polyline clip-path="url(#clip512)" style="stroke:#000000; stroke-linecap:round; stroke-linejoin:round; stroke-width:8; stroke-opacity:1; fill:none" points="436.995,417.922 436.995,354.587 "/>
<polyline clip-path="url(#clip512)" style="stroke:#000000; stroke-linecap:round; stroke-linejoin:round; stroke-width:8; stroke-opacity:1; fill:none" points="433.368,417.922 440.621,417.922 "/>
<polyline clip-path="url(#clip512)" style="stroke:#000000; stroke-linecap:round; stroke-linejoin:round; stroke-width:8; stroke-opacity:1; fill:none" points="433.368,354.587 440.621,354.587 "/>
<polyline clip-path="url(#clip512)" style="stroke:#000000; stroke-linecap:round; stroke-linejoin:round; stroke-width:8; stroke-opacity:1; fill:none" points="654.584,827.508 654.584,805.994 "/>
<polyline clip-path="url(#clip512)" style="stroke:#000000; stroke-linecap:round; stroke-linejoin:round; stroke-width:8; stroke-opacity:1; fill:none" points="650.958,827.508 658.211,827.508 "/>
<polyline clip-path="url(#clip512)" style="stroke:#000000; stroke-linecap:round; stroke-linejoin:round; stroke-width:8; stroke-opacity:1; fill:none" points="650.958,805.994 658.211,805.994 "/>
<polyline clip-path="url(#clip512)" style="stroke:#000000; stroke-linecap:round; stroke-linejoin:round; stroke-width:8; stroke-opacity:1; fill:none" points="708.982,399.56 708.982,384.407 "/>
<polyline clip-path="url(#clip512)" style="stroke:#000000; stroke-linecap:round; stroke-linejoin:round; stroke-width:8; stroke-opacity:1; fill:none" points="705.355,399.56 712.608,399.56 "/>
<polyline clip-path="url(#clip512)" style="stroke:#000000; stroke-linecap:round; stroke-linejoin:round; stroke-width:8; stroke-opacity:1; fill:none" points="705.355,384.407 712.608,384.407 "/>
<polyline clip-path="url(#clip512)" style="stroke:#000000; stroke-linecap:round; stroke-linejoin:round; stroke-width:8; stroke-opacity:1; fill:none" points="926.572,833.562 926.572,805.75 "/>
<polyline clip-path="url(#clip512)" style="stroke:#000000; stroke-linecap:round; stroke-linejoin:round; stroke-width:8; stroke-opacity:1; fill:none" points="922.945,833.562 930.198,833.562 "/>
<polyline clip-path="url(#clip512)" style="stroke:#000000; stroke-linecap:round; stroke-linejoin:round; stroke-width:8; stroke-opacity:1; fill:none" points="922.945,805.75 930.198,805.75 "/>
<polyline clip-path="url(#clip512)" style="stroke:#000000; stroke-linecap:round; stroke-linejoin:round; stroke-width:8; stroke-opacity:1; fill:none" points="980.969,400.226 980.969,379.892 "/>
<polyline clip-path="url(#clip512)" style="stroke:#000000; stroke-linecap:round; stroke-linejoin:round; stroke-width:8; stroke-opacity:1; fill:none" points="977.342,400.226 984.595,400.226 "/>
<polyline clip-path="url(#clip512)" style="stroke:#000000; stroke-linecap:round; stroke-linejoin:round; stroke-width:8; stroke-opacity:1; fill:none" points="977.342,379.892 984.595,379.892 "/>
<circle clip-path="url(#clip512)" cx="382.597" cy="809.753" r="6.48" fill="#ffffff" fill-rule="evenodd" fill-opacity="1" stroke="#0000ff" stroke-opacity="1" stroke-width="4.8"/>
<circle clip-path="url(#clip512)" cx="382.597" cy="791.149" r="6.48" fill="#ffffff" fill-rule="evenodd" fill-opacity="1" stroke="#0000ff" stroke-opacity="1" stroke-width="4.8"/>
<circle clip-path="url(#clip512)" cx="382.597" cy="813.046" r="6.48" fill="#ffffff" fill-rule="evenodd" fill-opacity="1" stroke="#0000ff" stroke-opacity="1" stroke-width="4.8"/>
<circle clip-path="url(#clip512)" cx="654.584" cy="806.861" r="6.48" fill="#ffffff" fill-rule="evenodd" fill-opacity="1" stroke="#0000ff" stroke-opacity="1" stroke-width="4.8"/>
<circle clip-path="url(#clip512)" cx="654.584" cy="817.573" r="6.48" fill="#ffffff" fill-rule="evenodd" fill-opacity="1" stroke="#0000ff" stroke-opacity="1" stroke-width="4.8"/>
<circle clip-path="url(#clip512)" cx="654.584" cy="825.819" r="6.48" fill="#ffffff" fill-rule="evenodd" fill-opacity="1" stroke="#0000ff" stroke-opacity="1" stroke-width="4.8"/>
<circle clip-path="url(#clip512)" cx="926.572" cy="820.071" r="6.48" fill="#ffffff" fill-rule="evenodd" fill-opacity="1" stroke="#0000ff" stroke-opacity="1" stroke-width="4.8"/>
<circle clip-path="url(#clip512)" cx="926.572" cy="807.165" r="6.48" fill="#ffffff" fill-rule="evenodd" fill-opacity="1" stroke="#0000ff" stroke-opacity="1" stroke-width="4.8"/>
<circle clip-path="url(#clip512)" cx="926.572" cy="831.733" r="6.48" fill="#ffffff" fill-rule="evenodd" fill-opacity="1" stroke="#0000ff" stroke-opacity="1" stroke-width="4.8"/>
<circle clip-path="url(#clip512)" cx="436.995" cy="359.633" r="6.48" fill="#ffffff" fill-rule="evenodd" fill-opacity="1" stroke="#ff0000" stroke-opacity="1" stroke-width="4.8"/>
<circle clip-path="url(#clip512)" cx="436.995" cy="415.427" r="6.48" fill="#ffffff" fill-rule="evenodd" fill-opacity="1" stroke="#ff0000" stroke-opacity="1" stroke-width="4.8"/>
<circle clip-path="url(#clip512)" cx="436.995" cy="383.703" r="6.48" fill="#ffffff" fill-rule="evenodd" fill-opacity="1" stroke="#ff0000" stroke-opacity="1" stroke-width="4.8"/>
<circle clip-path="url(#clip512)" cx="708.982" cy="395.865" r="6.48" fill="#ffffff" fill-rule="evenodd" fill-opacity="1" stroke="#ff0000" stroke-opacity="1" stroke-width="4.8"/>
<circle clip-path="url(#clip512)" cx="708.982" cy="395.833" r="6.48" fill="#ffffff" fill-rule="evenodd" fill-opacity="1" stroke="#ff0000" stroke-opacity="1" stroke-width="4.8"/>
<circle clip-path="url(#clip512)" cx="708.982" cy="384.253" r="6.48" fill="#ffffff" fill-rule="evenodd" fill-opacity="1" stroke="#ff0000" stroke-opacity="1" stroke-width="4.8"/>
<circle clip-path="url(#clip512)" cx="980.969" cy="396.347" r="6.48" fill="#ffffff" fill-rule="evenodd" fill-opacity="1" stroke="#ff0000" stroke-opacity="1" stroke-width="4.8"/>
<circle clip-path="url(#clip512)" cx="980.969" cy="379.769" r="6.48" fill="#ffffff" fill-rule="evenodd" fill-opacity="1" stroke="#ff0000" stroke-opacity="1" stroke-width="4.8"/>
<circle clip-path="url(#clip512)" cx="980.969" cy="394.062" r="6.48" fill="#ffffff" fill-rule="evenodd" fill-opacity="1" stroke="#ff0000" stroke-opacity="1" stroke-width="4.8"/>
<path clip-path="url(#clip510)" d="M1473.8 984.708 L2289.76 984.708 L2289.76 171.344 L1473.8 171.344  Z" fill="#ffffff" fill-rule="evenodd" fill-opacity="1"/>
<defs>
  <clipPath id="clip513">
    <rect x="1473" y="171" width="817" height="814"/>
  </clipPath>
</defs>
<polyline clip-path="url(#clip513)" style="stroke:#000000; stroke-linecap:round; stroke-linejoin:round; stroke-width:2; stroke-opacity:0.1; fill:none" points="1609.8,984.708 1609.8,171.344 "/>
<polyline clip-path="url(#clip513)" style="stroke:#000000; stroke-linecap:round; stroke-linejoin:round; stroke-width:2; stroke-opacity:0.1; fill:none" points="1881.78,984.708 1881.78,171.344 "/>
<polyline clip-path="url(#clip513)" style="stroke:#000000; stroke-linecap:round; stroke-linejoin:round; stroke-width:2; stroke-opacity:0.1; fill:none" points="2153.77,984.708 2153.77,171.344 "/>
<polyline clip-path="url(#clip513)" style="stroke:#000000; stroke-linecap:round; stroke-linejoin:round; stroke-width:2; stroke-opacity:0.1; fill:none" points="1473.8,984.708 2289.76,984.708 "/>
<polyline clip-path="url(#clip513)" style="stroke:#000000; stroke-linecap:round; stroke-linejoin:round; stroke-width:2; stroke-opacity:0.1; fill:none" points="1473.8,822.035 2289.76,822.035 "/>
<polyline clip-path="url(#clip513)" style="stroke:#000000; stroke-linecap:round; stroke-linejoin:round; stroke-width:2; stroke-opacity:0.1; fill:none" points="1473.8,659.362 2289.76,659.362 "/>
<polyline clip-path="url(#clip513)" style="stroke:#000000; stroke-linecap:round; stroke-linejoin:round; stroke-width:2; stroke-opacity:0.1; fill:none" points="1473.8,496.69 2289.76,496.69 "/>
<polyline clip-path="url(#clip513)" style="stroke:#000000; stroke-linecap:round; stroke-linejoin:round; stroke-width:2; stroke-opacity:0.1; fill:none" points="1473.8,334.017 2289.76,334.017 "/>
<polyline clip-path="url(#clip513)" style="stroke:#000000; stroke-linecap:round; stroke-linejoin:round; stroke-width:2; stroke-opacity:0.1; fill:none" points="1473.8,171.344 2289.76,171.344 "/>
<polyline clip-path="url(#clip510)" style="stroke:#000000; stroke-linecap:round; stroke-linejoin:round; stroke-width:4; stroke-opacity:1; fill:none" points="1473.8,984.708 2289.76,984.708 "/>
<polyline clip-path="url(#clip510)" style="stroke:#000000; stroke-linecap:round; stroke-linejoin:round; stroke-width:4; stroke-opacity:1; fill:none" points="1609.8,984.708 1609.8,965.81 "/>
<polyline clip-path="url(#clip510)" style="stroke:#000000; stroke-linecap:round; stroke-linejoin:round; stroke-width:4; stroke-opacity:1; fill:none" points="1881.78,984.708 1881.78,965.81 "/>
<polyline clip-path="url(#clip510)" style="stroke:#000000; stroke-linecap:round; stroke-linejoin:round; stroke-width:4; stroke-opacity:1; fill:none" points="2153.77,984.708 2153.77,965.81 "/>
<path clip-path="url(#clip510)" d="M1600.18 1043.17 L1607.82 1043.17 L1607.82 1016.81 L1599.51 1018.47 L1599.51 1014.21 L1607.77 1012.55 L1612.45 1012.55 L1612.45 1043.17 L1620.09 1043.17 L1620.09 1047.11 L1600.18 1047.11 L1600.18 1043.17 Z" fill="#000000" fill-rule="nonzero" fill-opacity="1" /><path clip-path="url(#clip510)" d="M1876.44 1043.17 L1892.76 1043.17 L1892.76 1047.11 L1870.81 1047.11 L1870.81 1043.17 Q1873.47 1040.42 1878.06 1035.79 Q1882.66 1031.14 1883.84 1029.79 Q1886.09 1027.27 1886.97 1025.53 Q1887.87 1023.77 1887.87 1022.08 Q1887.87 1019.33 1885.93 1017.59 Q1884.01 1015.86 1880.9 1015.86 Q1878.7 1015.86 1876.25 1016.62 Q1873.82 1017.39 1871.04 1018.94 L1871.04 1014.21 Q1873.87 1013.08 1876.32 1012.5 Q1878.77 1011.92 1880.81 1011.92 Q1886.18 1011.92 1889.38 1014.61 Q1892.57 1017.29 1892.57 1021.78 Q1892.57 1023.91 1891.76 1025.83 Q1890.97 1027.73 1888.87 1030.33 Q1888.29 1031 1885.19 1034.21 Q1882.08 1037.41 1876.44 1043.17 Z" fill="#000000" fill-rule="nonzero" fill-opacity="1" /><path clip-path="url(#clip510)" d="M2158.02 1028.47 Q2161.37 1029.19 2163.25 1031.46 Q2165.15 1033.73 2165.15 1037.06 Q2165.15 1042.18 2161.63 1044.98 Q2158.11 1047.78 2151.63 1047.78 Q2149.45 1047.78 2147.14 1047.34 Q2144.85 1046.92 2142.39 1046.07 L2142.39 1041.55 Q2144.34 1042.69 2146.65 1043.27 Q2148.97 1043.84 2151.49 1043.84 Q2155.89 1043.84 2158.18 1042.11 Q2160.49 1040.37 2160.49 1037.06 Q2160.49 1034.01 2158.34 1032.29 Q2156.21 1030.56 2152.39 1030.56 L2148.37 1030.56 L2148.37 1026.71 L2152.58 1026.71 Q2156.03 1026.71 2157.86 1025.35 Q2159.68 1023.96 2159.68 1021.37 Q2159.68 1018.71 2157.79 1017.29 Q2155.91 1015.86 2152.39 1015.86 Q2150.47 1015.86 2148.27 1016.27 Q2146.07 1016.69 2143.43 1017.57 L2143.43 1013.4 Q2146.1 1012.66 2148.41 1012.29 Q2150.75 1011.92 2152.81 1011.92 Q2158.13 1011.92 2161.24 1014.35 Q2164.34 1016.76 2164.34 1020.88 Q2164.34 1023.75 2162.69 1025.74 Q2161.05 1027.71 2158.02 1028.47 Z" fill="#000000" fill-rule="nonzero" fill-opacity="1" /><path clip-path="url(#clip510)" d="M1764.46 1082.05 L1771.37 1082.05 L1783.18 1099.72 L1795.05 1082.05 L1801.96 1082.05 L1786.68 1104.87 L1802.98 1129.57 L1796.07 1129.57 L1782.7 1109.36 L1769.24 1129.57 L1762.3 1129.57 L1779.26 1104.2 L1764.46 1082.05 Z" fill="#000000" fill-rule="nonzero" fill-opacity="1" /><path clip-path="url(#clip510)" d="M1844.38 1129.57 L1826.24 1082.05 L1832.96 1082.05 L1848.01 1122.06 L1863.1 1082.05 L1869.78 1082.05 L1851.67 1129.57 L1844.38 1129.57 Z" fill="#000000" fill-rule="nonzero" fill-opacity="1" /><path clip-path="url(#clip510)" d="M1887.61 1111.65 Q1880.51 1111.65 1877.77 1113.28 Q1875.04 1114.9 1875.04 1118.81 Q1875.04 1121.93 1877.07 1123.78 Q1879.14 1125.59 1882.67 1125.59 Q1887.54 1125.59 1890.47 1122.16 Q1893.43 1118.69 1893.43 1112.96 L1893.43 1111.65 L1887.61 1111.65 M1899.29 1109.23 L1899.29 1129.57 L1893.43 1129.57 L1893.43 1124.16 Q1891.43 1127.41 1888.44 1128.97 Q1885.44 1130.49 1881.11 1130.49 Q1875.64 1130.49 1872.39 1127.44 Q1869.18 1124.35 1869.18 1119.2 Q1869.18 1113.18 1873.19 1110.12 Q1877.23 1107.07 1885.22 1107.07 L1893.43 1107.07 L1893.43 1106.5 Q1893.43 1102.45 1890.76 1100.26 Q1888.12 1098.03 1883.31 1098.03 Q1880.26 1098.03 1877.36 1098.76 Q1874.46 1099.49 1871.79 1100.96 L1871.79 1095.55 Q1875 1094.31 1878.03 1093.7 Q1881.05 1093.06 1883.92 1093.06 Q1891.65 1093.06 1895.47 1097.07 Q1899.29 1101.09 1899.29 1109.23 Z" fill="#000000" fill-rule="nonzero" fill-opacity="1" /><path clip-path="url(#clip510)" d="M1911.35 1080.05 L1917.21 1080.05 L1917.21 1129.57 L1911.35 1129.57 L1911.35 1080.05 Z" fill="#000000" fill-rule="nonzero" fill-opacity="1" /><path clip-path="url(#clip510)" d="M1928.86 1115.5 L1928.86 1093.92 L1934.71 1093.92 L1934.71 1115.28 Q1934.71 1120.34 1936.69 1122.89 Q1938.66 1125.4 1942.61 1125.4 Q1947.35 1125.4 1950.09 1122.38 Q1952.86 1119.35 1952.86 1114.13 L1952.86 1093.92 L1958.71 1093.92 L1958.71 1129.57 L1952.86 1129.57 L1952.86 1124.1 Q1950.72 1127.34 1947.89 1128.94 Q1945.09 1130.49 1941.37 1130.49 Q1935.22 1130.49 1932.04 1126.68 Q1928.86 1122.86 1928.86 1115.5 M1943.59 1093.06 L1943.59 1093.06 Z" fill="#000000" fill-rule="nonzero" fill-opacity="1" /><path clip-path="url(#clip510)" d="M2001.27 1110.28 L2001.27 1113.15 L1974.34 1113.15 Q1974.72 1119.2 1977.97 1122.38 Q1981.25 1125.53 1987.07 1125.53 Q1990.45 1125.53 1993.6 1124.7 Q1996.78 1123.87 1999.9 1122.22 L1999.9 1127.76 Q1996.75 1129.09 1993.44 1129.79 Q1990.13 1130.49 1986.72 1130.49 Q1978.19 1130.49 1973.19 1125.53 Q1968.23 1120.56 1968.23 1112.1 Q1968.23 1103.35 1972.94 1098.22 Q1977.68 1093.06 1985.7 1093.06 Q1992.9 1093.06 1997.07 1097.71 Q2001.27 1102.33 2001.27 1110.28 M1995.41 1108.56 Q1995.35 1103.76 1992.71 1100.89 Q1990.1 1098.03 1985.77 1098.03 Q1980.87 1098.03 1977.91 1100.8 Q1974.98 1103.57 1974.53 1108.6 L1995.41 1108.56 Z" fill="#000000" fill-rule="nonzero" fill-opacity="1" /><polyline clip-path="url(#clip510)" style="stroke:#000000; stroke-linecap:round; stroke-linejoin:round; stroke-width:4; stroke-opacity:1; fill:none" points="1473.8,984.708 1473.8,171.344 "/>
<polyline clip-path="url(#clip510)" style="stroke:#000000; stroke-linecap:round; stroke-linejoin:round; stroke-width:4; stroke-opacity:1; fill:none" points="1473.8,984.708 1492.7,984.708 "/>
<polyline clip-path="url(#clip510)" style="stroke:#000000; stroke-linecap:round; stroke-linejoin:round; stroke-width:4; stroke-opacity:1; fill:none" points="1473.8,822.035 1492.7,822.035 "/>
<polyline clip-path="url(#clip510)" style="stroke:#000000; stroke-linecap:round; stroke-linejoin:round; stroke-width:4; stroke-opacity:1; fill:none" points="1473.8,659.362 1492.7,659.362 "/>
<polyline clip-path="url(#clip510)" style="stroke:#000000; stroke-linecap:round; stroke-linejoin:round; stroke-width:4; stroke-opacity:1; fill:none" points="1473.8,496.69 1492.7,496.69 "/>
<polyline clip-path="url(#clip510)" style="stroke:#000000; stroke-linecap:round; stroke-linejoin:round; stroke-width:4; stroke-opacity:1; fill:none" points="1473.8,334.017 1492.7,334.017 "/>
<polyline clip-path="url(#clip510)" style="stroke:#000000; stroke-linecap:round; stroke-linejoin:round; stroke-width:4; stroke-opacity:1; fill:none" points="1473.8,171.344 1492.7,171.344 "/>
<path clip-path="url(#clip510)" d="M1367.1 1004.5 L1374.74 1004.5 L1374.74 978.135 L1366.43 979.801 L1366.43 975.542 L1374.69 973.875 L1379.37 973.875 L1379.37 1004.5 L1387 1004.5 L1387 1008.44 L1367.1 1008.44 L1367.1 1004.5 Z" fill="#000000" fill-rule="nonzero" fill-opacity="1" /><path clip-path="url(#clip510)" d="M1406.45 976.954 Q1402.84 976.954 1401.01 980.519 Q1399.2 984.06 1399.2 991.19 Q1399.2 998.296 1401.01 1001.86 Q1402.84 1005.4 1406.45 1005.4 Q1410.08 1005.4 1411.89 1001.86 Q1413.72 998.296 1413.72 991.19 Q1413.72 984.06 1411.89 980.519 Q1410.08 976.954 1406.45 976.954 M1406.45 973.25 Q1412.26 973.25 1415.31 977.857 Q1418.39 982.44 1418.39 991.19 Q1418.39 999.917 1415.31 1004.52 Q1412.26 1009.11 1406.45 1009.11 Q1400.64 1009.11 1397.56 1004.52 Q1394.5 999.917 1394.5 991.19 Q1394.5 982.44 1397.56 977.857 Q1400.64 973.25 1406.45 973.25 Z" fill="#000000" fill-rule="nonzero" fill-opacity="1" /><path clip-path="url(#clip510)" d="M1428.1 955.446 Q1425.16 955.446 1423.68 958.343 Q1422.21 961.22 1422.21 967.013 Q1422.21 972.787 1423.68 975.684 Q1425.16 978.561 1428.1 978.561 Q1431.05 978.561 1432.52 975.684 Q1434 972.787 1434 967.013 Q1434 961.22 1432.52 958.343 Q1431.05 955.446 1428.1 955.446 M1428.1 952.437 Q1432.82 952.437 1435.3 956.18 Q1437.8 959.904 1437.8 967.013 Q1437.8 974.104 1435.3 977.846 Q1432.82 981.57 1428.1 981.57 Q1423.38 981.57 1420.88 977.846 Q1418.39 974.104 1418.39 967.013 Q1418.39 959.904 1420.88 956.18 Q1423.38 952.437 1428.1 952.437 Z" fill="#000000" fill-rule="nonzero" fill-opacity="1" /><path clip-path="url(#clip510)" d="M1369.79 841.827 L1377.43 841.827 L1377.43 815.462 L1369.12 817.129 L1369.12 812.869 L1377.38 811.203 L1382.05 811.203 L1382.05 841.827 L1389.69 841.827 L1389.69 845.763 L1369.79 845.763 L1369.79 841.827 Z" fill="#000000" fill-rule="nonzero" fill-opacity="1" /><path clip-path="url(#clip510)" d="M1409.14 814.281 Q1405.53 814.281 1403.7 817.846 Q1401.89 821.388 1401.89 828.517 Q1401.89 835.624 1403.7 839.189 Q1405.53 842.73 1409.14 842.73 Q1412.77 842.73 1414.58 839.189 Q1416.41 835.624 1416.41 828.517 Q1416.41 821.388 1414.58 817.846 Q1412.77 814.281 1409.14 814.281 M1409.14 810.578 Q1414.95 810.578 1418 815.184 Q1421.08 819.767 1421.08 828.517 Q1421.08 837.244 1418 841.851 Q1414.95 846.434 1409.14 846.434 Q1403.33 846.434 1400.25 841.851 Q1397.19 837.244 1397.19 828.517 Q1397.19 819.767 1400.25 815.184 Q1403.33 810.578 1409.14 810.578 Z" fill="#000000" fill-rule="nonzero" fill-opacity="1" /><path clip-path="url(#clip510)" d="M1421.63 815.155 L1427.83 815.155 L1427.83 793.733 L1421.08 795.087 L1421.08 791.626 L1427.8 790.272 L1431.6 790.272 L1431.6 815.155 L1437.8 815.155 L1437.8 818.352 L1421.63 818.352 L1421.63 815.155 Z" fill="#000000" fill-rule="nonzero" fill-opacity="1" /><path clip-path="url(#clip510)" d="M1368.68 679.155 L1376.32 679.155 L1376.32 652.789 L1368.01 654.456 L1368.01 650.197 L1376.27 648.53 L1380.95 648.53 L1380.95 679.155 L1388.58 679.155 L1388.58 683.09 L1368.68 683.09 L1368.68 679.155 Z" fill="#000000" fill-rule="nonzero" fill-opacity="1" /><path clip-path="url(#clip510)" d="M1408.03 651.609 Q1404.42 651.609 1402.59 655.173 Q1400.78 658.715 1400.78 665.845 Q1400.78 672.951 1402.59 676.516 Q1404.42 680.058 1408.03 680.058 Q1411.66 680.058 1413.47 676.516 Q1415.3 672.951 1415.3 665.845 Q1415.3 658.715 1413.47 655.173 Q1411.66 651.609 1408.03 651.609 M1408.03 647.905 Q1413.84 647.905 1416.89 652.511 Q1419.97 657.095 1419.97 665.845 Q1419.97 674.571 1416.89 679.178 Q1413.84 683.761 1408.03 683.761 Q1402.22 683.761 1399.14 679.178 Q1396.08 674.571 1396.08 665.845 Q1396.08 657.095 1399.14 652.511 Q1402.22 647.905 1408.03 647.905 Z" fill="#000000" fill-rule="nonzero" fill-opacity="1" /><path clip-path="url(#clip510)" d="M1424.54 652.482 L1437.8 652.482 L1437.8 655.68 L1419.97 655.68 L1419.97 652.482 Q1422.14 650.244 1425.86 646.483 Q1429.6 642.702 1430.56 641.611 Q1432.39 639.561 1433.1 638.151 Q1433.83 636.721 1433.83 635.348 Q1433.83 633.11 1432.25 631.7 Q1430.69 630.289 1428.17 630.289 Q1426.39 630.289 1424.39 630.91 Q1422.42 631.53 1420.16 632.79 L1420.16 628.954 Q1422.46 628.032 1424.45 627.562 Q1426.44 627.092 1428.1 627.092 Q1432.46 627.092 1435.06 629.273 Q1437.65 631.455 1437.65 635.104 Q1437.65 636.834 1436.99 638.395 Q1436.35 639.937 1434.64 642.044 Q1434.17 642.589 1431.65 645.204 Q1429.13 647.799 1424.54 652.482 Z" fill="#000000" fill-rule="nonzero" fill-opacity="1" /><path clip-path="url(#clip510)" d="M1368.02 516.482 L1375.66 516.482 L1375.66 490.116 L1367.35 491.783 L1367.35 487.524 L1375.61 485.857 L1380.29 485.857 L1380.29 516.482 L1387.93 516.482 L1387.93 520.417 L1368.02 520.417 L1368.02 516.482 Z" fill="#000000" fill-rule="nonzero" fill-opacity="1" /><path clip-path="url(#clip510)" d="M1407.37 488.936 Q1403.76 488.936 1401.93 492.501 Q1400.12 496.042 1400.12 503.172 Q1400.12 510.278 1401.93 513.843 Q1403.76 517.385 1407.37 517.385 Q1411 517.385 1412.81 513.843 Q1414.64 510.278 1414.64 503.172 Q1414.64 496.042 1412.81 492.501 Q1411 488.936 1407.37 488.936 M1407.37 485.232 Q1413.18 485.232 1416.24 489.839 Q1419.31 494.422 1419.31 503.172 Q1419.31 511.899 1416.24 516.505 Q1413.18 521.089 1407.37 521.089 Q1401.56 521.089 1398.48 516.505 Q1395.43 511.899 1395.43 503.172 Q1395.43 494.422 1398.48 489.839 Q1401.56 485.232 1407.37 485.232 Z" fill="#000000" fill-rule="nonzero" fill-opacity="1" /><path clip-path="url(#clip510)" d="M1432.01 477.867 Q1434.74 478.45 1436.26 480.293 Q1437.8 482.136 1437.8 484.844 Q1437.8 489.001 1434.94 491.277 Q1432.08 493.552 1426.82 493.552 Q1425.05 493.552 1423.17 493.195 Q1421.31 492.856 1419.31 492.16 L1419.31 488.493 Q1420.89 489.415 1422.78 489.885 Q1424.66 490.355 1426.71 490.355 Q1430.28 490.355 1432.14 488.944 Q1434.02 487.534 1434.02 484.844 Q1434.02 482.362 1432.27 480.97 Q1430.54 479.559 1427.44 479.559 L1424.17 479.559 L1424.17 476.437 L1427.59 476.437 Q1430.39 476.437 1431.88 475.328 Q1433.36 474.199 1433.36 472.093 Q1433.36 469.93 1431.82 468.782 Q1430.3 467.616 1427.44 467.616 Q1425.88 467.616 1424.09 467.955 Q1422.3 468.293 1420.16 469.008 L1420.16 465.623 Q1422.32 465.021 1424.2 464.72 Q1426.1 464.419 1427.78 464.419 Q1432.1 464.419 1434.62 466.394 Q1437.14 468.35 1437.14 471.698 Q1437.14 474.03 1435.81 475.647 Q1434.47 477.246 1432.01 477.867 Z" fill="#000000" fill-rule="nonzero" fill-opacity="1" /><path clip-path="url(#clip510)" d="M1366.04 353.809 L1373.68 353.809 L1373.68 327.444 L1365.37 329.11 L1365.37 324.851 L1373.64 323.185 L1378.31 323.185 L1378.31 353.809 L1385.95 353.809 L1385.95 357.745 L1366.04 357.745 L1366.04 353.809 Z" fill="#000000" fill-rule="nonzero" fill-opacity="1" /><path clip-path="url(#clip510)" d="M1405.4 326.263 Q1401.78 326.263 1399.96 329.828 Q1398.15 333.37 1398.15 340.499 Q1398.15 347.606 1399.96 351.171 Q1401.78 354.712 1405.4 354.712 Q1409.03 354.712 1410.84 351.171 Q1412.66 347.606 1412.66 340.499 Q1412.66 333.37 1410.84 329.828 Q1409.03 326.263 1405.4 326.263 M1405.4 322.56 Q1411.21 322.56 1414.26 327.166 Q1417.34 331.749 1417.34 340.499 Q1417.34 349.226 1414.26 353.833 Q1411.21 358.416 1405.4 358.416 Q1399.59 358.416 1396.51 353.833 Q1393.45 349.226 1393.45 340.499 Q1393.45 331.749 1396.51 327.166 Q1399.59 322.56 1405.4 322.56 Z" fill="#000000" fill-rule="nonzero" fill-opacity="1" /><path clip-path="url(#clip510)" d="M1430.02 305.564 L1420.42 320.554 L1430.02 320.554 L1430.02 305.564 M1429.02 302.254 L1433.8 302.254 L1433.8 320.554 L1437.8 320.554 L1437.8 323.714 L1433.8 323.714 L1433.8 330.334 L1430.02 330.334 L1430.02 323.714 L1417.34 323.714 L1417.34 320.046 L1429.02 302.254 Z" fill="#000000" fill-rule="nonzero" fill-opacity="1" /><path clip-path="url(#clip510)" d="M1368.34 191.137 L1375.98 191.137 L1375.98 164.771 L1367.67 166.438 L1367.67 162.179 L1375.93 160.512 L1380.61 160.512 L1380.61 191.137 L1388.25 191.137 L1388.25 195.072 L1368.34 195.072 L1368.34 191.137 Z" fill="#000000" fill-rule="nonzero" fill-opacity="1" /><path clip-path="url(#clip510)" d="M1407.69 163.591 Q1404.08 163.591 1402.25 167.155 Q1400.44 170.697 1400.44 177.827 Q1400.44 184.933 1402.25 188.498 Q1404.08 192.039 1407.69 192.039 Q1411.32 192.039 1413.13 188.498 Q1414.96 184.933 1414.96 177.827 Q1414.96 170.697 1413.13 167.155 Q1411.32 163.591 1407.69 163.591 M1407.69 159.887 Q1413.5 159.887 1416.56 164.493 Q1419.63 169.077 1419.63 177.827 Q1419.63 186.553 1416.56 191.16 Q1413.5 195.743 1407.69 195.743 Q1401.88 195.743 1398.8 191.16 Q1395.75 186.553 1395.75 177.827 Q1395.75 169.077 1398.8 164.493 Q1401.88 159.887 1407.69 159.887 Z" fill="#000000" fill-rule="nonzero" fill-opacity="1" /><path clip-path="url(#clip510)" d="M1420.82 139.581 L1435.73 139.581 L1435.73 142.779 L1424.3 142.779 L1424.3 149.662 Q1425.13 149.38 1425.95 149.249 Q1426.78 149.098 1427.61 149.098 Q1432.31 149.098 1435.06 151.675 Q1437.8 154.252 1437.8 158.653 Q1437.8 163.185 1434.98 165.705 Q1432.16 168.207 1427.03 168.207 Q1425.26 168.207 1423.41 167.906 Q1421.59 167.605 1419.63 167.003 L1419.63 163.185 Q1421.33 164.107 1423.13 164.558 Q1424.94 165.01 1426.95 165.01 Q1430.2 165.01 1432.1 163.298 Q1434 161.587 1434 158.653 Q1434 155.719 1432.1 154.007 Q1430.2 152.296 1426.95 152.296 Q1425.43 152.296 1423.9 152.634 Q1422.4 152.973 1420.82 153.687 L1420.82 139.581 Z" fill="#000000" fill-rule="nonzero" fill-opacity="1" /><path clip-path="url(#clip510)" d="M1267.6 775.013 L1267.6 768.106 L1287.14 754.929 L1267.6 741.847 L1267.6 734.941 L1292.49 751.746 L1315.12 751.746 L1315.12 758.207 L1292.49 758.207 L1267.6 775.013 Z" fill="#000000" fill-rule="nonzero" fill-opacity="1" /><path clip-path="url(#clip510)" d="M1265.65 694.136 Q1272.98 698.401 1280.14 700.47 Q1287.3 702.539 1294.65 702.539 Q1302 702.539 1309.23 700.47 Q1316.42 698.37 1323.71 694.136 L1323.71 699.229 Q1316.23 704.003 1309.01 706.39 Q1301.78 708.746 1294.65 708.746 Q1287.55 708.746 1280.36 706.39 Q1273.17 704.035 1265.65 699.229 L1265.65 694.136 Z" fill="#000000" fill-rule="nonzero" fill-opacity="1" /><path clip-path="url(#clip510)" d="M1265.59 682.774 L1265.59 676.917 L1315.12 676.917 L1315.12 682.774 L1265.59 682.774 Z" fill="#000000" fill-rule="nonzero" fill-opacity="1" /><path clip-path="url(#clip510)" d="M1283.57 650.85 Q1283.57 655.56 1287.27 658.298 Q1290.93 661.035 1297.32 661.035 Q1303.72 661.035 1307.41 658.329 Q1311.07 655.592 1311.07 650.85 Q1311.07 646.171 1307.38 643.434 Q1303.69 640.696 1297.32 640.696 Q1290.99 640.696 1287.3 643.434 Q1283.57 646.171 1283.57 650.85 M1278.61 650.85 Q1278.61 643.211 1283.57 638.85 Q1288.54 634.49 1297.32 634.49 Q1306.08 634.49 1311.07 638.85 Q1316.04 643.211 1316.04 650.85 Q1316.04 658.52 1311.07 662.881 Q1306.08 667.21 1297.32 667.21 Q1288.54 667.21 1283.57 662.881 Q1278.61 658.52 1278.61 650.85 Z" fill="#000000" fill-rule="nonzero" fill-opacity="1" /><path clip-path="url(#clip510)" d="M1296.88 601.324 Q1290.51 601.324 1287.01 603.966 Q1283.51 606.576 1283.51 611.319 Q1283.51 616.029 1287.01 618.671 Q1290.51 621.281 1296.88 621.281 Q1303.21 621.281 1306.71 618.671 Q1310.21 616.029 1310.21 611.319 Q1310.21 606.576 1306.71 603.966 Q1303.21 601.324 1296.88 601.324 M1310.69 595.468 Q1319.8 595.468 1324.22 599.51 Q1328.68 603.552 1328.68 611.892 Q1328.68 614.979 1328.2 617.716 Q1327.75 620.453 1326.8 623.032 L1321.1 623.032 Q1322.5 620.453 1323.17 617.939 Q1323.84 615.425 1323.84 612.815 Q1323.84 607.054 1320.81 604.189 Q1317.82 601.324 1311.74 601.324 L1308.85 601.324 Q1312 603.139 1313.56 605.971 Q1315.12 608.804 1315.12 612.751 Q1315.12 619.308 1310.12 623.318 Q1305.12 627.328 1296.88 627.328 Q1288.6 627.328 1283.61 623.318 Q1278.61 619.308 1278.61 612.751 Q1278.61 608.804 1280.17 605.971 Q1281.73 603.139 1284.88 601.324 L1279.47 601.324 L1279.47 595.468 L1310.69 595.468 Z" fill="#000000" fill-rule="nonzero" fill-opacity="1" /><path clip-path="url(#clip510)" d="M1280.52 539.959 L1286.06 539.959 Q1284.78 542.442 1284.15 545.115 Q1283.51 547.789 1283.51 550.653 Q1283.51 555.014 1284.85 557.21 Q1286.18 559.374 1288.86 559.374 Q1290.89 559.374 1292.07 557.815 Q1293.22 556.255 1294.27 551.545 L1294.71 549.539 Q1296.05 543.301 1298.5 540.691 Q1300.92 538.049 1305.28 538.049 Q1310.25 538.049 1313.14 541.996 Q1316.04 545.911 1316.04 552.786 Q1316.04 555.651 1315.47 558.77 Q1314.93 561.857 1313.81 565.295 L1307.76 565.295 Q1309.45 562.048 1310.31 558.897 Q1311.14 555.746 1311.14 552.659 Q1311.14 548.521 1309.74 546.293 Q1308.3 544.065 1305.73 544.065 Q1303.34 544.065 1302.07 545.688 Q1300.79 547.28 1299.62 552.722 L1299.14 554.759 Q1297.99 560.202 1295.64 562.621 Q1293.25 565.04 1289.11 565.04 Q1284.08 565.04 1281.35 561.475 Q1278.61 557.91 1278.61 551.354 Q1278.61 548.107 1279.09 545.243 Q1279.56 542.378 1280.52 539.959 Z" fill="#000000" fill-rule="nonzero" fill-opacity="1" /><path clip-path="url(#clip510)" d="M1280.84 503.07 L1286.31 503.07 Q1284.94 505.552 1284.27 508.067 Q1283.57 510.549 1283.57 513.096 Q1283.57 518.793 1287.2 521.944 Q1290.8 525.095 1297.32 525.095 Q1303.85 525.095 1307.48 521.944 Q1311.07 518.793 1311.07 513.096 Q1311.07 510.549 1310.41 508.067 Q1309.71 505.552 1308.34 503.07 L1313.75 503.07 Q1314.89 505.521 1315.47 508.162 Q1316.04 510.772 1316.04 513.732 Q1316.04 521.785 1310.98 526.527 Q1305.92 531.27 1297.32 531.27 Q1288.6 531.27 1283.61 526.496 Q1278.61 521.689 1278.61 513.35 Q1278.61 510.645 1279.18 508.067 Q1279.72 505.489 1280.84 503.07 Z" fill="#000000" fill-rule="nonzero" fill-opacity="1" /><path clip-path="url(#clip510)" d="M1297.2 476.684 Q1297.2 483.782 1298.82 486.519 Q1300.44 489.256 1304.36 489.256 Q1307.48 489.256 1309.32 487.219 Q1311.14 485.15 1311.14 481.617 Q1311.14 476.748 1307.7 473.819 Q1304.23 470.859 1298.5 470.859 L1297.2 470.859 L1297.2 476.684 M1294.78 465.003 L1315.12 465.003 L1315.12 470.859 L1309.71 470.859 Q1312.95 472.865 1314.51 475.856 Q1316.04 478.848 1316.04 483.177 Q1316.04 488.651 1312.98 491.898 Q1309.9 495.113 1304.74 495.113 Q1298.72 495.113 1295.67 491.102 Q1292.61 487.06 1292.61 479.071 L1292.61 470.859 L1292.04 470.859 Q1288 470.859 1285.8 473.533 Q1283.57 476.175 1283.57 480.981 Q1283.57 484.036 1284.31 486.933 Q1285.04 489.829 1286.5 492.503 L1281.09 492.503 Q1279.85 489.288 1279.25 486.264 Q1278.61 483.241 1278.61 480.376 Q1278.61 472.642 1282.62 468.822 Q1286.63 465.003 1294.78 465.003 Z" fill="#000000" fill-rule="nonzero" fill-opacity="1" /><path clip-path="url(#clip510)" d="M1265.59 452.94 L1265.59 447.083 L1315.12 447.083 L1315.12 452.94 L1265.59 452.94 Z" fill="#000000" fill-rule="nonzero" fill-opacity="1" /><path clip-path="url(#clip510)" d="M1295.83 404.338 L1298.69 404.338 L1298.69 431.265 Q1304.74 430.883 1307.92 427.636 Q1311.07 424.358 1311.07 418.533 Q1311.07 415.159 1310.25 412.008 Q1309.42 408.826 1307.76 405.706 L1313.3 405.706 Q1314.64 408.857 1315.34 412.167 Q1316.04 415.478 1316.04 418.883 Q1316.04 427.413 1311.07 432.41 Q1306.11 437.376 1297.64 437.376 Q1288.89 437.376 1283.77 432.665 Q1278.61 427.923 1278.61 419.902 Q1278.61 412.709 1283.26 408.539 Q1287.87 404.338 1295.83 404.338 M1294.11 410.194 Q1289.3 410.258 1286.44 412.9 Q1283.57 415.509 1283.57 419.838 Q1283.57 424.74 1286.34 427.7 Q1289.11 430.628 1294.14 431.074 L1294.11 410.194 Z" fill="#000000" fill-rule="nonzero" fill-opacity="1" /><path clip-path="url(#clip510)" d="M1265.65 395.648 L1265.65 390.556 Q1273.17 385.782 1280.36 383.426 Q1287.55 381.039 1294.65 381.039 Q1301.78 381.039 1309.01 383.426 Q1316.23 385.782 1323.71 390.556 L1323.71 395.648 Q1316.42 391.415 1309.23 389.346 Q1302 387.246 1294.65 387.246 Q1287.3 387.246 1280.14 389.346 Q1272.98 391.415 1265.65 395.648 Z" fill="#000000" fill-rule="nonzero" fill-opacity="1" /><path clip-path="url(#clip510)" d="M1549.55 43.6931 L1549.55 65.8515 L1562.67 65.8515 Q1569.28 65.8515 1572.44 63.1374 Q1575.64 60.3828 1575.64 54.752 Q1575.64 49.0808 1572.44 46.4072 Q1569.28 43.6931 1562.67 43.6931 L1549.55 43.6931 M1549.55 18.8205 L1549.55 37.0496 L1561.66 37.0496 Q1567.66 37.0496 1570.57 34.8216 Q1573.53 32.5531 1573.53 27.935 Q1573.53 23.3575 1570.57 21.089 Q1567.66 18.8205 1561.66 18.8205 L1549.55 18.8205 M1541.37 12.096 L1562.27 12.096 Q1571.63 12.096 1576.69 15.9849 Q1581.75 19.8737 1581.75 27.0438 Q1581.75 32.5936 1579.16 35.8748 Q1576.57 39.156 1571.54 39.9662 Q1577.58 41.2625 1580.9 45.3944 Q1584.26 49.4858 1584.26 55.6432 Q1584.26 63.745 1578.76 68.1605 Q1573.25 72.576 1563.08 72.576 L1541.37 72.576 L1541.37 12.096 Z" fill="#000000" fill-rule="nonzero" fill-opacity="1" /><path clip-path="url(#clip510)" d="M1618.58 49.7694 Q1609.54 49.7694 1606.06 51.8354 Q1602.57 53.9013 1602.57 58.8839 Q1602.57 62.8538 1605.17 65.2034 Q1607.8 67.5124 1612.3 67.5124 Q1618.49 67.5124 1622.22 63.1374 Q1625.99 58.7219 1625.99 51.4303 L1625.99 49.7694 L1618.58 49.7694 M1633.44 46.6907 L1633.44 72.576 L1625.99 72.576 L1625.99 65.6895 Q1623.44 69.8214 1619.63 71.8063 Q1615.82 73.7508 1610.31 73.7508 Q1603.34 73.7508 1599.21 69.8619 Q1595.12 65.9325 1595.12 59.3701 Q1595.12 51.7138 1600.23 47.825 Q1605.37 43.9361 1615.54 43.9361 L1625.99 43.9361 L1625.99 43.2069 Q1625.99 38.0623 1622.59 35.2672 Q1619.22 32.4315 1613.11 32.4315 Q1609.22 32.4315 1605.53 33.3632 Q1601.85 34.295 1598.44 36.1584 L1598.44 29.2718 Q1602.53 27.692 1606.38 26.9223 Q1610.23 26.1121 1613.88 26.1121 Q1623.72 26.1121 1628.58 31.2163 Q1633.44 36.3204 1633.44 46.6907 Z" fill="#000000" fill-rule="nonzero" fill-opacity="1" /><path clip-path="url(#clip510)" d="M1667.67 76.7889 Q1664.51 84.8907 1661.52 87.3618 Q1658.52 89.8329 1653.49 89.8329 L1647.54 89.8329 L1647.54 83.5945 L1651.91 83.5945 Q1654.99 83.5945 1656.69 82.1361 Q1658.4 80.6778 1660.46 75.2496 L1661.8 71.8468 L1643.45 27.2059 L1651.35 27.2059 L1665.53 62.6918 L1679.7 27.2059 L1687.6 27.2059 L1667.67 76.7889 Z" fill="#000000" fill-rule="nonzero" fill-opacity="1" /><path clip-path="url(#clip510)" d="M1736.7 48.0275 L1736.7 51.6733 L1702.43 51.6733 Q1702.92 59.3701 1707.05 63.421 Q1711.22 67.4314 1718.63 67.4314 Q1722.93 67.4314 1726.94 66.3781 Q1730.99 65.3249 1734.96 63.2184 L1734.96 70.267 Q1730.95 71.9684 1726.73 72.8596 Q1722.52 73.7508 1718.19 73.7508 Q1707.33 73.7508 1700.97 67.4314 Q1694.65 61.1119 1694.65 50.3365 Q1694.65 39.1965 1700.65 32.6746 Q1706.68 26.1121 1716.89 26.1121 Q1726.05 26.1121 1731.35 32.0264 Q1736.7 37.9003 1736.7 48.0275 M1729.25 45.84 Q1729.17 39.7232 1725.8 36.0774 Q1722.48 32.4315 1716.97 32.4315 Q1710.73 32.4315 1706.97 35.9558 Q1703.24 39.4801 1702.67 45.8805 L1729.25 45.84 Z" fill="#000000" fill-rule="nonzero" fill-opacity="1" /><path clip-path="url(#clip510)" d="M1777.86 28.5427 L1777.86 35.5912 Q1774.7 33.9709 1771.29 33.1607 Q1767.89 32.3505 1764.25 32.3505 Q1758.7 32.3505 1755.9 34.0519 Q1753.15 35.7533 1753.15 39.156 Q1753.15 41.7486 1755.13 43.2475 Q1757.12 44.7058 1763.11 46.0426 L1765.66 46.6097 Q1773.6 48.3111 1776.93 51.4303 Q1780.29 54.509 1780.29 60.0587 Q1780.29 66.3781 1775.26 70.0644 Q1770.28 73.7508 1761.53 73.7508 Q1757.89 73.7508 1753.92 73.0216 Q1749.99 72.3329 1745.61 70.9151 L1745.61 63.2184 Q1749.74 65.3654 1753.75 66.4591 Q1757.76 67.5124 1761.69 67.5124 Q1766.96 67.5124 1769.8 65.73 Q1772.63 63.9071 1772.63 60.6258 Q1772.63 57.5877 1770.57 55.9673 Q1768.54 54.3469 1761.61 52.8481 L1759.02 52.2405 Q1752.09 50.7821 1749.01 47.7845 Q1745.94 44.7463 1745.94 39.4801 Q1745.94 33.0797 1750.47 29.5959 Q1755.01 26.1121 1763.35 26.1121 Q1767.49 26.1121 1771.13 26.7198 Q1774.78 27.3274 1777.86 28.5427 Z" fill="#000000" fill-rule="nonzero" fill-opacity="1" /><path clip-path="url(#clip510)" d="M1792.16 27.2059 L1799.61 27.2059 L1799.61 72.576 L1792.16 72.576 L1792.16 27.2059 M1792.16 9.54393 L1799.61 9.54393 L1799.61 18.9825 L1792.16 18.9825 L1792.16 9.54393 Z" fill="#000000" fill-rule="nonzero" fill-opacity="1" /><path clip-path="url(#clip510)" d="M1835.83 49.7694 Q1826.79 49.7694 1823.31 51.8354 Q1819.82 53.9013 1819.82 58.8839 Q1819.82 62.8538 1822.42 65.2034 Q1825.05 67.5124 1829.55 67.5124 Q1835.74 67.5124 1839.47 63.1374 Q1843.24 58.7219 1843.24 51.4303 L1843.24 49.7694 L1835.83 49.7694 M1850.69 46.6907 L1850.69 72.576 L1843.24 72.576 L1843.24 65.6895 Q1840.69 69.8214 1836.88 71.8063 Q1833.07 73.7508 1827.56 73.7508 Q1820.59 73.7508 1816.46 69.8619 Q1812.37 65.9325 1812.37 59.3701 Q1812.37 51.7138 1817.48 47.825 Q1822.62 43.9361 1832.79 43.9361 L1843.24 43.9361 L1843.24 43.2069 Q1843.24 38.0623 1839.84 35.2672 Q1836.47 32.4315 1830.36 32.4315 Q1826.47 32.4315 1822.78 33.3632 Q1819.1 34.295 1815.69 36.1584 L1815.69 29.2718 Q1819.78 27.692 1823.63 26.9223 Q1827.48 26.1121 1831.13 26.1121 Q1840.97 26.1121 1845.83 31.2163 Q1850.69 36.3204 1850.69 46.6907 Z" fill="#000000" fill-rule="nonzero" fill-opacity="1" /><path clip-path="url(#clip510)" d="M1903.76 45.1919 L1903.76 72.576 L1896.31 72.576 L1896.31 45.4349 Q1896.31 38.994 1893.79 35.7938 Q1891.28 32.5936 1886.26 32.5936 Q1880.22 32.5936 1876.74 36.4419 Q1873.26 40.2903 1873.26 46.9338 L1873.26 72.576 L1865.76 72.576 L1865.76 27.2059 L1873.26 27.2059 L1873.26 34.2544 Q1875.93 30.163 1879.53 28.1376 Q1883.18 26.1121 1887.92 26.1121 Q1895.74 26.1121 1899.75 30.9732 Q1903.76 35.7938 1903.76 45.1919 Z" fill="#000000" fill-rule="nonzero" fill-opacity="1" /><path clip-path="url(#clip510)" d="M1946.29 71.3202 L1946.29 63.8666 Q1949.37 65.3249 1952.53 66.0946 Q1955.69 66.8642 1958.73 66.8642 Q1966.83 66.8642 1971.09 61.436 Q1975.38 55.9673 1975.99 44.8678 Q1973.64 48.3516 1970.03 50.215 Q1966.43 52.0784 1962.05 52.0784 Q1952.98 52.0784 1947.67 46.6097 Q1942.4 41.1005 1942.4 31.5808 Q1942.4 22.2638 1947.91 16.633 Q1953.42 11.0023 1962.58 11.0023 Q1973.07 11.0023 1978.58 19.0636 Q1984.13 27.0843 1984.13 42.3968 Q1984.13 56.6965 1977.32 65.2439 Q1970.56 73.7508 1959.09 73.7508 Q1956.02 73.7508 1952.86 73.1431 Q1949.7 72.5355 1946.29 71.3202 M1962.58 45.678 Q1968.09 45.678 1971.29 41.9107 Q1974.53 38.1433 1974.53 31.5808 Q1974.53 25.0589 1971.29 21.2916 Q1968.09 17.4837 1962.58 17.4837 Q1957.07 17.4837 1953.83 21.2916 Q1950.63 25.0589 1950.63 31.5808 Q1950.63 38.1433 1953.83 41.9107 Q1957.07 45.678 1962.58 45.678 Z" fill="#000000" fill-rule="nonzero" fill-opacity="1" /><path clip-path="url(#clip510)" d="M1998.92 12.096 L2031.04 12.096 L2031.04 18.9825 L2006.41 18.9825 L2006.41 33.8088 Q2008.19 33.2012 2009.97 32.9176 Q2011.76 32.5936 2013.54 32.5936 Q2023.67 32.5936 2029.58 38.1433 Q2035.49 43.6931 2035.49 53.1722 Q2035.49 62.9348 2029.42 68.3631 Q2023.34 73.7508 2012.28 73.7508 Q2008.48 73.7508 2004.51 73.1026 Q2000.58 72.4545 1996.36 71.1582 L1996.36 62.9348 Q2000.01 64.9198 2003.9 65.892 Q2007.79 66.8642 2012.12 66.8642 Q2019.13 66.8642 2023.22 63.1779 Q2027.31 59.4916 2027.31 53.1722 Q2027.31 46.8528 2023.22 43.1664 Q2019.13 39.4801 2012.12 39.4801 Q2008.84 39.4801 2005.56 40.2093 Q2002.32 40.9384 1998.92 42.4778 L1998.92 12.096 Z" fill="#000000" fill-rule="nonzero" fill-opacity="1" /><path clip-path="url(#clip510)" d="M2103.06 45.9616 Q2099.54 45.9616 2097.51 48.9592 Q2095.53 51.9569 2095.53 57.3041 Q2095.53 62.5703 2097.51 65.6084 Q2099.54 68.6061 2103.06 68.6061 Q2106.51 68.6061 2108.49 65.6084 Q2110.52 62.5703 2110.52 57.3041 Q2110.52 51.9974 2108.49 48.9997 Q2106.51 45.9616 2103.06 45.9616 M2103.06 40.8169 Q2109.46 40.8169 2113.23 45.2729 Q2117 49.7289 2117 57.3041 Q2117 64.8793 2113.19 69.3353 Q2109.42 73.7508 2103.06 73.7508 Q2096.58 73.7508 2092.81 69.3353 Q2089.05 64.8793 2089.05 57.3041 Q2089.05 49.6884 2092.81 45.2729 Q2096.62 40.8169 2103.06 40.8169 M2061.26 16.1469 Q2057.77 16.1469 2055.75 19.1851 Q2053.76 22.1828 2053.76 27.4489 Q2053.76 32.7961 2055.75 35.7938 Q2057.73 38.7915 2061.26 38.7915 Q2064.78 38.7915 2066.77 35.7938 Q2068.79 32.7961 2068.79 27.4489 Q2068.79 22.2233 2066.77 19.1851 Q2064.74 16.1469 2061.26 16.1469 M2097.84 11.0023 L2104.32 11.0023 L2066.48 73.7508 L2060 73.7508 L2097.84 11.0023 M2061.26 11.0023 Q2067.66 11.0023 2071.47 15.4583 Q2075.27 19.8737 2075.27 27.4489 Q2075.27 35.1051 2071.47 39.5206 Q2067.7 43.9361 2061.26 43.9361 Q2054.82 43.9361 2051.05 39.5206 Q2047.32 35.0646 2047.32 27.4489 Q2047.32 19.9142 2051.09 15.4583 Q2054.86 11.0023 2061.26 11.0023 Z" fill="#000000" fill-rule="nonzero" fill-opacity="1" /><path clip-path="url(#clip510)" d="M2201.38 16.7545 L2201.38 25.383 Q2197.25 21.5346 2192.55 19.6307 Q2187.89 17.7268 2182.62 17.7268 Q2172.25 17.7268 2166.74 24.0867 Q2161.23 30.4061 2161.23 42.3968 Q2161.23 54.3469 2166.74 60.7069 Q2172.25 67.0263 2182.62 67.0263 Q2187.89 67.0263 2192.55 65.1223 Q2197.25 63.2184 2201.38 59.3701 L2201.38 67.9175 Q2197.09 70.8341 2192.26 72.2924 Q2187.48 73.7508 2182.14 73.7508 Q2168.4 73.7508 2160.51 65.3654 Q2152.61 56.9395 2152.61 42.3968 Q2152.61 27.8135 2160.51 19.4281 Q2168.4 11.0023 2182.14 11.0023 Q2187.57 11.0023 2192.35 12.4606 Q2197.17 13.8784 2201.38 16.7545 Z" fill="#000000" fill-rule="nonzero" fill-opacity="1" /><path clip-path="url(#clip510)" d="M2214.02 12.096 L2222.2 12.096 L2222.2 72.576 L2214.02 72.576 L2214.02 12.096 Z" fill="#000000" fill-rule="nonzero" fill-opacity="1" /><polyline clip-path="url(#clip513)" style="stroke:#000000; stroke-linecap:round; stroke-linejoin:round; stroke-width:8; stroke-opacity:1; fill:none" points="1582.6,858.091 1582.6,718.285 "/>
<polyline clip-path="url(#clip513)" style="stroke:#000000; stroke-linecap:round; stroke-linejoin:round; stroke-width:8; stroke-opacity:1; fill:none" points="1578.97,858.091 1586.22,858.091 "/>
<polyline clip-path="url(#clip513)" style="stroke:#000000; stroke-linecap:round; stroke-linejoin:round; stroke-width:8; stroke-opacity:1; fill:none" points="1578.97,718.285 1586.22,718.285 "/>
<polyline clip-path="url(#clip513)" style="stroke:#000000; stroke-linecap:round; stroke-linejoin:round; stroke-width:8; stroke-opacity:1; fill:none" points="1636.99,488.404 1636.99,328.547 "/>
<polyline clip-path="url(#clip513)" style="stroke:#000000; stroke-linecap:round; stroke-linejoin:round; stroke-width:8; stroke-opacity:1; fill:none" points="1633.37,488.404 1640.62,488.404 "/>
<polyline clip-path="url(#clip513)" style="stroke:#000000; stroke-linecap:round; stroke-linejoin:round; stroke-width:8; stroke-opacity:1; fill:none" points="1633.37,328.547 1640.62,328.547 "/>
<polyline clip-path="url(#clip513)" style="stroke:#000000; stroke-linecap:round; stroke-linejoin:round; stroke-width:8; stroke-opacity:1; fill:none" points="1854.58,867.3 1854.58,735.378 "/>
<polyline clip-path="url(#clip513)" style="stroke:#000000; stroke-linecap:round; stroke-linejoin:round; stroke-width:8; stroke-opacity:1; fill:none" points="1850.96,867.3 1858.21,867.3 "/>
<polyline clip-path="url(#clip513)" style="stroke:#000000; stroke-linecap:round; stroke-linejoin:round; stroke-width:8; stroke-opacity:1; fill:none" points="1850.96,735.378 1858.21,735.378 "/>
<polyline clip-path="url(#clip513)" style="stroke:#000000; stroke-linecap:round; stroke-linejoin:round; stroke-width:8; stroke-opacity:1; fill:none" points="1908.98,463.843 1908.98,344.366 "/>
<polyline clip-path="url(#clip513)" style="stroke:#000000; stroke-linecap:round; stroke-linejoin:round; stroke-width:8; stroke-opacity:1; fill:none" points="1905.36,463.843 1912.61,463.843 "/>
<polyline clip-path="url(#clip513)" style="stroke:#000000; stroke-linecap:round; stroke-linejoin:round; stroke-width:8; stroke-opacity:1; fill:none" points="1905.36,344.366 1912.61,344.366 "/>
<polyline clip-path="url(#clip513)" style="stroke:#000000; stroke-linecap:round; stroke-linejoin:round; stroke-width:8; stroke-opacity:1; fill:none" points="2126.57,870.284 2126.57,732.871 "/>
<polyline clip-path="url(#clip513)" style="stroke:#000000; stroke-linecap:round; stroke-linejoin:round; stroke-width:8; stroke-opacity:1; fill:none" points="2122.95,870.284 2130.2,870.284 "/>
<polyline clip-path="url(#clip513)" style="stroke:#000000; stroke-linecap:round; stroke-linejoin:round; stroke-width:8; stroke-opacity:1; fill:none" points="2122.95,732.871 2130.2,732.871 "/>
<polyline clip-path="url(#clip513)" style="stroke:#000000; stroke-linecap:round; stroke-linejoin:round; stroke-width:8; stroke-opacity:1; fill:none" points="2180.97,477.314 2180.97,341.362 "/>
<polyline clip-path="url(#clip513)" style="stroke:#000000; stroke-linecap:round; stroke-linejoin:round; stroke-width:8; stroke-opacity:1; fill:none" points="2177.34,477.314 2184.6,477.314 "/>
<polyline clip-path="url(#clip513)" style="stroke:#000000; stroke-linecap:round; stroke-linejoin:round; stroke-width:8; stroke-opacity:1; fill:none" points="2177.34,341.362 2184.6,341.362 "/>
<circle clip-path="url(#clip513)" cx="1582.6" cy="809.753" r="6.48" fill="#ffffff" fill-rule="evenodd" fill-opacity="1" stroke="#0000ff" stroke-opacity="1" stroke-width="4.8"/>
<circle clip-path="url(#clip513)" cx="1582.6" cy="791.149" r="6.48" fill="#ffffff" fill-rule="evenodd" fill-opacity="1" stroke="#0000ff" stroke-opacity="1" stroke-width="4.8"/>
<circle clip-path="url(#clip513)" cx="1582.6" cy="813.046" r="6.48" fill="#ffffff" fill-rule="evenodd" fill-opacity="1" stroke="#0000ff" stroke-opacity="1" stroke-width="4.8"/>
<circle clip-path="url(#clip513)" cx="1854.58" cy="806.861" r="6.48" fill="#ffffff" fill-rule="evenodd" fill-opacity="1" stroke="#0000ff" stroke-opacity="1" stroke-width="4.8"/>
<circle clip-path="url(#clip513)" cx="1854.58" cy="817.573" r="6.48" fill="#ffffff" fill-rule="evenodd" fill-opacity="1" stroke="#0000ff" stroke-opacity="1" stroke-width="4.8"/>
<circle clip-path="url(#clip513)" cx="1854.58" cy="825.819" r="6.48" fill="#ffffff" fill-rule="evenodd" fill-opacity="1" stroke="#0000ff" stroke-opacity="1" stroke-width="4.8"/>
<circle clip-path="url(#clip513)" cx="2126.57" cy="820.071" r="6.48" fill="#ffffff" fill-rule="evenodd" fill-opacity="1" stroke="#0000ff" stroke-opacity="1" stroke-width="4.8"/>
<circle clip-path="url(#clip513)" cx="2126.57" cy="807.165" r="6.48" fill="#ffffff" fill-rule="evenodd" fill-opacity="1" stroke="#0000ff" stroke-opacity="1" stroke-width="4.8"/>
<circle clip-path="url(#clip513)" cx="2126.57" cy="831.733" r="6.48" fill="#ffffff" fill-rule="evenodd" fill-opacity="1" stroke="#0000ff" stroke-opacity="1" stroke-width="4.8"/>
<circle clip-path="url(#clip513)" cx="1636.99" cy="359.633" r="6.48" fill="#ffffff" fill-rule="evenodd" fill-opacity="1" stroke="#ff0000" stroke-opacity="1" stroke-width="4.8"/>
<circle clip-path="url(#clip513)" cx="1636.99" cy="415.427" r="6.48" fill="#ffffff" fill-rule="evenodd" fill-opacity="1" stroke="#ff0000" stroke-opacity="1" stroke-width="4.8"/>
<circle clip-path="url(#clip513)" cx="1636.99" cy="383.703" r="6.48" fill="#ffffff" fill-rule="evenodd" fill-opacity="1" stroke="#ff0000" stroke-opacity="1" stroke-width="4.8"/>
<circle clip-path="url(#clip513)" cx="1908.98" cy="395.865" r="6.48" fill="#ffffff" fill-rule="evenodd" fill-opacity="1" stroke="#ff0000" stroke-opacity="1" stroke-width="4.8"/>
<circle clip-path="url(#clip513)" cx="1908.98" cy="395.833" r="6.48" fill="#ffffff" fill-rule="evenodd" fill-opacity="1" stroke="#ff0000" stroke-opacity="1" stroke-width="4.8"/>
<circle clip-path="url(#clip513)" cx="1908.98" cy="384.253" r="6.48" fill="#ffffff" fill-rule="evenodd" fill-opacity="1" stroke="#ff0000" stroke-opacity="1" stroke-width="4.8"/>
<circle clip-path="url(#clip513)" cx="2180.97" cy="396.347" r="6.48" fill="#ffffff" fill-rule="evenodd" fill-opacity="1" stroke="#ff0000" stroke-opacity="1" stroke-width="4.8"/>
<circle clip-path="url(#clip513)" cx="2180.97" cy="379.769" r="6.48" fill="#ffffff" fill-rule="evenodd" fill-opacity="1" stroke="#ff0000" stroke-opacity="1" stroke-width="4.8"/>
<circle clip-path="url(#clip513)" cx="2180.97" cy="394.062" r="6.48" fill="#ffffff" fill-rule="evenodd" fill-opacity="1" stroke="#ff0000" stroke-opacity="1" stroke-width="4.8"/>
</svg>
