<?xml version="1.0" encoding="utf-8"?>
<svg xmlns="http://www.w3.org/2000/svg" xmlns:xlink="http://www.w3.org/1999/xlink" width="300" height="300" viewBox="0 0 1200 1200">
<defs>
  <clipPath id="clip630">
    <rect x="0" y="0" width="1200" height="1200"/>
  </clipPath>
</defs>
<path clip-path="url(#clip630)" d="M0 1200 L1200 1200 L1200 0 L0 0  Z" fill="#ffffff" fill-rule="evenodd" fill-opacity="1"/>
<defs>
  <clipPath id="clip631">
    <rect x="240" y="119" width="841" height="841"/>
  </clipPath>
</defs>
<path clip-path="url(#clip630)" d="M234.45 986.14 L1152.76 986.14 L1152.76 47.2441 L234.45 47.2441  Z" fill="#ffffff" fill-rule="evenodd" fill-opacity="1"/>
<defs>
  <clipPath id="clip632">
    <rect x="234" y="47" width="919" height="940"/>
  </clipPath>
</defs>
<polyline clip-path="url(#clip632)" style="stroke:#000000; stroke-linecap:round; stroke-linejoin:round; stroke-width:2; stroke-opacity:0.1; fill:none" points="387.501,986.14 387.501,47.2441 "/>
<polyline clip-path="url(#clip632)" style="stroke:#000000; stroke-linecap:round; stroke-linejoin:round; stroke-width:2; stroke-opacity:0.1; fill:none" points="693.603,986.14 693.603,47.2441 "/>
<polyline clip-path="url(#clip632)" style="stroke:#000000; stroke-linecap:round; stroke-linejoin:round; stroke-width:2; stroke-opacity:0.1; fill:none" points="999.705,986.14 999.705,47.2441 "/>
<polyline clip-path="url(#clip632)" style="stroke:#000000; stroke-linecap:round; stroke-linejoin:round; stroke-width:2; stroke-opacity:0.1; fill:none" points="234.45,986.14 1152.76,986.14 "/>
<polyline clip-path="url(#clip632)" style="stroke:#000000; stroke-linecap:round; stroke-linejoin:round; stroke-width:2; stroke-opacity:0.1; fill:none" points="234.45,798.361 1152.76,798.361 "/>
<polyline clip-path="url(#clip632)" style="stroke:#000000; stroke-linecap:round; stroke-linejoin:round; stroke-width:2; stroke-opacity:0.1; fill:none" points="234.45,610.582 1152.76,610.582 "/>
<polyline clip-path="url(#clip632)" style="stroke:#000000; stroke-linecap:round; stroke-linejoin:round; stroke-width:2; stroke-opacity:0.1; fill:none" points="234.45,422.802 1152.76,422.802 "/>
<polyline clip-path="url(#clip632)" style="stroke:#000000; stroke-linecap:round; stroke-linejoin:round; stroke-width:2; stroke-opacity:0.1; fill:none" points="234.45,235.023 1152.76,235.023 "/>
<polyline clip-path="url(#clip632)" style="stroke:#000000; stroke-linecap:round; stroke-linejoin:round; stroke-width:2; stroke-opacity:0.1; fill:none" points="234.45,47.2441 1152.76,47.2441 "/>
<polyline clip-path="url(#clip630)" style="stroke:#000000; stroke-linecap:round; stroke-linejoin:round; stroke-width:4; stroke-opacity:1; fill:none" points="234.45,986.14 1152.76,986.14 "/>
<polyline clip-path="url(#clip630)" style="stroke:#000000; stroke-linecap:round; stroke-linejoin:round; stroke-width:4; stroke-opacity:1; fill:none" points="387.501,986.14 387.501,967.242 "/>
<polyline clip-path="url(#clip630)" style="stroke:#000000; stroke-linecap:round; stroke-linejoin:round; stroke-width:4; stroke-opacity:1; fill:none" points="693.603,986.14 693.603,967.242 "/>
<polyline clip-path="url(#clip630)" style="stroke:#000000; stroke-linecap:round; stroke-linejoin:round; stroke-width:4; stroke-opacity:1; fill:none" points="999.705,986.14 999.705,967.242 "/>
<path clip-path="url(#clip630)" d="M377.883 1035 L385.522 1035 L385.522 1008.64 L377.212 1010.31 L377.212 1006.05 L385.476 1004.38 L390.152 1004.38 L390.152 1035 L397.791 1035 L397.791 1038.94 L377.883 1038.94 L377.883 1035 Z" fill="#000000" fill-rule="nonzero" fill-opacity="1" /><path clip-path="url(#clip630)" d="M688.256 1035 L704.575 1035 L704.575 1038.94 L682.631 1038.94 L682.631 1035 Q685.293 1032.25 689.876 1027.62 Q694.483 1022.97 695.663 1021.63 Q697.909 1019.1 698.788 1017.37 Q699.691 1015.61 699.691 1013.92 Q699.691 1011.16 697.747 1009.43 Q695.825 1007.69 692.723 1007.69 Q690.524 1007.69 688.071 1008.45 Q685.64 1009.22 682.862 1010.77 L682.862 1006.05 Q685.686 1004.91 688.14 1004.33 Q690.594 1003.75 692.631 1003.75 Q698.001 1003.75 701.196 1006.44 Q704.39 1009.13 704.39 1013.62 Q704.39 1015.75 703.58 1017.67 Q702.793 1019.56 700.686 1022.16 Q700.108 1022.83 697.006 1026.05 Q693.904 1029.24 688.256 1035 Z" fill="#000000" fill-rule="nonzero" fill-opacity="1" /><path clip-path="url(#clip630)" d="M1003.95 1020.31 Q1007.31 1021.02 1009.18 1023.29 Q1011.08 1025.56 1011.08 1028.89 Q1011.08 1034.01 1007.56 1036.81 Q1004.05 1039.61 997.564 1039.61 Q995.388 1039.61 993.073 1039.17 Q990.781 1038.75 988.328 1037.9 L988.328 1033.38 Q990.272 1034.52 992.587 1035.1 Q994.902 1035.68 997.425 1035.68 Q1001.82 1035.68 1004.11 1033.94 Q1006.43 1032.2 1006.43 1028.89 Q1006.43 1025.84 1004.28 1024.13 Q1002.15 1022.39 998.328 1022.39 L994.3 1022.39 L994.3 1018.55 L998.513 1018.55 Q1001.96 1018.55 1003.79 1017.18 Q1005.62 1015.79 1005.62 1013.2 Q1005.62 1010.54 1003.72 1009.13 Q1001.85 1007.69 998.328 1007.69 Q996.406 1007.69 994.207 1008.11 Q992.008 1008.52 989.369 1009.4 L989.369 1005.24 Q992.031 1004.5 994.346 1004.13 Q996.684 1003.75 998.744 1003.75 Q1004.07 1003.75 1007.17 1006.19 Q1010.27 1008.59 1010.27 1012.71 Q1010.27 1015.58 1008.63 1017.57 Q1006.99 1019.54 1003.95 1020.31 Z" fill="#000000" fill-rule="nonzero" fill-opacity="1" /><path clip-path="url(#clip630)" d="M576.283 1065.48 L583.19 1065.48 L594.998 1083.15 L606.87 1065.48 L613.777 1065.48 L598.499 1088.3 L614.796 1113 L607.889 1113 L594.521 1092.79 L581.057 1113 L574.119 1113 L591.083 1087.64 L576.283 1065.48 Z" fill="#000000" fill-rule="nonzero" fill-opacity="1" /><path clip-path="url(#clip630)" d="M656.205 1113 L638.062 1065.48 L644.778 1065.48 L659.833 1105.49 L674.92 1065.48 L681.604 1065.48 L663.493 1113 L656.205 1113 Z" fill="#000000" fill-rule="nonzero" fill-opacity="1" /><path clip-path="url(#clip630)" d="M699.428 1095.08 Q692.33 1095.08 689.593 1096.71 Q686.855 1098.33 686.855 1102.25 Q686.855 1105.36 688.892 1107.21 Q690.961 1109.03 694.494 1109.03 Q699.364 1109.03 702.292 1105.59 Q705.252 1102.12 705.252 1096.39 L705.252 1095.08 L699.428 1095.08 M711.109 1092.67 L711.109 1113 L705.252 1113 L705.252 1107.59 Q703.247 1110.84 700.255 1112.4 Q697.263 1113.93 692.935 1113.93 Q687.46 1113.93 684.214 1110.87 Q680.999 1107.78 680.999 1102.63 Q680.999 1096.61 685.009 1093.56 Q689.052 1090.5 697.041 1090.5 L705.252 1090.5 L705.252 1089.93 Q705.252 1085.89 702.579 1083.69 Q699.937 1081.46 695.131 1081.46 Q692.075 1081.46 689.179 1082.19 Q686.283 1082.93 683.609 1084.39 L683.609 1078.98 Q686.824 1077.74 689.847 1077.13 Q692.871 1076.5 695.736 1076.5 Q703.47 1076.5 707.289 1080.51 Q711.109 1084.52 711.109 1092.67 Z" fill="#000000" fill-rule="nonzero" fill-opacity="1" /><path clip-path="url(#clip630)" d="M723.172 1063.48 L729.028 1063.48 L729.028 1113 L723.172 1113 L723.172 1063.48 Z" fill="#000000" fill-rule="nonzero" fill-opacity="1" /><path clip-path="url(#clip630)" d="M740.678 1098.94 L740.678 1077.36 L746.534 1077.36 L746.534 1098.71 Q746.534 1103.77 748.507 1106.32 Q750.481 1108.83 754.427 1108.83 Q759.17 1108.83 761.907 1105.81 Q764.676 1102.79 764.676 1097.57 L764.676 1077.36 L770.533 1077.36 L770.533 1113 L764.676 1113 L764.676 1107.53 Q762.544 1110.78 759.711 1112.37 Q756.91 1113.93 753.186 1113.93 Q747.043 1113.93 743.86 1110.11 Q740.678 1106.29 740.678 1098.94 M755.414 1076.5 L755.414 1076.5 Z" fill="#000000" fill-rule="nonzero" fill-opacity="1" /><path clip-path="url(#clip630)" d="M813.087 1093.72 L813.087 1096.58 L786.16 1096.58 Q786.542 1102.63 789.789 1105.81 Q793.067 1108.96 798.892 1108.96 Q802.266 1108.96 805.417 1108.13 Q808.6 1107.31 811.719 1105.65 L811.719 1111.19 Q808.568 1112.53 805.258 1113.23 Q801.947 1113.93 798.542 1113.93 Q790.012 1113.93 785.015 1108.96 Q780.049 1104 780.049 1095.53 Q780.049 1086.78 784.76 1081.65 Q789.502 1076.5 797.523 1076.5 Q804.717 1076.5 808.886 1081.14 Q813.087 1085.76 813.087 1093.72 M807.231 1092 Q807.167 1087.19 804.526 1084.33 Q801.916 1081.46 797.587 1081.46 Q792.685 1081.46 789.725 1084.23 Q786.797 1087 786.351 1092.03 L807.231 1092 Z" fill="#000000" fill-rule="nonzero" fill-opacity="1" /><polyline clip-path="url(#clip630)" style="stroke:#000000; stroke-linecap:round; stroke-linejoin:round; stroke-width:4; stroke-opacity:1; fill:none" points="234.45,986.14 234.45,47.2441 "/>
<polyline clip-path="url(#clip630)" style="stroke:#000000; stroke-linecap:round; stroke-linejoin:round; stroke-width:4; stroke-opacity:1; fill:none" points="234.45,986.14 253.348,986.14 "/>
<polyline clip-path="url(#clip630)" style="stroke:#000000; stroke-linecap:round; stroke-linejoin:round; stroke-width:4; stroke-opacity:1; fill:none" points="234.45,798.361 253.348,798.361 "/>
<polyline clip-path="url(#clip630)" style="stroke:#000000; stroke-linecap:round; stroke-linejoin:round; stroke-width:4; stroke-opacity:1; fill:none" points="234.45,610.582 253.348,610.582 "/>
<polyline clip-path="url(#clip630)" style="stroke:#000000; stroke-linecap:round; stroke-linejoin:round; stroke-width:4; stroke-opacity:1; fill:none" points="234.45,422.802 253.348,422.802 "/>
<polyline clip-path="url(#clip630)" style="stroke:#000000; stroke-linecap:round; stroke-linejoin:round; stroke-width:4; stroke-opacity:1; fill:none" points="234.45,235.023 253.348,235.023 "/>
<polyline clip-path="url(#clip630)" style="stroke:#000000; stroke-linecap:round; stroke-linejoin:round; stroke-width:4; stroke-opacity:1; fill:none" points="234.45,47.2441 253.348,47.2441 "/>
<path clip-path="url(#clip630)" d="M145.745 1005.93 L153.384 1005.93 L153.384 979.567 L145.073 981.233 L145.073 976.974 L153.337 975.307 L158.013 975.307 L158.013 1005.93 L165.652 1005.93 L165.652 1009.87 L145.745 1009.87 L145.745 1005.93 Z" fill="#000000" fill-rule="nonzero" fill-opacity="1" /><path clip-path="url(#clip630)" d="M185.096 978.386 Q181.485 978.386 179.657 981.951 Q177.851 985.493 177.851 992.622 Q177.851 999.729 179.657 1003.29 Q181.485 1006.84 185.096 1006.84 Q188.731 1006.84 190.536 1003.29 Q192.365 999.729 192.365 992.622 Q192.365 985.493 190.536 981.951 Q188.731 978.386 185.096 978.386 M185.096 974.682 Q190.906 974.682 193.962 979.289 Q197.041 983.872 197.041 992.622 Q197.041 1001.35 193.962 1005.96 Q190.906 1010.54 185.096 1010.54 Q179.286 1010.54 176.207 1005.96 Q173.152 1001.35 173.152 992.622 Q173.152 983.872 176.207 979.289 Q179.286 974.682 185.096 974.682 Z" fill="#000000" fill-rule="nonzero" fill-opacity="1" /><path clip-path="url(#clip630)" d="M206.746 956.878 Q203.812 956.878 202.326 959.775 Q200.859 962.652 200.859 968.445 Q200.859 974.219 202.326 977.116 Q203.812 979.993 206.746 979.993 Q209.698 979.993 211.165 977.116 Q212.651 974.219 212.651 968.445 Q212.651 962.652 211.165 959.775 Q209.698 956.878 206.746 956.878 M206.746 953.869 Q211.466 953.869 213.949 957.612 Q216.45 961.336 216.45 968.445 Q216.45 975.536 213.949 979.279 Q211.466 983.002 206.746 983.002 Q202.025 983.002 199.523 979.279 Q197.041 975.536 197.041 968.445 Q197.041 961.336 199.523 957.612 Q202.025 953.869 206.746 953.869 Z" fill="#000000" fill-rule="nonzero" fill-opacity="1" /><path clip-path="url(#clip630)" d="M148.434 818.153 L156.073 818.153 L156.073 791.788 L147.763 793.454 L147.763 789.195 L156.027 787.528 L160.703 787.528 L160.703 818.153 L168.341 818.153 L168.341 822.088 L148.434 822.088 L148.434 818.153 Z" fill="#000000" fill-rule="nonzero" fill-opacity="1" /><path clip-path="url(#clip630)" d="M187.786 790.607 Q184.175 790.607 182.346 794.172 Q180.541 797.713 180.541 804.843 Q180.541 811.949 182.346 815.514 Q184.175 819.056 187.786 819.056 Q191.42 819.056 193.226 815.514 Q195.054 811.949 195.054 804.843 Q195.054 797.713 193.226 794.172 Q191.42 790.607 187.786 790.607 M187.786 786.903 Q193.596 786.903 196.652 791.51 Q199.73 796.093 199.73 804.843 Q199.73 813.57 196.652 818.176 Q193.596 822.76 187.786 822.76 Q181.976 822.76 178.897 818.176 Q175.841 813.57 175.841 804.843 Q175.841 796.093 178.897 791.51 Q181.976 786.903 187.786 786.903 Z" fill="#000000" fill-rule="nonzero" fill-opacity="1" /><path clip-path="url(#clip630)" d="M200.276 791.481 L206.482 791.481 L206.482 770.059 L199.73 771.413 L199.73 767.952 L206.445 766.598 L210.244 766.598 L210.244 791.481 L216.45 791.481 L216.45 794.678 L200.276 794.678 L200.276 791.481 Z" fill="#000000" fill-rule="nonzero" fill-opacity="1" /><path clip-path="url(#clip630)" d="M147.325 630.374 L154.963 630.374 L154.963 604.008 L146.653 605.675 L146.653 601.416 L154.917 599.749 L159.593 599.749 L159.593 630.374 L167.232 630.374 L167.232 634.309 L147.325 634.309 L147.325 630.374 Z" fill="#000000" fill-rule="nonzero" fill-opacity="1" /><path clip-path="url(#clip630)" d="M186.676 602.828 Q183.065 602.828 181.236 606.393 Q179.431 609.934 179.431 617.064 Q179.431 624.17 181.236 627.735 Q183.065 631.277 186.676 631.277 Q190.31 631.277 192.116 627.735 Q193.945 624.17 193.945 617.064 Q193.945 609.934 192.116 606.393 Q190.31 602.828 186.676 602.828 M186.676 599.124 Q192.486 599.124 195.542 603.731 Q198.621 608.314 198.621 617.064 Q198.621 625.791 195.542 630.397 Q192.486 634.98 186.676 634.98 Q180.866 634.98 177.787 630.397 Q174.732 625.791 174.732 617.064 Q174.732 608.314 177.787 603.731 Q180.866 599.124 186.676 599.124 Z" fill="#000000" fill-rule="nonzero" fill-opacity="1" /><path clip-path="url(#clip630)" d="M203.191 603.701 L216.45 603.701 L216.45 606.899 L198.621 606.899 L198.621 603.701 Q200.783 601.463 204.507 597.702 Q208.25 593.921 209.209 592.831 Q211.034 590.78 211.748 589.37 Q212.482 587.941 212.482 586.568 Q212.482 584.329 210.902 582.919 Q209.341 581.508 206.821 581.508 Q205.034 581.508 203.04 582.129 Q201.066 582.75 198.809 584.01 L198.809 580.173 Q201.103 579.251 203.097 578.781 Q205.09 578.311 206.746 578.311 Q211.109 578.311 213.704 580.493 Q216.3 582.674 216.3 586.323 Q216.3 588.053 215.642 589.614 Q215.002 591.157 213.291 593.263 Q212.82 593.809 210.3 596.423 Q207.78 599.018 203.191 603.701 Z" fill="#000000" fill-rule="nonzero" fill-opacity="1" /><path clip-path="url(#clip630)" d="M146.666 442.595 L154.305 442.595 L154.305 416.229 L145.995 417.896 L145.995 413.637 L154.259 411.97 L158.935 411.97 L158.935 442.595 L166.574 442.595 L166.574 446.53 L146.666 446.53 L146.666 442.595 Z" fill="#000000" fill-rule="nonzero" fill-opacity="1" /><path clip-path="url(#clip630)" d="M186.018 415.049 Q182.407 415.049 180.578 418.613 Q178.773 422.155 178.773 429.285 Q178.773 436.391 180.578 439.956 Q182.407 443.498 186.018 443.498 Q189.652 443.498 191.458 439.956 Q193.286 436.391 193.286 429.285 Q193.286 422.155 191.458 418.613 Q189.652 415.049 186.018 415.049 M186.018 411.345 Q191.828 411.345 194.884 415.951 Q197.962 420.535 197.962 429.285 Q197.962 438.012 194.884 442.618 Q191.828 447.201 186.018 447.201 Q180.208 447.201 177.129 442.618 Q174.074 438.012 174.074 429.285 Q174.074 420.535 177.129 415.951 Q180.208 411.345 186.018 411.345 Z" fill="#000000" fill-rule="nonzero" fill-opacity="1" /><path clip-path="url(#clip630)" d="M210.658 403.979 Q213.385 404.562 214.908 406.406 Q216.45 408.249 216.45 410.957 Q216.45 415.114 213.592 417.389 Q210.733 419.665 205.467 419.665 Q203.699 419.665 201.818 419.308 Q199.956 418.969 197.962 418.273 L197.962 414.606 Q199.542 415.527 201.423 415.998 Q203.304 416.468 205.354 416.468 Q208.927 416.468 210.789 415.057 Q212.67 413.647 212.67 410.957 Q212.67 408.474 210.921 407.083 Q209.191 405.672 206.087 405.672 L202.815 405.672 L202.815 402.55 L206.238 402.55 Q209.04 402.55 210.526 401.44 Q212.012 400.312 212.012 398.205 Q212.012 396.042 210.469 394.895 Q208.946 393.729 206.087 393.729 Q204.526 393.729 202.739 394.068 Q200.953 394.406 198.809 395.121 L198.809 391.735 Q200.972 391.134 202.852 390.833 Q204.752 390.532 206.426 390.532 Q210.752 390.532 213.272 392.507 Q215.792 394.463 215.792 397.81 Q215.792 400.143 214.457 401.76 Q213.121 403.359 210.658 403.979 Z" fill="#000000" fill-rule="nonzero" fill-opacity="1" /><path clip-path="url(#clip630)" d="M144.691 254.816 L152.33 254.816 L152.33 228.45 L144.02 230.117 L144.02 225.858 L152.284 224.191 L156.96 224.191 L156.96 254.816 L164.599 254.816 L164.599 258.751 L144.691 258.751 L144.691 254.816 Z" fill="#000000" fill-rule="nonzero" fill-opacity="1" /><path clip-path="url(#clip630)" d="M184.043 227.27 Q180.432 227.27 178.603 230.834 Q176.798 234.376 176.798 241.506 Q176.798 248.612 178.603 252.177 Q180.432 255.718 184.043 255.718 Q187.677 255.718 189.483 252.177 Q191.312 248.612 191.312 241.506 Q191.312 234.376 189.483 230.834 Q187.677 227.27 184.043 227.27 M184.043 223.566 Q189.853 223.566 192.909 228.172 Q195.987 232.756 195.987 241.506 Q195.987 250.232 192.909 254.839 Q189.853 259.422 184.043 259.422 Q178.233 259.422 175.154 254.839 Q172.099 250.232 172.099 241.506 Q172.099 232.756 175.154 228.172 Q178.233 223.566 184.043 223.566 Z" fill="#000000" fill-rule="nonzero" fill-opacity="1" /><path clip-path="url(#clip630)" d="M208.664 206.571 L199.072 221.56 L208.664 221.56 L208.664 206.571 M207.667 203.26 L212.444 203.26 L212.444 221.56 L216.45 221.56 L216.45 224.72 L212.444 224.72 L212.444 231.34 L208.664 231.34 L208.664 224.72 L195.987 224.72 L195.987 221.053 L207.667 203.26 Z" fill="#000000" fill-rule="nonzero" fill-opacity="1" /><path clip-path="url(#clip630)" d="M146.986 67.0365 L154.625 67.0365 L154.625 40.6709 L146.315 42.3376 L146.315 38.0784 L154.579 36.4117 L159.254 36.4117 L159.254 67.0365 L166.893 67.0365 L166.893 70.9717 L146.986 70.9717 L146.986 67.0365 Z" fill="#000000" fill-rule="nonzero" fill-opacity="1" /><path clip-path="url(#clip630)" d="M186.338 39.4904 Q182.727 39.4904 180.898 43.0552 Q179.092 46.5968 179.092 53.7264 Q179.092 60.8329 180.898 64.3977 Q182.727 67.9393 186.338 67.9393 Q189.972 67.9393 191.777 64.3977 Q193.606 60.8329 193.606 53.7264 Q193.606 46.5968 191.777 43.0552 Q189.972 39.4904 186.338 39.4904 M186.338 35.7867 Q192.148 35.7867 195.203 40.3932 Q198.282 44.9765 198.282 53.7264 Q198.282 62.4532 195.203 67.0597 Q192.148 71.643 186.338 71.643 Q180.527 71.643 177.449 67.0597 Q174.393 62.4532 174.393 53.7264 Q174.393 44.9765 177.449 40.3932 Q180.527 35.7867 186.338 35.7867 Z" fill="#000000" fill-rule="nonzero" fill-opacity="1" /><path clip-path="url(#clip630)" d="M199.467 15.4813 L214.381 15.4813 L214.381 18.6786 L202.946 18.6786 L202.946 25.5623 Q203.774 25.2801 204.601 25.1485 Q205.429 24.998 206.257 24.998 Q210.958 24.998 213.704 27.5747 Q216.45 30.1514 216.45 34.5524 Q216.45 39.085 213.629 41.6053 Q210.808 44.1067 205.673 44.1067 Q203.906 44.1067 202.062 43.8058 Q200.238 43.5049 198.282 42.903 L198.282 39.085 Q199.975 40.0066 201.78 40.458 Q203.586 40.9094 205.598 40.9094 Q208.852 40.9094 210.752 39.1979 Q212.651 37.4864 212.651 34.5524 Q212.651 31.6184 210.752 29.9069 Q208.852 28.1953 205.598 28.1953 Q204.075 28.1953 202.551 28.5339 Q201.047 28.8724 199.467 29.5871 L199.467 15.4813 Z" fill="#000000" fill-rule="nonzero" fill-opacity="1" /><path clip-path="url(#clip630)" d="M64.2442 713.679 L64.2442 706.772 L83.7869 693.595 L64.2442 680.513 L64.2442 673.607 L89.1341 690.412 L111.764 690.412 L111.764 696.873 L89.1341 696.873 L64.2442 713.679 Z" fill="#000000" fill-rule="nonzero" fill-opacity="1" /><path clip-path="url(#clip630)" d="M62.3026 632.802 Q69.6232 637.067 76.7846 639.136 Q83.946 641.205 91.2984 641.205 Q98.6508 641.205 105.876 639.136 Q113.069 637.036 120.358 632.802 L120.358 637.895 Q112.878 642.669 105.653 645.056 Q98.428 647.412 91.2984 647.412 Q84.2006 647.412 77.0074 645.056 Q69.8142 642.701 62.3026 637.895 L62.3026 632.802 Z" fill="#000000" fill-rule="nonzero" fill-opacity="1" /><path clip-path="url(#clip630)" d="M62.239 621.44 L62.239 615.583 L111.764 615.583 L111.764 621.44 L62.239 621.44 Z" fill="#000000" fill-rule="nonzero" fill-opacity="1" /><path clip-path="url(#clip630)" d="M80.2221 589.516 Q80.2221 594.226 83.9142 596.964 Q87.5745 599.701 93.972 599.701 Q100.37 599.701 104.062 596.995 Q107.722 594.258 107.722 589.516 Q107.722 584.837 104.03 582.1 Q100.338 579.362 93.972 579.362 Q87.6381 579.362 83.946 582.1 Q80.2221 584.837 80.2221 589.516 M75.2568 589.516 Q75.2568 581.877 80.2221 577.516 Q85.1873 573.156 93.972 573.156 Q102.725 573.156 107.722 577.516 Q112.687 581.877 112.687 589.516 Q112.687 597.186 107.722 601.547 Q102.725 605.876 93.972 605.876 Q85.1873 605.876 80.2221 601.547 Q75.2568 597.186 75.2568 589.516 Z" fill="#000000" fill-rule="nonzero" fill-opacity="1" /><path clip-path="url(#clip630)" d="M93.5264 539.99 Q87.1607 539.99 83.6596 542.632 Q80.1584 545.242 80.1584 549.985 Q80.1584 554.695 83.6596 557.337 Q87.1607 559.947 93.5264 559.947 Q99.8603 559.947 103.361 557.337 Q106.863 554.695 106.863 549.985 Q106.863 545.242 103.361 542.632 Q99.8603 539.99 93.5264 539.99 M107.34 534.134 Q116.443 534.134 120.867 538.176 Q125.323 542.218 125.323 550.558 Q125.323 553.645 124.846 556.382 Q124.4 559.119 123.445 561.698 L117.748 561.698 Q119.148 559.119 119.817 556.605 Q120.485 554.09 120.485 551.481 Q120.485 545.72 117.461 542.855 Q114.47 539.99 108.39 539.99 L105.494 539.99 Q108.645 541.805 110.205 544.637 Q111.764 547.47 111.764 551.417 Q111.764 557.974 106.767 561.984 Q101.77 565.994 93.5264 565.994 Q85.251 565.994 80.2539 561.984 Q75.2568 557.974 75.2568 551.417 Q75.2568 547.47 76.8164 544.637 Q78.376 541.805 81.5271 539.99 L76.1162 539.99 L76.1162 534.134 L107.34 534.134 Z" fill="#000000" fill-rule="nonzero" fill-opacity="1" /><path clip-path="url(#clip630)" d="M77.1665 478.625 L82.7047 478.625 Q81.4316 481.108 80.795 483.781 Q80.1584 486.455 80.1584 489.319 Q80.1584 493.68 81.4952 495.876 Q82.832 498.04 85.5056 498.04 Q87.5426 498.04 88.7203 496.481 Q89.8661 494.921 90.9165 490.211 L91.3621 488.205 Q92.6989 481.967 95.1497 479.357 Q97.5686 476.715 101.929 476.715 Q106.894 476.715 109.791 480.662 Q112.687 484.577 112.687 491.452 Q112.687 494.317 112.114 497.436 Q111.573 500.523 110.459 503.961 L104.412 503.961 Q106.099 500.714 106.958 497.563 Q107.786 494.412 107.786 491.325 Q107.786 487.187 106.385 484.959 Q104.953 482.731 102.375 482.731 Q99.9876 482.731 98.7145 484.354 Q97.4413 485.946 96.2637 491.388 L95.7862 493.425 Q94.6404 498.868 92.2851 501.287 Q89.898 503.706 85.7602 503.706 Q80.7313 503.706 77.9941 500.141 Q75.2568 496.576 75.2568 490.02 Q75.2568 486.773 75.7343 483.909 Q76.2117 481.044 77.1665 478.625 Z" fill="#000000" fill-rule="nonzero" fill-opacity="1" /><path clip-path="url(#clip630)" d="M77.4848 441.736 L82.9593 441.736 Q81.5907 444.218 80.9223 446.733 Q80.2221 449.215 80.2221 451.762 Q80.2221 457.459 83.8505 460.61 Q87.4472 463.761 93.972 463.761 Q100.497 463.761 104.125 460.61 Q107.722 457.459 107.722 451.762 Q107.722 449.215 107.054 446.733 Q106.353 444.218 104.985 441.736 L110.396 441.736 Q111.541 444.187 112.114 446.828 Q112.687 449.438 112.687 452.398 Q112.687 460.451 107.626 465.193 Q102.566 469.936 93.972 469.936 Q85.251 469.936 80.2539 465.162 Q75.2568 460.355 75.2568 452.016 Q75.2568 449.311 75.8297 446.733 Q76.3708 444.155 77.4848 441.736 Z" fill="#000000" fill-rule="nonzero" fill-opacity="1" /><path clip-path="url(#clip630)" d="M93.8447 415.35 Q93.8447 422.448 95.4679 425.185 Q97.0912 427.922 101.006 427.922 Q104.125 427.922 105.971 425.885 Q107.786 423.816 107.786 420.283 Q107.786 415.414 104.348 412.485 Q100.879 409.525 95.1497 409.525 L93.8447 409.525 L93.8447 415.35 M91.4257 403.669 L111.764 403.669 L111.764 409.525 L106.353 409.525 Q109.6 411.53 111.159 414.522 Q112.687 417.514 112.687 421.843 Q112.687 427.317 109.632 430.564 Q106.544 433.779 101.388 433.779 Q95.3725 433.779 92.3169 429.768 Q89.2614 425.726 89.2614 417.737 L89.2614 409.525 L88.6885 409.525 Q84.6462 409.525 82.4501 412.199 Q80.2221 414.841 80.2221 419.647 Q80.2221 422.702 80.9541 425.599 Q81.6862 428.495 83.1503 431.169 L77.7395 431.169 Q76.4981 427.954 75.8934 424.93 Q75.2568 421.907 75.2568 419.042 Q75.2568 411.308 79.2672 407.488 Q83.2776 403.669 91.4257 403.669 Z" fill="#000000" fill-rule="nonzero" fill-opacity="1" /><path clip-path="url(#clip630)" d="M62.239 391.606 L62.239 385.749 L111.764 385.749 L111.764 391.606 L62.239 391.606 Z" fill="#000000" fill-rule="nonzero" fill-opacity="1" /><path clip-path="url(#clip630)" d="M92.4761 343.004 L95.3406 343.004 L95.3406 369.931 Q101.388 369.549 104.571 366.302 Q107.722 363.024 107.722 357.199 Q107.722 353.825 106.894 350.674 Q106.067 347.491 104.412 344.372 L109.95 344.372 Q111.287 347.523 111.987 350.833 Q112.687 354.144 112.687 357.549 Q112.687 366.079 107.722 371.076 Q102.757 376.042 94.2903 376.042 Q85.5374 376.042 80.4131 371.331 Q75.2568 366.589 75.2568 358.568 Q75.2568 351.375 79.9038 347.205 Q84.5189 343.004 92.4761 343.004 M90.7573 348.86 Q85.9512 348.924 83.0866 351.566 Q80.2221 354.175 80.2221 358.504 Q80.2221 363.406 82.9912 366.366 Q85.7602 369.294 90.7892 369.74 L90.7573 348.86 Z" fill="#000000" fill-rule="nonzero" fill-opacity="1" /><path clip-path="url(#clip630)" d="M62.3026 334.314 L62.3026 329.222 Q69.8142 324.448 77.0074 322.092 Q84.2006 319.705 91.2984 319.705 Q98.428 319.705 105.653 322.092 Q112.878 324.448 120.358 329.222 L120.358 334.314 Q113.069 330.081 105.876 328.012 Q98.6508 325.912 91.2984 325.912 Q83.946 325.912 76.7846 328.012 Q69.6232 330.081 62.3026 334.314 Z" fill="#000000" fill-rule="nonzero" fill-opacity="1" /><circle clip-path="url(#clip632)" cx="356.891" cy="784.183" r="6.48" fill="#ffffff" fill-rule="evenodd" fill-opacity="1" stroke="#0000ff" stroke-opacity="1" stroke-width="4.8"/>
<circle clip-path="url(#clip632)" cx="356.891" cy="762.708" r="6.48" fill="#ffffff" fill-rule="evenodd" fill-opacity="1" stroke="#0000ff" stroke-opacity="1" stroke-width="4.8"/>
<circle clip-path="url(#clip632)" cx="356.891" cy="787.984" r="6.48" fill="#ffffff" fill-rule="evenodd" fill-opacity="1" stroke="#0000ff" stroke-opacity="1" stroke-width="4.8"/>
<circle clip-path="url(#clip632)" cx="662.993" cy="780.845" r="6.48" fill="#ffffff" fill-rule="evenodd" fill-opacity="1" stroke="#0000ff" stroke-opacity="1" stroke-width="4.8"/>
<circle clip-path="url(#clip632)" cx="662.993" cy="793.21" r="6.48" fill="#ffffff" fill-rule="evenodd" fill-opacity="1" stroke="#0000ff" stroke-opacity="1" stroke-width="4.8"/>
<circle clip-path="url(#clip632)" cx="662.993" cy="802.729" r="6.48" fill="#ffffff" fill-rule="evenodd" fill-opacity="1" stroke="#0000ff" stroke-opacity="1" stroke-width="4.8"/>
<circle clip-path="url(#clip632)" cx="969.095" cy="796.094" r="6.48" fill="#ffffff" fill-rule="evenodd" fill-opacity="1" stroke="#0000ff" stroke-opacity="1" stroke-width="4.8"/>
<circle clip-path="url(#clip632)" cx="969.095" cy="781.196" r="6.48" fill="#ffffff" fill-rule="evenodd" fill-opacity="1" stroke="#0000ff" stroke-opacity="1" stroke-width="4.8"/>
<circle clip-path="url(#clip632)" cx="969.095" cy="809.555" r="6.48" fill="#ffffff" fill-rule="evenodd" fill-opacity="1" stroke="#0000ff" stroke-opacity="1" stroke-width="4.8"/>
<circle clip-path="url(#clip632)" cx="418.111" cy="264.593" r="6.48" fill="#ffffff" fill-rule="evenodd" fill-opacity="1" stroke="#ff0000" stroke-opacity="1" stroke-width="4.8"/>
<circle clip-path="url(#clip632)" cx="418.111" cy="328.998" r="6.48" fill="#ffffff" fill-rule="evenodd" fill-opacity="1" stroke="#ff0000" stroke-opacity="1" stroke-width="4.8"/>
<circle clip-path="url(#clip632)" cx="418.111" cy="292.378" r="6.48" fill="#ffffff" fill-rule="evenodd" fill-opacity="1" stroke="#ff0000" stroke-opacity="1" stroke-width="4.8"/>
<circle clip-path="url(#clip632)" cx="724.213" cy="306.417" r="6.48" fill="#ffffff" fill-rule="evenodd" fill-opacity="1" stroke="#ff0000" stroke-opacity="1" stroke-width="4.8"/>
<circle clip-path="url(#clip632)" cx="724.213" cy="306.38" r="6.48" fill="#ffffff" fill-rule="evenodd" fill-opacity="1" stroke="#ff0000" stroke-opacity="1" stroke-width="4.8"/>
<circle clip-path="url(#clip632)" cx="724.213" cy="293.012" r="6.48" fill="#ffffff" fill-rule="evenodd" fill-opacity="1" stroke="#ff0000" stroke-opacity="1" stroke-width="4.8"/>
<circle clip-path="url(#clip632)" cx="1030.32" cy="306.973" r="6.48" fill="#ffffff" fill-rule="evenodd" fill-opacity="1" stroke="#ff0000" stroke-opacity="1" stroke-width="4.8"/>
<circle clip-path="url(#clip632)" cx="1030.32" cy="287.837" r="6.48" fill="#ffffff" fill-rule="evenodd" fill-opacity="1" stroke="#ff0000" stroke-opacity="1" stroke-width="4.8"/>
<circle clip-path="url(#clip632)" cx="1030.32" cy="304.335" r="6.48" fill="#ffffff" fill-rule="evenodd" fill-opacity="1" stroke="#ff0000" stroke-opacity="1" stroke-width="4.8"/>
</svg>
